<?xml version="1.0" encoding="utf-8"?>
<!-- Generator: Adobe Illustrator 21.1.0, SVG Export Plug-In . SVG Version: 6.00 Build 0)  -->
<svg version="1.1" id="Layer_1" xmlns="http://www.w3.org/2000/svg" xmlns:xlink="http://www.w3.org/1999/xlink" x="0px" y="0px"
	 viewBox="0 0 1280 1024" style="enable-background:new 0 0 1280 1024;" xml:space="preserve">
<style type="text/css">
	.st0{fill:#ED1C24;}
	.st1{fill:#FFFFFF;}
	.st2{fill:#00A9EE;}
</style>
<g>
	<path class="st0" d="M491,591.6c0-8.4,1.3-15.6,4-21.5c2.6-5.9,6.3-10.6,11-14.3c4.7-3.6,10.3-6.3,16.7-7.9
		c6.5-1.7,13.6-2.5,21.3-2.5c7.4,0,14,0.5,19.8,1.4c5.8,0.9,10.8,1.9,14.9,2.9c4.1,1.1,7.4,2,9.6,2.9c2.3,0.9,3.5,1.4,3.8,1.6v158
		h-25.8V569c-0.9-0.3-3.4-0.9-7.4-1.8c-4-0.9-8.9-1.4-14.8-1.4c-9.7,0-16.6,2.3-20.9,6.9c-4.3,4.6-6.5,11.5-6.5,20.7v5.2h25.8
		c5,0,8.5,1,10.5,3.1s3.1,5,3.1,8.9c0,2.6-0.4,4.9-1.1,7.1c-0.8,2.2-1.4,3.7-1.8,4.6h-36.4v89.9H491V591.6z"/>
	<path class="st0" d="M619.8,610.6c0-4.2,1.2-7.3,3.6-9.2c2.4-1.9,5.8-2.8,10.2-2.8c2.7,0,5.2,0.3,7.5,1c2.3,0.7,3.8,1.2,4.5,1.5
		v59.5c0,10.3,2.4,18.1,7.2,23.4c4.8,5.4,12.2,8,22.2,8s17.3-2.7,22.2-8c4.8-5.4,7.2-13.2,7.2-23.4v-50c0-4.2,1.2-7.3,3.6-9.2
		c2.4-1.9,5.7-2.8,10-2.8c2.9,0,5.4,0.3,7.7,1c2.3,0.7,3.8,1.2,4.5,1.5v65.2c0,7.7-1.3,14.6-4,20.7c-2.6,6.1-6.4,11.3-11.3,15.5
		c-4.9,4.2-10.8,7.4-17.5,9.6c-6.8,2.2-14.3,3.3-22.4,3.3s-15.6-1.1-22.4-3.3c-6.8-2.2-12.6-5.4-17.4-9.6
		c-4.8-4.2-8.6-9.4-11.3-15.5c-2.7-6.1-4.1-13-4.1-20.7V610.6z"/>
	<path class="st0" d="M857.9,703.9c-1.2,0.8-3.1,1.8-5.7,3.2c-2.6,1.4-5.8,2.6-9.6,3.8c-3.8,1.2-8.3,2.3-13.4,3.2
		c-5.1,0.9-10.6,1.4-16.6,1.4c-8.5,0-16.3-1.3-23.7-3.8c-7.3-2.6-13.7-6.4-19.2-11.4c-5.5-5.1-9.8-11.2-13-18.6
		c-3.2-7.3-4.8-15.7-4.8-25.2c0-9.1,1.5-17.3,4.6-24.8c3.1-7.5,7.4-13.9,12.9-19.2c5.5-5.4,12-9.5,19.5-12.4
		c7.5-2.9,15.7-4.4,24.6-4.4c7.8,0,14.8,1,20.8,3.1c6,2,11.1,4.8,15.3,8.1c4.1,3.4,7.3,7.4,9.4,11.9c2.1,4.5,3.2,9.4,3.2,14.5
		c0,5.3-1,10.1-2.9,14.4c-2,4.3-5.4,8-10.4,11.1c-5,3.1-11.7,5.5-20.1,7.2c-8.5,1.7-19.2,2.6-32.1,2.6c-3,0-5.8,0-8.5-0.1
		c-2.6-0.1-5.5-0.2-8.5-0.3c1.2,7.7,4.9,13.9,11.2,18.7c6.3,4.8,15.2,7.1,26.8,7.1c3.9,0,7.5-0.3,10.9-0.9c3.3-0.6,6.3-1.4,8.9-2.3
		c2.6-0.9,4.9-1.8,6.8-2.7c1.9-0.9,3.3-1.6,4.2-2L857.9,703.9z M778.5,650.2c3.5,0.2,6.8,0.2,10,0.2s6.3,0,9.5,0
		c8.3,0,15-0.5,20.1-1.6c5.1-1.1,9.1-2.4,12-4.1c2.9-1.7,4.8-3.5,5.7-5.7c0.9-2.1,1.4-4.3,1.4-6.6c0-5.7-2.3-10-6.9-12.9
		c-4.6-2.9-10.3-4.3-17.1-4.3c-5.6,0-10.5,1-14.7,2.9c-4.2,2-7.8,4.6-10.6,7.8c-2.9,3.2-5.1,7-6.7,11.2
		C779.5,641.6,778.6,645.9,778.5,650.2z"/>
	<path class="st0" d="M881.5,643.7c0-7.5,1.4-14.3,4.2-20.3c2.8-6,6.6-11,11.5-15.2c4.9-4.1,10.7-7.3,17.4-9.5
		c6.7-2.2,14.1-3.3,22.1-3.3c8,0,15.4,1.1,22.2,3.3c6.8,2.2,12.6,5.4,17.5,9.5c4.9,4.2,8.7,9.2,11.4,15.2c2.7,6,4.1,12.7,4.1,20.3
		v68.6h-25.8v-62c0-10.3-2.5-18.1-7.5-23.4c-5-5.4-12.3-8-22-8c-9.8,0-17.2,2.7-22.1,8c-4.9,5.4-7.4,13.2-7.4,23.4v62h-25.8V643.7z"
		/>
	<path class="st0" d="M1018.8,578.5c0-4.2,1.2-7.3,3.6-9.2c2.4-1.9,5.7-2.8,10-2.8c2.7,0,5.2,0.3,7.6,1c2.3,0.7,3.9,1.2,4.6,1.5
		v29.7h32.8c5,0,8.5,1,10.5,3.1c2,2,3.1,5,3.1,8.9c0,2.6-0.4,4.9-1.1,7.1c-0.8,2.2-1.4,3.7-1.8,4.6h-43.5v50.5
		c0,3.9,0.5,7.1,1.6,9.6c1.1,2.5,2.5,4.5,4.4,6c1.9,1.5,4.1,2.6,6.6,3.2c2.5,0.6,5.1,0.9,7.8,0.9c4.4,0,8.4-0.7,12.2-2
		c3.8-1.4,6.5-2.6,8.1-3.8l10.4,17.2c-1.2,0.9-2.9,2-5.1,3.4c-2.2,1.4-4.9,2.6-8,3.8s-6.7,2.2-10.6,3.1c-3.9,0.8-8.2,1.2-12.9,1.2
		c-13.3,0-23.3-3.4-30.1-10.3c-6.8-6.9-10.2-15.9-10.2-27V578.5z"/>
</g>
<path class="st1" d="M208.9,467.3l69.6,40.2c0.4,0.2,0.7,0.4,1,0.6l129.6,74.8v-60.7c0-6.1,3.2-11.7,8.5-14.7l69.7-40.2V306.6
	l-139.2-80.4l-139.2,80.4V467.3z"/>
<path class="st2" d="M512.8,282.1l-156.2-90.2c-5.3-3-11.7-3-17,0l-156.2,90.2c-5.2,3-8.5,8.6-8.5,14.7v180.3
	c0,6.1,3.2,11.7,8.5,14.7l77,44.4c0.3,0.2,0.7,0.4,1,0.6L417.6,627c2.6,1.5,5.6,2.3,8.5,2.3c2.9,0,5.9-0.8,8.5-2.3
	c5.2-3,8.5-8.6,8.5-14.7V532l69.7-40.2c5.2-3,8.5-8.6,8.5-14.7V296.8C521.2,290.7,518,285.1,512.8,282.1z M487.3,467.3l-69.7,40.2
	c-5.2,3-8.5,8.6-8.5,14.7v60.7l-129.6-74.8c-0.3-0.2-0.7-0.4-1-0.6l-69.6-40.2V306.6l139.2-80.4l139.2,80.4V467.3z"/>
<g>
	<path class="st0" d="M336.9,406.8l-3.6-54.4c-0.7-10.6-1-18.2-1-22.8c0-6.3,1.6-11.2,4.9-14.7c3.3-3.5,7.6-5.3,13-5.3
		c6.5,0,10.9,2.3,13.1,6.8c2.2,4.5,3.3,11,3.3,19.5c0,5-0.3,10.1-0.8,15.2l-4.9,56c-0.5,6.7-1.7,11.8-3.4,15.3
		c-1.7,3.6-4.6,5.3-8.6,5.3c-4.1,0-6.9-1.7-8.5-5.2C338.7,419.1,337.5,413.8,336.9,406.8z M349.5,481.6c-4.6,0-8.7-1.5-12.1-4.5
		c-3.4-3-5.2-7.2-5.2-12.6c0-4.7,1.6-8.7,4.9-12c3.3-3.3,7.3-4.9,12.1-4.9c4.8,0,8.8,1.6,12.2,4.9c3.4,3.3,5.1,7.3,5.1,12
		c0,5.3-1.7,9.5-5.1,12.5C358,480,354,481.6,349.5,481.6z"/>
</g>
<g>
	<path class="st0" d="M527.3,781.6h-31.9l-9.4,23.2h-5.7l28.5-67.7h5.6l28.4,67.7h-6L527.3,781.6z M525.7,777.6l-5.1-12.6
		c-3.2-8-6.1-15.1-8.9-23.4h-0.5c-2.8,8.3-5.6,15.4-8.9,23.4l-5.1,12.6H525.7z"/>
	<path class="st0" d="M552,792.6c5.9,5.6,14.3,9.1,23.7,9.1c12.2,0,20.1-5.6,20.1-13.6c0-8.4-6.6-11.2-14.6-14.2l-12.2-4.6
		c-7-2.6-16.3-6.8-16.3-16.9c0-9.8,10-16.7,23.4-16.7c9.8,0,17.6,3.7,22.5,8.1l-3.3,3.2c-4.6-4.2-11.1-7-19.2-7
		c-10.6,0-17.7,4.7-17.7,12.1c0,7.8,8.1,10.8,13.9,13.1l12.2,4.5c8.9,3.4,16.9,7.6,16.9,18s-10.1,18.2-25.8,18.2
		c-11.7,0-20.8-4.2-27.1-10.2L552,792.6z"/>
	<path class="st0" d="M613.5,792.6c5.9,5.6,14.3,9.1,23.7,9.1c12.2,0,20.1-5.6,20.1-13.6c0-8.4-6.6-11.2-14.5-14.2l-12.2-4.6
		c-7-2.6-16.3-6.8-16.3-16.9c0-9.8,10-16.7,23.4-16.7c9.8,0,17.6,3.7,22.5,8.1l-3.3,3.2c-4.6-4.2-11.1-7-19.2-7
		c-10.6,0-17.7,4.7-17.7,12.1c0,7.8,8.1,10.8,13.9,13.1l12.2,4.5c8.9,3.4,16.9,7.6,16.9,18s-10.1,18.2-25.8,18.2
		c-11.7,0-20.8-4.2-27.1-10.2L613.5,792.6z"/>
	<path class="st0" d="M679,737.1h44v4.1h-38.4v25.6h32.3v4.1h-32.3v29.8h39.6v4.1H679V737.1z"/>
	<path class="st0" d="M785.5,804.8l-21.8-31.1h-17.1v31.1H741v-67.7h23c16,0,26.5,4.9,26.5,17.9c0,10.8-8.1,17-20.7,18.4l22.1,31.5
		H785.5z M762.5,769.8c14.3,0,22.1-4.8,22.1-14.8c0-10.2-7.8-13.9-22.1-13.9h-15.9v28.7H762.5z"/>
	<path class="st0" d="M823.5,741.2h-25.7v-4.1h56.9v4.1h-25.6v63.6h-5.6V741.2z"/>
	<path class="st0" d="M869.4,737.1h5.6v67.7h-5.6V737.1z"/>
	<path class="st0" d="M892.6,770.7c0-21.4,13.8-34.8,33.3-34.8c19.3,0,33.1,13.5,33.1,34.8c0,21.5-13.8,35.4-33.1,35.4
		C906.4,806.1,892.6,792.2,892.6,770.7z M953.1,770.7c0-18.7-11-30.5-27.3-30.5c-16.4,0-27.4,11.8-27.4,30.5c0,18.8,11,31,27.4,31
		C942.1,801.8,953.1,789.5,953.1,770.7z"/>
	<path class="st0" d="M976.7,737.1h5.9l33.9,47.8l9.2,13.5h0.5c-0.4-6.6-0.7-13.2-0.7-19.7v-41.5h5.3v67.7h-5.9L990.9,757l-9.2-13.5
		h-0.5c0.4,6.5,0.7,12.6,0.7,19.2v42h-5.3V737.1z"/>
	<path class="st0" d="M1051,792.6c5.9,5.6,14.3,9.1,23.7,9.1c12.2,0,20.1-5.6,20.1-13.6c0-8.4-6.6-11.2-14.5-14.2l-12.2-4.6
		c-7-2.6-16.3-6.8-16.3-16.9c0-9.8,10-16.7,23.4-16.7c9.8,0,17.6,3.7,22.5,8.1l-3.3,3.2c-4.6-4.2-11.1-7-19.2-7
		c-10.6,0-17.7,4.7-17.7,12.1c0,7.8,8.1,10.8,13.9,13.1l12.2,4.5c8.9,3.4,16.9,7.6,16.9,18s-10.1,18.2-25.8,18.2
		c-11.7,0-20.8-4.2-27.1-10.2L1051,792.6z"/>
</g>
</svg>
