<svg id="Layer_1" data-name="Layer 1" xmlns="http://www.w3.org/2000/svg" viewBox="0 0 732.278 916"><defs><style>.cls-1{fill:#ccc;}.cls-2{fill:#fff;}.cls-3{fill:#00a9ee;}.cls-4{fill:#ed1c24;}</style></defs><title>fluent_assertions_large_icon_only</title><path class="cls-1" d="M640,54a59.039,59.039,0,0,0-29.477,7.9L303.339,239.257a59.1,59.1,0,0,0-29.478,51.055v354.7a59.107,59.107,0,0,0,29.485,51.059L454.1,783.118c.858.555,1.732,1.091,2.6,1.594l307.25,177.4a58.955,58.955,0,0,0,88.433-51.063V767.817l124.285-71.753a59.1,59.1,0,0,0,29.478-51.055v-354.7a59.106,59.106,0,0,0-29.484-51.059L669.478,61.9A59.038,59.038,0,0,0,640,54Z" transform="translate(-273.861 -54)"/><path class="cls-2" d="M975.672,240.957,668.494,63.6a56.974,56.974,0,0,0-56.988,0L304.322,240.961a57.131,57.131,0,0,0-28.494,49.351v354.7a57.134,57.134,0,0,0,28.5,49.355l150.794,87.075c.847.549,1.705,1.076,2.559,1.572L764.926,960.4a56.988,56.988,0,0,0,85.483-49.359V766.681l125.268-72.32a57.131,57.131,0,0,0,28.495-49.352v-354.7A57.134,57.134,0,0,0,975.672,240.957Z" transform="translate(-273.861 -54)"/><path class="cls-3" d="M963.874,261.4,656.691,84.048a33.369,33.369,0,0,0-33.382,0L316.126,261.4a33.381,33.381,0,0,0-16.691,28.907v354.7a33.38,33.38,0,0,0,16.691,28.907l151.383,87.415c.66.44,1.337.864,2.037,1.271L776.73,939.96A33.382,33.382,0,0,0,826.8,911.044V753.052l137.072-79.135a33.381,33.381,0,0,0,16.691-28.907v-354.7A33.381,33.381,0,0,0,963.874,261.4ZM913.8,625.735,776.73,704.878a33.38,33.38,0,0,0-16.691,28.907V853.229l-254.9-147.178c-.66-.448-1.336-.872-2.037-1.271L366.2,625.735V309.587L640,151.5,913.8,309.587Z" transform="translate(-273.861 -54)"/><path class="cls-4" d="M617.832,506.7l-7.156-107.081q-2-31.3-2-44.938,0-18.557,9.731-28.948,9.706-10.4,25.59-10.4,19.217,0,25.7,13.3t6.487,38.345a292.274,292.274,0,0,1-1.565,29.951L665,507.147q-1.565,19.67-6.7,30.179-5.159,10.513-17,10.513-12.054,0-16.756-10.179T617.832,506.7Zm24.824,147.1a35.162,35.162,0,0,1-23.814-8.834q-10.171-8.826-10.171-24.7A33.212,33.212,0,0,1,642.2,586.958a33.167,33.167,0,0,1,24.042,9.723,31.823,31.823,0,0,1,9.943,23.586q0,15.66-10.057,24.6A34.274,34.274,0,0,1,642.657,653.8Z" transform="translate(-273.861 -54)"/></svg>