<svg id="Layer_1" data-name="Layer 1" xmlns="http://www.w3.org/2000/svg" viewBox="0 0 1110.881 908.868"><defs><style>.cls-1{fill:#ccc;}.cls-2{fill:#fff;}.cls-3{fill:#00a9ee;}.cls-4{fill:#ed1c24;}.cls-5{fill:#333;}.cls-6{fill:#e6e6e6;}.cls-7{fill:#b3b3b3;}</style></defs><title>fluent_assertions_full_set</title><path class="cls-1" d="M353.56,154.945a46.026,46.026,0,0,0-22.98,6.159L91.1,299.371a46.074,46.074,0,0,0-22.981,39.8v276.52A46.079,46.079,0,0,0,91.105,655.5L208.63,723.363c.669.433,1.35.851,2.024,1.243L450.185,862.9a45.961,45.961,0,0,0,68.942-39.808V711.434L616.019,655.5A46.074,46.074,0,0,0,639,615.693V339.173a46.079,46.079,0,0,0-22.986-39.805L376.54,161.1a46.026,46.026,0,0,0-22.981-6.159Z" transform="translate(-68.119 -59.256)"/><path class="cls-2" d="M615.248,300.7,375.774,162.433a44.417,44.417,0,0,0-44.427,0L91.867,300.7a44.539,44.539,0,0,0-22.214,38.474v276.52A44.542,44.542,0,0,0,91.872,654.17L209.43,722.054c.661.428,1.329.839,2,1.226L450.952,861.574a44.428,44.428,0,0,0,66.642-38.48V710.548l97.659-56.381a44.539,44.539,0,0,0,22.214-38.474V339.173A44.542,44.542,0,0,0,615.248,300.7Z" transform="translate(-68.119 -59.256)"/><path class="cls-3" d="M606.051,316.637,366.572,178.37a26.014,26.014,0,0,0-26.024,0L101.068,316.637a26.023,26.023,0,0,0-13.012,22.536v276.52a26.023,26.023,0,0,0,13.012,22.536l118.018,68.148c.515.343,1.042.673,1.588.991L460.154,845.636a26.024,26.024,0,0,0,39.036-22.543V699.923L606.051,638.23a26.023,26.023,0,0,0,13.012-22.536V339.173A26.023,26.023,0,0,0,606.051,316.637Zm-39.036,284.03-106.861,61.7A26.023,26.023,0,0,0,447.141,684.9v93.118L248.42,663.282c-.515-.349-1.042-.68-1.588-.991L140.1,600.667V354.2L353.56,230.959,567.014,354.2Z" transform="translate(-68.119 -59.256)"/><path class="cls-4" d="M336.278,507.867l-5.578-83.48q-1.563-24.4-1.563-35.034,0-14.467,7.586-22.568,7.567-8.11,19.95-8.107,14.982,0,20.039,10.369t5.057,29.894a227.856,227.856,0,0,1-1.22,23.349l-7.5,85.926q-1.22,15.334-5.223,23.527-4.022,8.2-13.254,8.2-9.4,0-13.063-7.936T336.278,507.867Zm19.353,114.682a27.412,27.412,0,0,1-18.565-6.887q-7.929-6.881-7.929-19.258a25.892,25.892,0,0,1,26.139-25.967,25.857,25.857,0,0,1,18.743,7.58,24.809,24.809,0,0,1,7.751,18.387q0,12.208-7.84,19.175A26.72,26.72,0,0,1,355.631,622.549Z" transform="translate(-68.119 -59.256)"/><path class="cls-3" d="M899.828,104.863,831.634,65.49a7.408,7.408,0,0,0-7.411,0l-68.194,39.373a7.41,7.41,0,0,0-3.705,6.417v78.742a7.41,7.41,0,0,0,3.705,6.417l33.607,19.406c.147.1.3.192.452.282L858.282,255.5a7.411,7.411,0,0,0,11.116-6.419V214.007l30.43-17.568a7.41,7.41,0,0,0,3.705-6.417V111.28A7.41,7.41,0,0,0,899.828,104.863Zm-11.116,80.88-30.43,17.57a7.41,7.41,0,0,0-3.705,6.417v26.516l-56.588-32.673c-.147-.1-.3-.194-.452-.282l-30.392-17.548V115.559l60.783-35.094,60.783,35.094Z" transform="translate(-68.119 -59.256)"/><path class="cls-2" d="M902.447,100.323,834.254,60.952a12.648,12.648,0,0,0-12.651,0l-68.194,39.373a12.683,12.683,0,0,0-6.326,10.956v78.742a12.684,12.684,0,0,0,6.327,10.957l33.476,19.33c.188.122.379.239.568.349l68.208,39.381a12.651,12.651,0,0,0,18.977-10.958V217.033l27.809-16.055a12.683,12.683,0,0,0,6.326-10.956V111.28A12.684,12.684,0,0,0,902.447,100.323Zm1.086,89.7a7.41,7.41,0,0,1-3.705,6.417L869.4,214.007v35.074a7.412,7.412,0,0,1-11.116,6.419l-68.194-39.373c-.156-.09-.306-.185-.452-.282l-33.607-19.406a7.41,7.41,0,0,1-3.705-6.417V111.28a7.41,7.41,0,0,1,3.705-6.417L824.223,65.49a7.407,7.407,0,0,1,7.411,0l68.194,39.373a7.41,7.41,0,0,1,3.705,6.417Z" transform="translate(-68.119 -59.256)"/><path class="cls-2" d="M767.145,115.559v70.184l30.392,17.548c.156.089.306.183.452.282l39.777,22.967,16.81,9.706V209.73a7.407,7.407,0,0,1,3.286-6.156q.2-.137.419-.261l30.43-17.57V115.559L827.929,80.465Z" transform="translate(-68.119 -59.256)"/><path class="cls-4" d="M823.007,159.317l-1.589-23.772q-.445-6.947-.445-9.976a9.036,9.036,0,0,1,2.16-6.426,7.408,7.408,0,0,1,5.681-2.309q4.266,0,5.706,2.953t1.44,8.512a64.884,64.884,0,0,1-.347,6.649l-2.135,24.468a19.2,19.2,0,0,1-1.487,6.7,3.9,3.9,0,0,1-3.774,2.334,3.752,3.752,0,0,1-3.72-2.26A22.532,22.532,0,0,1,823.007,159.317Zm5.511,32.657a7.806,7.806,0,0,1-5.287-1.961,6.873,6.873,0,0,1-2.258-5.484,7.373,7.373,0,0,1,7.443-7.394,7.363,7.363,0,0,1,5.337,2.158,7.065,7.065,0,0,1,2.207,5.236,6.935,6.935,0,0,1-2.233,5.46A7.609,7.609,0,0,1,828.518,191.974Z" transform="translate(-68.119 -59.256)"/><path class="cls-4" d="M744.034,274.573a14.691,14.691,0,0,1,1.111-6.033,10.258,10.258,0,0,1,3.08-4,12.734,12.734,0,0,1,4.7-2.223,24.074,24.074,0,0,1,5.97-.7,36.379,36.379,0,0,1,5.557.381q2.444.381,4.191.826a22.858,22.858,0,0,1,2.7.826q.953.381,1.08.444v44.328h-7.24v-40.2q-.381-.127-2.064-.508a19.209,19.209,0,0,0-4.16-.381q-4.065,0-5.874,1.937t-1.81,5.811v1.46h7.24a4.1,4.1,0,0,1,2.953.857,3.4,3.4,0,0,1,.857,2.509,6.1,6.1,0,0,1-.318,2,12.166,12.166,0,0,1-.508,1.3H751.274v25.212h-7.24Z" transform="translate(-68.119 -59.256)"/><path class="cls-4" d="M780.17,279.908a3.064,3.064,0,0,1,1.016-2.572,4.542,4.542,0,0,1,2.858-.794,7.275,7.275,0,0,1,2.1.286q.953.286,1.27.413v16.7q0,4.319,2.032,6.573t6.224,2.255q4.191,0,6.224-2.255t2.032-6.573V279.908a3.064,3.064,0,0,1,1.016-2.572,4.429,4.429,0,0,1,2.794-.794,7.518,7.518,0,0,1,2.159.286q.953.286,1.27.413v18.29a14.522,14.522,0,0,1-1.111,5.811,11.887,11.887,0,0,1-3.175,4.35,14.027,14.027,0,0,1-4.922,2.7,21.923,21.923,0,0,1-12.575,0,13.691,13.691,0,0,1-4.89-2.7,12.352,12.352,0,0,1-3.175-4.35,14.158,14.158,0,0,1-1.143-5.811Z" transform="translate(-68.119 -59.256)"/><path class="cls-4" d="M846.979,306.073q-.509.319-1.588.889a16.209,16.209,0,0,1-2.7,1.08,30.561,30.561,0,0,1-3.747.889,26.552,26.552,0,0,1-4.668.381,19.934,19.934,0,0,1-6.636-1.08,15.415,15.415,0,0,1-5.4-3.207,15.1,15.1,0,0,1-3.652-5.207,17.676,17.676,0,0,1-1.334-7.081,18,18,0,0,1,1.3-6.954,15.921,15.921,0,0,1,3.62-5.4,16.321,16.321,0,0,1,5.462-3.493,18.639,18.639,0,0,1,6.891-1.238,18.256,18.256,0,0,1,5.843.857,13.537,13.537,0,0,1,4.287,2.286,9.352,9.352,0,0,1,3.525,7.4,9.614,9.614,0,0,1-.826,4.033,7.285,7.285,0,0,1-2.921,3.112,17.421,17.421,0,0,1-5.652,2.032,46.034,46.034,0,0,1-9.018.73q-1.271,0-2.382-.032t-2.381-.1a7.889,7.889,0,0,0,3.143,5.239q2.635,2,7.526,2a17.053,17.053,0,0,0,3.049-.254,17.287,17.287,0,0,0,2.509-.635,17.905,17.905,0,0,0,1.905-.762q.793-.381,1.175-.572Zm-22.291-15.051q1.46.064,2.794.064h2.667a29.009,29.009,0,0,0,5.652-.444,11.44,11.44,0,0,0,3.366-1.143,3.565,3.565,0,0,0,1.588-1.588,4.63,4.63,0,0,0,.381-1.842,3.986,3.986,0,0,0-1.937-3.62,8.915,8.915,0,0,0-4.795-1.206,9.712,9.712,0,0,0-4.128.826,8.95,8.95,0,0,0-2.985,2.191,10.013,10.013,0,0,0-1.874,3.143A11.354,11.354,0,0,0,824.688,291.022Z" transform="translate(-68.119 -59.256)"/><path class="cls-4" d="M853.583,289.18a13.241,13.241,0,0,1,1.175-5.684A12.373,12.373,0,0,1,858,279.241a14.367,14.367,0,0,1,4.89-2.667,19.906,19.906,0,0,1,6.192-.921,20.215,20.215,0,0,1,6.224.921,14.336,14.336,0,0,1,4.922,2.667,12.056,12.056,0,0,1,3.207,4.255,13.566,13.566,0,0,1,1.143,5.684v19.243h-7.24v-17.4q0-4.318-2.1-6.573t-6.16-2.255q-4.129,0-6.192,2.255t-2.064,6.573v17.4h-7.24Z" transform="translate(-68.119 -59.256)"/><path class="cls-4" d="M892.131,270.89a3.066,3.066,0,0,1,1.016-2.572,4.431,4.431,0,0,1,2.794-.794,7.6,7.6,0,0,1,2.128.286q.984.286,1.3.413v8.319h9.209a4.1,4.1,0,0,1,2.953.857,3.4,3.4,0,0,1,.857,2.509,6.1,6.1,0,0,1-.317,2,12.122,12.122,0,0,1-.508,1.3H899.371v14.162a6.967,6.967,0,0,0,.445,2.7,4.2,4.2,0,0,0,1.238,1.683,4.653,4.653,0,0,0,1.842.889,9.257,9.257,0,0,0,2.191.254,10.051,10.051,0,0,0,3.429-.572,9.7,9.7,0,0,0,2.286-1.08l2.921,4.826q-.509.381-1.429.953a13.212,13.212,0,0,1-2.255,1.08,20.154,20.154,0,0,1-2.985.857,17.571,17.571,0,0,1-3.62.349q-5.589,0-8.447-2.89a10.323,10.323,0,0,1-2.858-7.589Z" transform="translate(-68.119 -59.256)"/><path class="cls-4" d="M754.208,327.879h-8.954l-2.642,6.519H741l7.993-19.008h1.578l7.959,19.008H756.85Zm-.446-1.125-1.441-3.548c-.892-2.25-1.715-4.24-2.5-6.576h-.137c-.789,2.336-1.578,4.327-2.5,6.576l-1.441,3.548Z" transform="translate(-68.119 -59.256)"/><path class="cls-4" d="M761.138,330.965a9.691,9.691,0,0,0,6.655,2.567c3.431,0,5.626-1.557,5.626-3.807,0-2.365-1.853-3.144-4.083-3.98l-3.431-1.3c-1.955-.721-4.563-1.9-4.563-4.73,0-2.74,2.813-4.673,6.552-4.673a9.42,9.42,0,0,1,6.312,2.279l-.926.894a7.846,7.846,0,0,0-5.386-1.961c-2.985,0-4.974,1.327-4.974,3.4,0,2.192,2.264,3.029,3.911,3.663l3.431,1.269c2.5.952,4.734,2.134,4.734,5.047s-2.847,5.105-7.239,5.105a10.857,10.857,0,0,1-7.616-2.855Z" transform="translate(-68.119 -59.256)"/><path class="cls-4" d="M778.394,330.965a9.69,9.69,0,0,0,6.655,2.567c3.431,0,5.626-1.557,5.626-3.807,0-2.365-1.853-3.144-4.082-3.98l-3.431-1.3c-1.956-.721-4.563-1.9-4.563-4.73,0-2.74,2.813-4.673,6.553-4.673a9.42,9.42,0,0,1,6.312,2.279l-.926.894a7.847,7.847,0,0,0-5.386-1.961c-2.985,0-4.975,1.327-4.975,3.4,0,2.192,2.264,3.029,3.911,3.663l3.431,1.269c2.5.952,4.734,2.134,4.734,5.047s-2.847,5.105-7.239,5.105a10.856,10.856,0,0,1-7.616-2.855Z" transform="translate(-68.119 -59.256)"/><path class="cls-4" d="M796.782,315.39h12.35v1.154H798.36v7.182h9.057v1.154H798.36v8.365h11.115V334.4H796.782Z" transform="translate(-68.119 -59.256)"/><path class="cls-4" d="M826.662,334.4l-6.107-8.739h-4.8V334.4h-1.578V315.39h6.45c4.494,0,7.444,1.385,7.444,5.019,0,3.029-2.264,4.759-5.8,5.163l6.21,8.826Zm-6.45-9.836c4.014,0,6.21-1.356,6.21-4.153,0-2.855-2.2-3.894-6.21-3.894h-4.46v8.047Z" transform="translate(-68.119 -59.256)"/><path class="cls-4" d="M837.332,316.544h-7.2V315.39H846.08v1.154h-7.17V334.4h-1.578Z" transform="translate(-68.119 -59.256)"/><path class="cls-4" d="M850.2,315.39h1.578V334.4H850.2Z" transform="translate(-68.119 -59.256)"/><path class="cls-4" d="M856.714,324.822c0-6,3.877-9.778,9.332-9.778,5.42,0,9.3,3.779,9.3,9.778,0,6.028-3.877,9.922-9.3,9.922C860.59,334.744,856.714,330.85,856.714,324.822Zm16.982,0c0-5.25-3.088-8.567-7.65-8.567-4.6,0-7.685,3.317-7.685,8.567,0,5.278,3.088,8.711,7.685,8.711C870.608,333.533,873.7,330.1,873.7,324.822Z" transform="translate(-68.119 -59.256)"/><path class="cls-4" d="M880.316,315.39h1.647l9.5,13.412,2.573,3.779h.137c-.1-1.846-.206-3.692-.206-5.538V315.39h1.475V334.4H893.8l-9.5-13.412-2.573-3.778h-.137c.1,1.817.206,3.548.206,5.394v11.8h-1.475Z" transform="translate(-68.119 -59.256)"/><path class="cls-4" d="M901.14,330.965a9.69,9.69,0,0,0,6.655,2.567c3.431,0,5.626-1.557,5.626-3.807,0-2.365-1.853-3.144-4.082-3.98l-3.431-1.3c-1.956-.721-4.563-1.9-4.563-4.73,0-2.74,2.813-4.673,6.553-4.673a9.42,9.42,0,0,1,6.312,2.279l-.926.894a7.847,7.847,0,0,0-5.386-1.961c-2.985,0-4.975,1.327-4.975,3.4,0,2.192,2.264,3.029,3.911,3.663l3.431,1.269c2.5.952,4.734,2.134,4.734,5.047s-2.847,5.105-7.239,5.105a10.856,10.856,0,0,1-7.616-2.855Z" transform="translate(-68.119 -59.256)"/><path class="cls-5" d="M1163.828,104.863,1095.634,65.49a7.408,7.408,0,0,0-7.411,0l-68.194,39.373a7.41,7.41,0,0,0-3.705,6.417v78.742a7.41,7.41,0,0,0,3.705,6.417l33.607,19.406c.147.1.3.192.452.282l68.194,39.373a7.411,7.411,0,0,0,11.116-6.419V214.007l30.43-17.568a7.41,7.41,0,0,0,3.705-6.417V111.28A7.41,7.41,0,0,0,1163.828,104.863Zm-11.116,80.88-30.43,17.57a7.41,7.41,0,0,0-3.705,6.417v26.516l-56.588-32.673c-.147-.1-.3-.194-.452-.282l-30.392-17.548V115.559l60.783-35.094,60.783,35.094Z" transform="translate(-68.119 -59.256)"/><path class="cls-2" d="M1166.447,100.323l-68.193-39.372a12.648,12.648,0,0,0-12.651,0l-68.194,39.373a12.683,12.683,0,0,0-6.326,10.956v78.742a12.684,12.684,0,0,0,6.327,10.957l33.476,19.33c.188.122.379.239.568.349l68.208,39.381a12.651,12.651,0,0,0,18.977-10.958V217.033l27.809-16.055a12.683,12.683,0,0,0,6.326-10.956V111.28A12.684,12.684,0,0,0,1166.447,100.323Zm1.086,89.7a7.41,7.41,0,0,1-3.705,6.417l-30.43,17.568v35.074a7.412,7.412,0,0,1-11.116,6.419l-68.194-39.373c-.156-.09-.306-.185-.452-.282l-33.607-19.406a7.41,7.41,0,0,1-3.705-6.417V111.28a7.41,7.41,0,0,1,3.705-6.417l68.194-39.373a7.407,7.407,0,0,1,7.411,0l68.194,39.373a7.41,7.41,0,0,1,3.705,6.417Z" transform="translate(-68.119 -59.256)"/><path class="cls-2" d="M1031.145,115.559v70.184l30.392,17.548c.156.089.306.183.452.282l39.777,22.967,16.81,9.706V209.73a7.407,7.407,0,0,1,3.286-6.156q.2-.137.419-.261l30.43-17.57V115.559l-60.783-35.094Z" transform="translate(-68.119 -59.256)"/><path class="cls-5" d="M1087.007,159.317l-1.589-23.772q-.445-6.947-.445-9.976a9.036,9.036,0,0,1,2.16-6.426,7.408,7.408,0,0,1,5.681-2.309q4.266,0,5.706,2.953t1.44,8.512a64.884,64.884,0,0,1-.347,6.649l-2.135,24.468a19.2,19.2,0,0,1-1.487,6.7,3.9,3.9,0,0,1-3.774,2.334,3.752,3.752,0,0,1-3.72-2.26A22.532,22.532,0,0,1,1087.007,159.317Zm5.511,32.657a7.806,7.806,0,0,1-5.287-1.961,6.873,6.873,0,0,1-2.258-5.484,7.373,7.373,0,0,1,7.443-7.394,7.363,7.363,0,0,1,5.337,2.158,7.065,7.065,0,0,1,2.207,5.236,6.935,6.935,0,0,1-2.233,5.46A7.609,7.609,0,0,1,1092.518,191.974Z" transform="translate(-68.119 -59.256)"/><path class="cls-5" d="M1008.034,274.573a14.691,14.691,0,0,1,1.111-6.033,10.258,10.258,0,0,1,3.08-4,12.734,12.734,0,0,1,4.7-2.223,24.074,24.074,0,0,1,5.97-.7,36.379,36.379,0,0,1,5.557.381q2.444.381,4.191.826a22.858,22.858,0,0,1,2.7.826q.953.381,1.08.444v44.328h-7.24v-40.2q-.381-.127-2.064-.508a19.209,19.209,0,0,0-4.16-.381q-4.065,0-5.874,1.937t-1.81,5.811v1.46h7.24a4.1,4.1,0,0,1,2.953.857,3.4,3.4,0,0,1,.857,2.509,6.1,6.1,0,0,1-.318,2,12.166,12.166,0,0,1-.508,1.3h-10.225v25.212h-7.24Z" transform="translate(-68.119 -59.256)"/><path class="cls-5" d="M1044.17,279.908a3.064,3.064,0,0,1,1.016-2.572,4.542,4.542,0,0,1,2.858-.794,7.275,7.275,0,0,1,2.1.286q.953.286,1.27.413v16.7q0,4.319,2.032,6.573t6.224,2.255q4.191,0,6.224-2.255t2.032-6.573V279.908a3.064,3.064,0,0,1,1.016-2.572,4.429,4.429,0,0,1,2.794-.794,7.518,7.518,0,0,1,2.159.286q.953.286,1.27.413v18.29a14.522,14.522,0,0,1-1.111,5.811,11.887,11.887,0,0,1-3.175,4.35,14.027,14.027,0,0,1-4.922,2.7,21.923,21.923,0,0,1-12.575,0,13.691,13.691,0,0,1-4.89-2.7,12.352,12.352,0,0,1-3.175-4.35,14.158,14.158,0,0,1-1.143-5.811Z" transform="translate(-68.119 -59.256)"/><path class="cls-5" d="M1110.979,306.073q-.509.319-1.588.889a16.209,16.209,0,0,1-2.7,1.08,30.561,30.561,0,0,1-3.747.889,26.552,26.552,0,0,1-4.668.381,19.934,19.934,0,0,1-6.636-1.08,15.415,15.415,0,0,1-5.4-3.207,15.1,15.1,0,0,1-3.652-5.207,17.676,17.676,0,0,1-1.334-7.081,18,18,0,0,1,1.3-6.954,15.921,15.921,0,0,1,3.62-5.4,16.321,16.321,0,0,1,5.462-3.493,18.639,18.639,0,0,1,6.891-1.238,18.256,18.256,0,0,1,5.843.857,13.537,13.537,0,0,1,4.287,2.286,9.352,9.352,0,0,1,3.525,7.4,9.614,9.614,0,0,1-.826,4.033,7.285,7.285,0,0,1-2.921,3.112,17.421,17.421,0,0,1-5.652,2.032,46.034,46.034,0,0,1-9.018.73q-1.271,0-2.382-.032t-2.381-.1a7.889,7.889,0,0,0,3.143,5.239q2.635,2,7.526,2a17.053,17.053,0,0,0,3.049-.254,17.287,17.287,0,0,0,2.509-.635,17.905,17.905,0,0,0,1.905-.762q.793-.381,1.175-.572Zm-22.291-15.051q1.46.064,2.794.064h2.667a29.009,29.009,0,0,0,5.652-.444,11.44,11.44,0,0,0,3.366-1.143,3.565,3.565,0,0,0,1.588-1.588,4.63,4.63,0,0,0,.381-1.842,3.986,3.986,0,0,0-1.937-3.62,8.915,8.915,0,0,0-4.795-1.206,9.712,9.712,0,0,0-4.128.826,8.95,8.95,0,0,0-2.985,2.191,10.013,10.013,0,0,0-1.874,3.143A11.354,11.354,0,0,0,1088.688,291.022Z" transform="translate(-68.119 -59.256)"/><path class="cls-5" d="M1117.583,289.18a13.241,13.241,0,0,1,1.175-5.684,12.373,12.373,0,0,1,3.239-4.255,14.367,14.367,0,0,1,4.89-2.667,19.906,19.906,0,0,1,6.192-.921,20.215,20.215,0,0,1,6.224.921,14.336,14.336,0,0,1,4.922,2.667,12.056,12.056,0,0,1,3.207,4.255,13.566,13.566,0,0,1,1.143,5.684v19.243h-7.24v-17.4q0-4.318-2.1-6.573t-6.16-2.255q-4.129,0-6.192,2.255t-2.064,6.573v17.4h-7.24Z" transform="translate(-68.119 -59.256)"/><path class="cls-5" d="M1156.131,270.89a3.066,3.066,0,0,1,1.016-2.572,4.431,4.431,0,0,1,2.794-.794,7.6,7.6,0,0,1,2.128.286q.984.286,1.3.413v8.319h9.209a4.1,4.1,0,0,1,2.953.857,3.4,3.4,0,0,1,.857,2.509,6.1,6.1,0,0,1-.317,2,12.122,12.122,0,0,1-.508,1.3h-12.193v14.162a6.967,6.967,0,0,0,.445,2.7,4.2,4.2,0,0,0,1.238,1.683,4.653,4.653,0,0,0,1.842.889,9.257,9.257,0,0,0,2.191.254,10.051,10.051,0,0,0,3.429-.572,9.7,9.7,0,0,0,2.286-1.08l2.921,4.826q-.509.381-1.429.953a13.212,13.212,0,0,1-2.255,1.08,20.154,20.154,0,0,1-2.985.857,17.571,17.571,0,0,1-3.62.349q-5.589,0-8.447-2.89a10.323,10.323,0,0,1-2.858-7.589Z" transform="translate(-68.119 -59.256)"/><path class="cls-5" d="M1018.208,327.879h-8.954l-2.642,6.519H1005l7.993-19.008h1.578l7.959,19.008h-1.681Zm-.446-1.125-1.441-3.548c-.892-2.25-1.715-4.24-2.5-6.576h-.137c-.789,2.336-1.578,4.327-2.5,6.576l-1.441,3.548Z" transform="translate(-68.119 -59.256)"/><path class="cls-5" d="M1025.138,330.965a9.691,9.691,0,0,0,6.655,2.567c3.431,0,5.626-1.557,5.626-3.807,0-2.365-1.853-3.144-4.083-3.98l-3.431-1.3c-1.955-.721-4.563-1.9-4.563-4.73,0-2.74,2.813-4.673,6.552-4.673a9.42,9.42,0,0,1,6.312,2.279l-.926.894a7.846,7.846,0,0,0-5.386-1.961c-2.985,0-4.974,1.327-4.974,3.4,0,2.192,2.264,3.029,3.911,3.663l3.431,1.269c2.5.952,4.734,2.134,4.734,5.047s-2.847,5.105-7.239,5.105a10.857,10.857,0,0,1-7.616-2.855Z" transform="translate(-68.119 -59.256)"/><path class="cls-5" d="M1042.394,330.965a9.69,9.69,0,0,0,6.655,2.567c3.431,0,5.626-1.557,5.626-3.807,0-2.365-1.853-3.144-4.082-3.98l-3.431-1.3c-1.956-.721-4.563-1.9-4.563-4.73,0-2.74,2.813-4.673,6.553-4.673a9.42,9.42,0,0,1,6.312,2.279l-.926.894a7.847,7.847,0,0,0-5.386-1.961c-2.985,0-4.975,1.327-4.975,3.4,0,2.192,2.264,3.029,3.911,3.663l3.431,1.269c2.5.952,4.734,2.134,4.734,5.047s-2.847,5.105-7.239,5.105a10.856,10.856,0,0,1-7.616-2.855Z" transform="translate(-68.119 -59.256)"/><path class="cls-5" d="M1060.782,315.39h12.35v1.154H1062.36v7.182h9.057v1.154h-9.057v8.365h11.115V334.4h-12.693Z" transform="translate(-68.119 -59.256)"/><path class="cls-5" d="M1090.662,334.4l-6.107-8.739h-4.8V334.4h-1.578V315.39h6.45c4.494,0,7.444,1.385,7.444,5.019,0,3.029-2.264,4.759-5.8,5.163l6.21,8.826Zm-6.45-9.836c4.014,0,6.21-1.356,6.21-4.153,0-2.855-2.2-3.894-6.21-3.894h-4.46v8.047Z" transform="translate(-68.119 -59.256)"/><path class="cls-5" d="M1101.332,316.544h-7.2V315.39h15.953v1.154h-7.17V334.4h-1.578Z" transform="translate(-68.119 -59.256)"/><path class="cls-5" d="M1114.2,315.39h1.578V334.4H1114.2Z" transform="translate(-68.119 -59.256)"/><path class="cls-5" d="M1120.714,324.822c0-6,3.877-9.778,9.332-9.778,5.42,0,9.3,3.779,9.3,9.778,0,6.028-3.877,9.922-9.3,9.922C1124.59,334.744,1120.714,330.85,1120.714,324.822Zm16.982,0c0-5.25-3.088-8.567-7.65-8.567-4.6,0-7.685,3.317-7.685,8.567,0,5.278,3.088,8.711,7.685,8.711C1134.608,333.533,1137.7,330.1,1137.7,324.822Z" transform="translate(-68.119 -59.256)"/><path class="cls-5" d="M1144.316,315.39h1.647l9.5,13.412,2.573,3.779h.137c-.1-1.846-.206-3.692-.206-5.538V315.39h1.475V334.4H1157.8l-9.5-13.412-2.573-3.778h-.137c.1,1.817.206,3.548.206,5.394v11.8h-1.475Z" transform="translate(-68.119 -59.256)"/><path class="cls-5" d="M1165.14,330.965a9.69,9.69,0,0,0,6.655,2.567c3.431,0,5.626-1.557,5.626-3.807,0-2.365-1.853-3.144-4.082-3.98l-3.431-1.3c-1.956-.721-4.563-1.9-4.563-4.73,0-2.74,2.813-4.673,6.553-4.673a9.42,9.42,0,0,1,6.312,2.279l-.926.894a7.847,7.847,0,0,0-5.386-1.961c-2.985,0-4.975,1.327-4.975,3.4,0,2.192,2.264,3.029,3.911,3.663l3.431,1.269c2.5.952,4.734,2.134,4.734,5.047s-2.847,5.105-7.239,5.105a10.856,10.856,0,0,1-7.616-2.855Z" transform="translate(-68.119 -59.256)"/><path class="cls-3" d="M887.583,457.049l-67.36-38.891a7.317,7.317,0,0,0-7.32,0l-67.36,38.891a7.32,7.32,0,0,0-3.66,6.339v77.779a7.32,7.32,0,0,0,3.66,6.339l33.2,19.169c.145.1.293.189.447.279l67.36,38.891a7.32,7.32,0,0,0,10.98-6.341V564.858l30.058-17.353a7.32,7.32,0,0,0,3.66-6.339V463.388A7.32,7.32,0,0,0,887.583,457.049ZM876.6,536.94l-30.057,17.355a7.32,7.32,0,0,0-3.66,6.339v26.192l-55.9-32.274c-.145-.1-.293-.191-.447-.279l-30.02-17.333V467.614l60.04-34.665,60.04,34.665Z" transform="translate(-68.119 -59.256)"/><path class="cls-2" d="M890.17,452.565l-67.359-38.89a12.493,12.493,0,0,0-12.5,0l-67.36,38.891a12.528,12.528,0,0,0-6.248,10.822v77.779a12.529,12.529,0,0,0,6.25,10.823l33.066,19.094c.186.12.374.236.561.345l67.373,38.9A12.5,12.5,0,0,0,862.7,599.5V567.847l27.469-15.859a12.528,12.528,0,0,0,6.248-10.822V463.388A12.529,12.529,0,0,0,890.17,452.565Zm1.073,88.6a7.32,7.32,0,0,1-3.66,6.339l-30.058,17.353V599.5a7.322,7.322,0,0,1-10.98,6.341l-67.36-38.891c-.154-.089-.3-.182-.447-.279l-33.2-19.169a7.32,7.32,0,0,1-3.66-6.339V463.388a7.32,7.32,0,0,1,3.66-6.339l67.36-38.891a7.317,7.317,0,0,1,7.32,0l67.36,38.891a7.32,7.32,0,0,1,3.66,6.339Z" transform="translate(-68.119 -59.256)"/><path class="cls-2" d="M756.523,467.614V536.94l30.02,17.333c.154.088.3.181.447.279l39.291,22.686,16.6,9.587V560.634a7.316,7.316,0,0,1,3.246-6.081q.2-.135.414-.258L876.6,536.94V467.614l-60.04-34.665Z" transform="translate(-68.119 -59.256)"/><path class="cls-4" d="M811.7,510.837l-1.569-23.481q-.44-6.863-.44-9.854a8.925,8.925,0,0,1,2.134-6.348,7.317,7.317,0,0,1,5.612-2.28q4.214,0,5.637,2.917T824.5,480.2a64.091,64.091,0,0,1-.343,6.568l-2.109,24.169a18.969,18.969,0,0,1-1.469,6.618,3.856,3.856,0,0,1-3.728,2.305,3.707,3.707,0,0,1-3.674-2.232A22.256,22.256,0,0,1,811.7,510.837Zm5.444,32.257a7.71,7.71,0,0,1-5.222-1.937,6.789,6.789,0,0,1-2.23-5.417,7.283,7.283,0,0,1,7.352-7.3,7.273,7.273,0,0,1,5.272,2.132,6.978,6.978,0,0,1,2.18,5.172,6.85,6.85,0,0,1-2.205,5.394A7.516,7.516,0,0,1,817.146,543.095Z" transform="translate(-68.119 -59.256)"/><path class="cls-4" d="M914.446,488.766a22.586,22.586,0,0,1,1.709-9.275,15.771,15.771,0,0,1,4.735-6.151,19.577,19.577,0,0,1,7.225-3.417,37.012,37.012,0,0,1,9.178-1.074,55.929,55.929,0,0,1,8.543.586q3.757.586,6.444,1.269a35.143,35.143,0,0,1,4.149,1.269q1.465.586,1.66.683v68.151H946.96V479q-.586-.195-3.173-.781a29.532,29.532,0,0,0-6.4-.586q-6.249,0-9.031,2.978t-2.783,8.934v2.245h11.131q3.222,0,4.54,1.318a5.227,5.227,0,0,1,1.318,3.857,9.38,9.38,0,0,1-.488,3.076,18.7,18.7,0,0,1-.781,2h-15.72v38.762H914.446Z" transform="translate(-68.119 -59.256)"/><path class="cls-4" d="M970,496.968a4.711,4.711,0,0,1,1.562-3.954,6.984,6.984,0,0,1,4.394-1.221,11.185,11.185,0,0,1,3.222.439q1.465.44,1.953.635v25.679q0,6.641,3.124,10.105t9.569,3.466q6.444,0,9.569-3.466t3.124-10.105V496.968a4.711,4.711,0,0,1,1.562-3.954,6.809,6.809,0,0,1,4.3-1.221,11.558,11.558,0,0,1,3.32.439q1.465.44,1.953.635v28.119a22.326,22.326,0,0,1-1.709,8.934,18.275,18.275,0,0,1-4.882,6.688,21.566,21.566,0,0,1-7.567,4.149,33.7,33.7,0,0,1-19.333,0,21.049,21.049,0,0,1-7.518-4.149,18.99,18.99,0,0,1-4.882-6.688A21.768,21.768,0,0,1,970,520.987Z" transform="translate(-68.119 -59.256)"/><path class="cls-4" d="M1072.716,537.194q-.783.49-2.441,1.367a24.92,24.92,0,0,1-4.15,1.66,46.985,46.985,0,0,1-5.76,1.367,40.822,40.822,0,0,1-7.177.586,30.646,30.646,0,0,1-10.2-1.66,23.7,23.7,0,0,1-8.3-4.931,23.209,23.209,0,0,1-5.614-8.006,27.175,27.175,0,0,1-2.05-10.887,27.672,27.672,0,0,1,2-10.691,24.478,24.478,0,0,1,5.565-8.3,25.093,25.093,0,0,1,8.4-5.37,28.656,28.656,0,0,1,10.594-1.9,28.068,28.068,0,0,1,8.983,1.318,20.812,20.812,0,0,1,6.59,3.515,14.378,14.378,0,0,1,5.419,11.375,14.781,14.781,0,0,1-1.269,6.2,11.2,11.2,0,0,1-4.492,4.784,26.784,26.784,0,0,1-8.69,3.125,70.773,70.773,0,0,1-13.864,1.123q-1.954,0-3.662-.049t-3.661-.146a12.129,12.129,0,0,0,4.833,8.055q4.05,3.075,11.57,3.076a26.217,26.217,0,0,0,4.687-.391,26.577,26.577,0,0,0,3.857-.976,27.528,27.528,0,0,0,2.929-1.172q1.22-.586,1.806-.879Zm-34.271-23.14q2.245.1,4.3.1h4.1a44.6,44.6,0,0,0,8.69-.683,17.589,17.589,0,0,0,5.175-1.758,5.481,5.481,0,0,0,2.441-2.441,7.118,7.118,0,0,0,.586-2.832,6.129,6.129,0,0,0-2.978-5.565,13.706,13.706,0,0,0-7.372-1.855,14.932,14.932,0,0,0-6.346,1.269,13.76,13.76,0,0,0-4.589,3.368,15.394,15.394,0,0,0-2.881,4.833A17.456,17.456,0,0,0,1038.445,514.054Z" transform="translate(-68.119 -59.256)"/><path class="cls-4" d="M1082.869,511.223a20.357,20.357,0,0,1,1.806-8.739,19.023,19.023,0,0,1,4.979-6.541,22.088,22.088,0,0,1,7.518-4.1,30.6,30.6,0,0,1,9.52-1.415,31.079,31.079,0,0,1,9.569,1.415,22.04,22.04,0,0,1,7.567,4.1,18.535,18.535,0,0,1,4.931,6.541,20.857,20.857,0,0,1,1.758,8.739v29.584h-11.131V514.054q0-6.638-3.222-10.105t-9.471-3.466q-6.348,0-9.52,3.466T1094,514.054v26.753h-11.131Z" transform="translate(-68.119 -59.256)"/><path class="cls-4" d="M1142.134,483.1a4.713,4.713,0,0,1,1.562-3.954,6.813,6.813,0,0,1,4.3-1.22,11.683,11.683,0,0,1,3.271.439q1.513.439,2,.634v12.79h14.157q3.222,0,4.54,1.318a5.227,5.227,0,0,1,1.318,3.857,9.385,9.385,0,0,1-.488,3.076,18.637,18.637,0,0,1-.781,2h-18.746v21.773a10.711,10.711,0,0,0,.684,4.149,6.451,6.451,0,0,0,1.9,2.587,7.154,7.154,0,0,0,2.831,1.367,14.232,14.232,0,0,0,3.369.391,15.453,15.453,0,0,0,5.272-.879,14.915,14.915,0,0,0,3.515-1.66l4.492,7.42q-.783.586-2.2,1.465a20.313,20.313,0,0,1-3.466,1.66,30.986,30.986,0,0,1-4.589,1.318,27.015,27.015,0,0,1-5.565.537q-8.593,0-12.986-4.443t-4.394-11.668Z" transform="translate(-68.119 -59.256)"/><path class="cls-4" d="M930.087,570.72H916.321l-4.061,10.022h-2.479l12.289-29.223H924.5l12.236,29.223h-2.584Zm-.686-1.729-2.215-5.455c-1.371-3.459-2.637-6.519-3.85-10.111h-.211c-1.213,3.592-2.426,6.652-3.85,10.111l-2.215,5.455Z" transform="translate(-68.119 -59.256)"/><path class="cls-4" d="M940.741,575.465a14.9,14.9,0,0,0,10.232,3.947c5.274,0,8.65-2.394,8.65-5.853,0-3.636-2.848-4.834-6.277-6.12l-5.274-2c-3.006-1.108-7.015-2.927-7.015-7.272,0-4.213,4.325-7.184,10.074-7.184a14.483,14.483,0,0,1,9.7,3.5l-1.424,1.375a12.063,12.063,0,0,0-8.281-3.015c-4.589,0-7.648,2.04-7.648,5.233,0,3.37,3.481,4.656,6.013,5.632l5.274,1.951c3.85,1.463,7.279,3.281,7.279,7.76s-4.378,7.849-11.129,7.849a16.692,16.692,0,0,1-11.709-4.39Z" transform="translate(-68.119 -59.256)"/><path class="cls-4" d="M967.272,575.465a14.9,14.9,0,0,0,10.232,3.947c5.274,0,8.65-2.394,8.65-5.853,0-3.636-2.848-4.834-6.276-6.12l-5.274-2c-3.007-1.108-7.015-2.927-7.015-7.272,0-4.213,4.325-7.184,10.074-7.184a14.483,14.483,0,0,1,9.7,3.5l-1.424,1.375a12.064,12.064,0,0,0-8.281-3.015c-4.589,0-7.648,2.04-7.648,5.233,0,3.37,3.481,4.656,6.013,5.632l5.275,1.951c3.85,1.463,7.279,3.281,7.279,7.76s-4.378,7.849-11.129,7.849a16.69,16.69,0,0,1-11.709-4.39Z" transform="translate(-68.119 -59.256)"/><path class="cls-4" d="M995.541,551.519h18.988v1.774H997.968v11.042h13.924v1.774H997.968v12.86h17.089v1.774H995.541Z" transform="translate(-68.119 -59.256)"/><path class="cls-4" d="M1041.48,580.742l-9.388-13.436h-7.384v13.436h-2.426V551.519h9.916c6.91,0,11.445,2.129,11.445,7.716,0,4.656-3.481,7.317-8.914,7.938l9.547,13.569Zm-9.916-15.122c6.171,0,9.547-2.084,9.547-6.386,0-4.39-3.376-5.987-9.547-5.987h-6.857V565.62Z" transform="translate(-68.119 -59.256)"/><path class="cls-4" d="M1057.884,553.293h-11.076v-1.774h24.526v1.774H1060.31v27.449h-2.426Z" transform="translate(-68.119 -59.256)"/><path class="cls-4" d="M1077.662,551.519h2.426v29.223h-2.426Z" transform="translate(-68.119 -59.256)"/><path class="cls-4" d="M1087.683,566.019c0-9.224,5.96-15.033,14.347-15.033,8.333,0,14.294,5.809,14.294,15.033,0,9.268-5.96,15.254-14.294,15.254C1093.643,581.274,1087.683,575.287,1087.683,566.019Zm26.108,0c0-8.071-4.747-13.17-11.762-13.17-7.068,0-11.815,5.1-11.815,13.17,0,8.115,4.747,13.392,11.815,13.392C1109.044,579.411,1113.791,574.134,1113.791,566.019Z" transform="translate(-68.119 -59.256)"/><path class="cls-4" d="M1123.97,551.519h2.532l14.61,20.62,3.956,5.809h.211c-.158-2.838-.316-5.676-.316-8.514V551.519h2.268v29.223H1144.7l-14.61-20.62-3.956-5.809h-.211c.158,2.793.316,5.454.316,8.292v18.137h-2.268Z" transform="translate(-68.119 -59.256)"/><path class="cls-4" d="M1155.985,575.465a14.9,14.9,0,0,0,10.232,3.947c5.274,0,8.65-2.394,8.65-5.853,0-3.636-2.848-4.834-6.276-6.12l-5.274-2c-3.007-1.108-7.015-2.927-7.015-7.272,0-4.213,4.325-7.184,10.074-7.184a14.483,14.483,0,0,1,9.7,3.5l-1.424,1.375a12.064,12.064,0,0,0-8.281-3.015c-4.589,0-7.648,2.04-7.648,5.233,0,3.37,3.481,4.656,6.013,5.632l5.275,1.951c3.85,1.463,7.279,3.281,7.279,7.76s-4.378,7.849-11.129,7.849a16.69,16.69,0,0,1-11.709-4.39Z" transform="translate(-68.119 -59.256)"/><path class="cls-3" d="M791.132,923l-19.618-11.327a2.131,2.131,0,0,0-2.132,0L749.765,923a2.132,2.132,0,0,0-1.066,1.846v22.652a2.132,2.132,0,0,0,1.066,1.846l9.668,5.583c.042.028.085.055.13.081l19.618,11.327a2.132,2.132,0,0,0,3.2-1.847v-10.09l8.754-5.054a2.132,2.132,0,0,0,1.066-1.846V924.842A2.132,2.132,0,0,0,791.132,923Zm-3.2,23.267-8.754,5.054a2.132,2.132,0,0,0-1.066,1.846v7.628l-16.279-9.4c-.042-.029-.085-.056-.13-.081l-8.743-5.048v-20.19l17.486-10.1,17.486,10.1Z" transform="translate(-68.119 -59.256)"/><path class="cls-2" d="M791.885,921.69l-19.617-11.326a3.639,3.639,0,0,0-3.639,0L749.011,921.69a3.649,3.649,0,0,0-1.82,3.152v22.652a3.649,3.649,0,0,0,1.82,3.152l9.63,5.561c.054.035.109.069.163.1l19.622,11.329a3.639,3.639,0,0,0,5.459-3.152v-9.22l8-4.619a3.649,3.649,0,0,0,1.82-3.152V924.842A3.649,3.649,0,0,0,791.885,921.69Zm.313,25.8a2.132,2.132,0,0,1-1.066,1.846l-8.754,5.054v10.09a2.132,2.132,0,0,1-3.2,1.847L759.563,955c-.045-.026-.088-.053-.13-.081l-9.668-5.583a2.132,2.132,0,0,1-1.066-1.846V924.842A2.132,2.132,0,0,1,749.765,923l19.618-11.327a2.131,2.131,0,0,1,2.132,0L791.132,923a2.132,2.132,0,0,1,1.066,1.846Z" transform="translate(-68.119 -59.256)"/><path class="cls-2" d="M752.962,926.073v20.19l8.743,5.048c.045.026.088.053.13.081L773.278,958l4.836,2.792v-7.628a2.131,2.131,0,0,1,.945-1.771q.059-.039.121-.075l8.754-5.054v-20.19l-17.486-10.1Z" transform="translate(-68.119 -59.256)"/><path class="cls-4" d="M769.033,938.661l-.457-6.839q-.128-2-.128-2.87a2.6,2.6,0,0,1,.621-1.849,2.131,2.131,0,0,1,1.634-.664,1.645,1.645,0,0,1,1.642.849,5.75,5.75,0,0,1,.414,2.449,18.666,18.666,0,0,1-.1,1.913l-.614,7.039a5.525,5.525,0,0,1-.428,1.927,1.123,1.123,0,0,1-1.086.671,1.079,1.079,0,0,1-1.07-.65A6.482,6.482,0,0,1,769.033,938.661Zm1.585,9.395a2.246,2.246,0,0,1-1.521-.564,1.977,1.977,0,0,1-.65-1.578,2.121,2.121,0,0,1,2.141-2.127,2.118,2.118,0,0,1,1.535.621,2.032,2.032,0,0,1,.635,1.506,2,2,0,0,1-.642,1.571A2.189,2.189,0,0,1,770.618,948.056Z" transform="translate(-68.119 -59.256)"/><path class="cls-4" d="M797.368,925.752a10.022,10.022,0,0,1,.758-4.116,7,7,0,0,1,2.1-2.729,8.687,8.687,0,0,1,3.206-1.516,16.423,16.423,0,0,1,4.073-.476,24.817,24.817,0,0,1,3.791.26q1.667.26,2.859.563A15.594,15.594,0,0,1,816,918.3q.65.26.736.3v30.24h-4.939V921.419q-.26-.086-1.408-.347a13.1,13.1,0,0,0-2.838-.26,5.273,5.273,0,0,0-4.008,1.321,5.623,5.623,0,0,0-1.235,3.964v1h4.939a2.8,2.8,0,0,1,2.015.585,2.319,2.319,0,0,1,.585,1.711,4.162,4.162,0,0,1-.217,1.365,8.3,8.3,0,0,1-.347.888h-6.975v17.2h-4.939Z" transform="translate(-68.119 -59.256)"/><path class="cls-4" d="M822.019,929.391a2.09,2.09,0,0,1,.693-1.754,3.1,3.1,0,0,1,1.95-.542,4.963,4.963,0,0,1,1.43.195q.65.2.867.282v11.394a6.484,6.484,0,0,0,1.386,4.484,6.629,6.629,0,0,0,8.492,0,6.488,6.488,0,0,0,1.386-4.484v-9.575a2.09,2.09,0,0,1,.693-1.754,3.022,3.022,0,0,1,1.906-.542,5.129,5.129,0,0,1,1.473.195q.65.2.867.282v12.477a9.907,9.907,0,0,1-.758,3.964,8.109,8.109,0,0,1-2.166,2.968,9.569,9.569,0,0,1-3.358,1.841,14.956,14.956,0,0,1-8.578,0,9.34,9.34,0,0,1-3.336-1.841,8.426,8.426,0,0,1-2.166-2.968,9.659,9.659,0,0,1-.78-3.964Z" transform="translate(-68.119 -59.256)"/><path class="cls-4" d="M867.6,947.241q-.347.217-1.083.607a11.058,11.058,0,0,1-1.841.736,20.848,20.848,0,0,1-2.556.607,18.114,18.114,0,0,1-3.184.26,13.6,13.6,0,0,1-4.527-.736,10.516,10.516,0,0,1-3.682-2.188,10.3,10.3,0,0,1-2.491-3.553,12.058,12.058,0,0,1-.91-4.831,12.279,12.279,0,0,1,.888-4.744,10.861,10.861,0,0,1,2.469-3.682,11.134,11.134,0,0,1,3.726-2.383,12.715,12.715,0,0,1,4.7-.845,12.454,12.454,0,0,1,3.986.585,9.235,9.235,0,0,1,2.924,1.56,6.38,6.38,0,0,1,2.4,5.047,6.559,6.559,0,0,1-.563,2.751,4.97,4.97,0,0,1-1.993,2.123,11.885,11.885,0,0,1-3.856,1.386,31.4,31.4,0,0,1-6.152.5q-.867,0-1.625-.022t-1.625-.065a5.382,5.382,0,0,0,2.144,3.574,8.355,8.355,0,0,0,5.134,1.365,11.633,11.633,0,0,0,2.08-.173,11.793,11.793,0,0,0,1.711-.433,12.215,12.215,0,0,0,1.3-.52q.541-.26.8-.39Zm-15.207-10.268q1,.044,1.906.043h1.82a19.79,19.79,0,0,0,3.856-.3,7.8,7.8,0,0,0,2.3-.78,2.432,2.432,0,0,0,1.083-1.083,3.158,3.158,0,0,0,.26-1.257,2.719,2.719,0,0,0-1.321-2.469,6.082,6.082,0,0,0-3.271-.823,6.626,6.626,0,0,0-2.816.563,6.105,6.105,0,0,0-2.036,1.495,6.83,6.83,0,0,0-1.278,2.144A7.746,7.746,0,0,0,852.389,936.973Z" transform="translate(-68.119 -59.256)"/><path class="cls-4" d="M872.1,935.716a9.033,9.033,0,0,1,.8-3.878,8.441,8.441,0,0,1,2.209-2.9,9.8,9.8,0,0,1,3.336-1.82,13.58,13.58,0,0,1,4.224-.628,13.791,13.791,0,0,1,4.246.628,9.78,9.78,0,0,1,3.358,1.82,8.224,8.224,0,0,1,2.188,2.9,9.255,9.255,0,0,1,.78,3.878v13.127H888.3V936.973a6.359,6.359,0,0,0-1.43-4.484,6.54,6.54,0,0,0-8.427,0,6.421,6.421,0,0,0-1.408,4.484v11.871H872.1Z" transform="translate(-68.119 -59.256)"/><path class="cls-4" d="M898.4,923.239a2.091,2.091,0,0,1,.693-1.755,3.023,3.023,0,0,1,1.906-.542,5.184,5.184,0,0,1,1.451.195q.671.195.888.282v5.675h6.282a2.8,2.8,0,0,1,2.015.585,2.319,2.319,0,0,1,.585,1.711,4.164,4.164,0,0,1-.216,1.365,8.27,8.27,0,0,1-.347.888h-8.318v9.661a4.753,4.753,0,0,0,.3,1.841,2.862,2.862,0,0,0,.845,1.148,3.174,3.174,0,0,0,1.256.607,6.315,6.315,0,0,0,1.495.173,6.857,6.857,0,0,0,2.339-.39,6.618,6.618,0,0,0,1.56-.736l1.993,3.293q-.347.26-.975.65a9.013,9.013,0,0,1-1.538.736,13.749,13.749,0,0,1-2.036.585,11.987,11.987,0,0,1-2.469.238,7.761,7.761,0,0,1-5.762-1.971,7.042,7.042,0,0,1-1.95-5.177Z" transform="translate(-68.119 -59.256)"/><path class="cls-4" d="M804.308,962.117H798.2l-1.8,4.447h-1.1l5.453-12.967h1.077l5.43,12.967H806.11Zm-.3-.767-.983-2.42c-.609-1.535-1.17-2.892-1.709-4.486h-.094c-.538,1.594-1.077,2.952-1.708,4.486l-.983,2.42Z" transform="translate(-68.119 -59.256)"/><path class="cls-4" d="M809.036,964.222a6.611,6.611,0,0,0,4.54,1.751c2.34,0,3.838-1.062,3.838-2.6,0-1.614-1.264-2.145-2.785-2.715l-2.34-.885c-1.334-.492-3.113-1.3-3.113-3.227,0-1.869,1.919-3.188,4.47-3.188a6.426,6.426,0,0,1,4.306,1.554l-.632.61a5.353,5.353,0,0,0-3.674-1.338c-2.036,0-3.394.905-3.394,2.322,0,1.5,1.545,2.066,2.668,2.5l2.34.866c1.709.649,3.23,1.456,3.23,3.443s-1.942,3.483-4.938,3.483a7.406,7.406,0,0,1-5.2-1.948Z" transform="translate(-68.119 -59.256)"/><path class="cls-4" d="M820.808,964.222a6.61,6.61,0,0,0,4.54,1.751c2.34,0,3.838-1.062,3.838-2.6,0-1.614-1.264-2.145-2.785-2.715l-2.34-.885c-1.334-.492-3.113-1.3-3.113-3.227,0-1.869,1.919-3.188,4.47-3.188a6.426,6.426,0,0,1,4.306,1.554l-.632.61a5.353,5.353,0,0,0-3.674-1.338c-2.036,0-3.394.905-3.394,2.322,0,1.5,1.545,2.066,2.668,2.5l2.341.866c1.708.649,3.23,1.456,3.23,3.443s-1.943,3.483-4.938,3.483a7.406,7.406,0,0,1-5.2-1.948Z" transform="translate(-68.119 -59.256)"/><path class="cls-4" d="M833.352,953.6h8.425v.787h-7.349v4.9h6.179v.787h-6.179v5.706h7.583v.787h-8.659Z" transform="translate(-68.119 -59.256)"/><path class="cls-4" d="M853.736,966.564,849.57,960.6h-3.277v5.962h-1.077V953.6h4.4c3.066,0,5.079.945,5.079,3.424,0,2.066-1.545,3.247-3.955,3.522l4.236,6.021Zm-4.4-6.71c2.738,0,4.236-.925,4.236-2.833,0-1.948-1.5-2.656-4.236-2.656h-3.043v5.49Z" transform="translate(-68.119 -59.256)"/><path class="cls-4" d="M861.015,954.384H856.1V953.6h10.883v.787h-4.891v12.18h-1.077Z" transform="translate(-68.119 -59.256)"/><path class="cls-4" d="M869.791,953.6h1.077v12.967h-1.077Z" transform="translate(-68.119 -59.256)"/><path class="cls-4" d="M874.237,960.031c0-4.093,2.645-6.67,6.366-6.67,3.7,0,6.342,2.578,6.342,6.67,0,4.112-2.645,6.769-6.342,6.769C876.882,966.8,874.237,964.143,874.237,960.031Zm11.585,0c0-3.581-2.106-5.844-5.219-5.844-3.136,0-5.243,2.263-5.243,5.844,0,3.6,2.106,5.942,5.243,5.942C883.716,965.973,885.822,963.632,885.822,960.031Z" transform="translate(-68.119 -59.256)"/><path class="cls-4" d="M890.339,953.6h1.123l6.483,9.15,1.755,2.578h.094c-.07-1.259-.14-2.519-.14-3.778V953.6h1.006v12.967h-1.123l-6.483-9.15-1.755-2.578H891.2c.07,1.24.14,2.42.14,3.679v8.048h-1.006Z" transform="translate(-68.119 -59.256)"/><path class="cls-4" d="M904.545,964.222a6.61,6.61,0,0,0,4.54,1.751c2.34,0,3.838-1.062,3.838-2.6,0-1.614-1.264-2.145-2.785-2.715l-2.34-.885c-1.334-.492-3.113-1.3-3.113-3.227,0-1.869,1.919-3.188,4.47-3.188a6.426,6.426,0,0,1,4.306,1.554l-.632.61a5.353,5.353,0,0,0-3.674-1.338c-2.036,0-3.394.905-3.394,2.322,0,1.5,1.545,2.066,2.668,2.5l2.341.866c1.708.649,3.23,1.456,3.23,3.443s-1.943,3.483-4.938,3.483a7.406,7.406,0,0,1-5.2-1.948Z" transform="translate(-68.119 -59.256)"/><path class="cls-6" d="M1054.132,923l-19.618-11.327a2.131,2.131,0,0,0-2.132,0L1012.765,923a2.132,2.132,0,0,0-1.066,1.846v22.652a2.132,2.132,0,0,0,1.066,1.846l9.668,5.583c.042.028.085.055.13.081l19.618,11.327a2.132,2.132,0,0,0,3.2-1.847v-10.09l8.754-5.054a2.132,2.132,0,0,0,1.066-1.846V924.842A2.132,2.132,0,0,0,1054.132,923Zm-3.2,23.267-8.754,5.054a2.132,2.132,0,0,0-1.066,1.846v7.628l-16.279-9.4c-.042-.029-.085-.056-.13-.081l-8.743-5.048v-20.19l17.486-10.1,17.486,10.1Z" transform="translate(-68.119 -59.256)"/><path class="cls-2" d="M1054.885,921.69l-19.617-11.326a3.639,3.639,0,0,0-3.639,0l-19.618,11.327a3.649,3.649,0,0,0-1.82,3.152v22.652a3.649,3.649,0,0,0,1.82,3.152l9.63,5.561c.054.035.109.069.163.1l19.622,11.329a3.639,3.639,0,0,0,5.459-3.152v-9.22l8-4.619a3.649,3.649,0,0,0,1.82-3.152V924.842A3.649,3.649,0,0,0,1054.885,921.69Zm.313,25.8a2.132,2.132,0,0,1-1.066,1.846l-8.754,5.054v10.09a2.132,2.132,0,0,1-3.2,1.847L1022.563,955c-.045-.026-.088-.053-.13-.081l-9.668-5.583a2.132,2.132,0,0,1-1.066-1.846V924.842a2.132,2.132,0,0,1,1.066-1.846l19.618-11.327a2.131,2.131,0,0,1,2.132,0L1054.132,923a2.132,2.132,0,0,1,1.066,1.846Z" transform="translate(-68.119 -59.256)"/><path class="cls-2" d="M1015.962,926.073v20.19l8.743,5.048c.045.026.088.053.13.081L1036.278,958l4.836,2.792v-7.628a2.131,2.131,0,0,1,.945-1.771q.059-.039.121-.075l8.754-5.054v-20.19l-17.486-10.1Z" transform="translate(-68.119 -59.256)"/><path class="cls-7" d="M1032.033,938.661l-.457-6.839q-.128-2-.128-2.87a2.6,2.6,0,0,1,.621-1.849,2.131,2.131,0,0,1,1.634-.664,1.645,1.645,0,0,1,1.642.849,5.75,5.75,0,0,1,.414,2.449,18.666,18.666,0,0,1-.1,1.913l-.614,7.039a5.525,5.525,0,0,1-.428,1.927,1.123,1.123,0,0,1-1.086.671,1.079,1.079,0,0,1-1.07-.65A6.482,6.482,0,0,1,1032.033,938.661Zm1.585,9.395a2.246,2.246,0,0,1-1.521-.564,1.977,1.977,0,0,1-.65-1.578,2.121,2.121,0,0,1,2.141-2.127,2.118,2.118,0,0,1,1.535.621,2.032,2.032,0,0,1,.635,1.506,2,2,0,0,1-.642,1.571A2.189,2.189,0,0,1,1033.618,948.056Z" transform="translate(-68.119 -59.256)"/><path class="cls-7" d="M1060.368,925.752a10.022,10.022,0,0,1,.758-4.116,7,7,0,0,1,2.1-2.729,8.687,8.687,0,0,1,3.206-1.516,16.423,16.423,0,0,1,4.073-.476,24.817,24.817,0,0,1,3.791.26q1.667.26,2.859.563a15.594,15.594,0,0,1,1.841.563q.65.26.736.3v30.24h-4.939V921.419q-.26-.086-1.408-.347a13.1,13.1,0,0,0-2.838-.26,5.273,5.273,0,0,0-4.008,1.321,5.623,5.623,0,0,0-1.235,3.964v1h4.939a2.8,2.8,0,0,1,2.015.585,2.319,2.319,0,0,1,.585,1.711,4.162,4.162,0,0,1-.217,1.365,8.3,8.3,0,0,1-.347.888h-6.975v17.2h-4.939Z" transform="translate(-68.119 -59.256)"/><path class="cls-7" d="M1085.019,929.391a2.09,2.09,0,0,1,.693-1.754,3.1,3.1,0,0,1,1.95-.542,4.963,4.963,0,0,1,1.43.195q.65.2.867.282v11.394a6.484,6.484,0,0,0,1.386,4.484,6.629,6.629,0,0,0,8.492,0,6.488,6.488,0,0,0,1.386-4.484v-9.575a2.09,2.09,0,0,1,.693-1.754,3.022,3.022,0,0,1,1.906-.542,5.129,5.129,0,0,1,1.473.195q.65.2.867.282v12.477a9.907,9.907,0,0,1-.758,3.964,8.109,8.109,0,0,1-2.166,2.968,9.569,9.569,0,0,1-3.358,1.841,14.956,14.956,0,0,1-8.578,0,9.34,9.34,0,0,1-3.336-1.841,8.426,8.426,0,0,1-2.166-2.968,9.659,9.659,0,0,1-.78-3.964Z" transform="translate(-68.119 -59.256)"/><path class="cls-7" d="M1130.6,947.241q-.347.217-1.083.607a11.058,11.058,0,0,1-1.841.736,20.848,20.848,0,0,1-2.556.607,18.114,18.114,0,0,1-3.184.26,13.6,13.6,0,0,1-4.527-.736,10.516,10.516,0,0,1-3.682-2.188,10.3,10.3,0,0,1-2.491-3.553,12.058,12.058,0,0,1-.91-4.831,12.279,12.279,0,0,1,.888-4.744,10.861,10.861,0,0,1,2.469-3.682,11.134,11.134,0,0,1,3.726-2.383,12.715,12.715,0,0,1,4.7-.845,12.454,12.454,0,0,1,3.986.585,9.235,9.235,0,0,1,2.924,1.56,6.38,6.38,0,0,1,2.4,5.047,6.559,6.559,0,0,1-.563,2.751,4.97,4.97,0,0,1-1.993,2.123,11.885,11.885,0,0,1-3.856,1.386,31.4,31.4,0,0,1-6.152.5q-.867,0-1.625-.022t-1.625-.065a5.382,5.382,0,0,0,2.144,3.574,8.355,8.355,0,0,0,5.134,1.365,11.633,11.633,0,0,0,2.08-.173,11.793,11.793,0,0,0,1.711-.433,12.215,12.215,0,0,0,1.3-.52q.541-.26.8-.39Zm-15.207-10.268q1,.044,1.906.043h1.82a19.79,19.79,0,0,0,3.856-.3,7.8,7.8,0,0,0,2.3-.78,2.432,2.432,0,0,0,1.083-1.083,3.158,3.158,0,0,0,.26-1.257,2.719,2.719,0,0,0-1.321-2.469,6.082,6.082,0,0,0-3.271-.823,6.626,6.626,0,0,0-2.816.563,6.105,6.105,0,0,0-2.036,1.495,6.831,6.831,0,0,0-1.278,2.144A7.746,7.746,0,0,0,1115.389,936.973Z" transform="translate(-68.119 -59.256)"/><path class="cls-7" d="M1135.1,935.716a9.033,9.033,0,0,1,.8-3.878,8.441,8.441,0,0,1,2.209-2.9,9.8,9.8,0,0,1,3.336-1.82,13.58,13.58,0,0,1,4.224-.628,13.791,13.791,0,0,1,4.246.628,9.78,9.78,0,0,1,3.358,1.82,8.224,8.224,0,0,1,2.188,2.9,9.255,9.255,0,0,1,.78,3.878v13.127H1151.3V936.973a6.359,6.359,0,0,0-1.43-4.484,6.54,6.54,0,0,0-8.427,0,6.421,6.421,0,0,0-1.408,4.484v11.871H1135.1Z" transform="translate(-68.119 -59.256)"/><path class="cls-7" d="M1161.4,923.239a2.091,2.091,0,0,1,.693-1.755,3.023,3.023,0,0,1,1.906-.542,5.184,5.184,0,0,1,1.451.195q.671.195.888.282v5.675h6.282a2.8,2.8,0,0,1,2.015.585,2.319,2.319,0,0,1,.585,1.711,4.164,4.164,0,0,1-.216,1.365,8.27,8.27,0,0,1-.347.888h-8.318v9.661a4.753,4.753,0,0,0,.3,1.841,2.862,2.862,0,0,0,.845,1.148,3.174,3.174,0,0,0,1.256.607,6.315,6.315,0,0,0,1.495.173,6.857,6.857,0,0,0,2.339-.39,6.618,6.618,0,0,0,1.56-.736l1.993,3.293q-.347.26-.975.65a9.013,9.013,0,0,1-1.538.736,13.749,13.749,0,0,1-2.036.585,11.987,11.987,0,0,1-2.469.238,7.761,7.761,0,0,1-5.762-1.971,7.042,7.042,0,0,1-1.95-5.177Z" transform="translate(-68.119 -59.256)"/><path class="cls-7" d="M1067.308,962.117H1061.2l-1.8,4.447h-1.1l5.453-12.967h1.077l5.43,12.967h-1.147Zm-.3-.767-.983-2.42c-.609-1.535-1.17-2.892-1.709-4.486h-.094c-.538,1.594-1.077,2.952-1.708,4.486l-.983,2.42Z" transform="translate(-68.119 -59.256)"/><path class="cls-7" d="M1072.036,964.222a6.611,6.611,0,0,0,4.54,1.751c2.34,0,3.838-1.062,3.838-2.6,0-1.614-1.264-2.145-2.785-2.715l-2.34-.885c-1.334-.492-3.113-1.3-3.113-3.227,0-1.869,1.919-3.188,4.47-3.188a6.426,6.426,0,0,1,4.306,1.554l-.632.61a5.353,5.353,0,0,0-3.674-1.338c-2.036,0-3.394.905-3.394,2.322,0,1.5,1.545,2.066,2.668,2.5l2.34.866c1.709.649,3.23,1.456,3.23,3.443s-1.942,3.483-4.938,3.483a7.406,7.406,0,0,1-5.2-1.948Z" transform="translate(-68.119 -59.256)"/><path class="cls-7" d="M1083.808,964.222a6.61,6.61,0,0,0,4.54,1.751c2.34,0,3.838-1.062,3.838-2.6,0-1.614-1.264-2.145-2.785-2.715l-2.34-.885c-1.334-.492-3.113-1.3-3.113-3.227,0-1.869,1.919-3.188,4.47-3.188a6.426,6.426,0,0,1,4.306,1.554l-.632.61a5.353,5.353,0,0,0-3.674-1.338c-2.036,0-3.394.905-3.394,2.322,0,1.5,1.545,2.066,2.668,2.5l2.341.866c1.708.649,3.23,1.456,3.23,3.443s-1.943,3.483-4.938,3.483a7.406,7.406,0,0,1-5.2-1.948Z" transform="translate(-68.119 -59.256)"/><path class="cls-7" d="M1096.352,953.6h8.425v.787h-7.349v4.9h6.179v.787h-6.179v5.706h7.583v.787h-8.659Z" transform="translate(-68.119 -59.256)"/><path class="cls-7" d="M1116.736,966.564l-4.166-5.962h-3.277v5.962h-1.077V953.6h4.4c3.066,0,5.079.945,5.079,3.424,0,2.066-1.545,3.247-3.955,3.522l4.236,6.021Zm-4.4-6.71c2.738,0,4.236-.925,4.236-2.833,0-1.948-1.5-2.656-4.236-2.656h-3.043v5.49Z" transform="translate(-68.119 -59.256)"/><path class="cls-7" d="M1124.015,954.384H1119.1V953.6h10.883v.787h-4.891v12.18h-1.077Z" transform="translate(-68.119 -59.256)"/><path class="cls-7" d="M1132.791,953.6h1.077v12.967h-1.077Z" transform="translate(-68.119 -59.256)"/><path class="cls-7" d="M1137.237,960.031c0-4.093,2.645-6.67,6.366-6.67,3.7,0,6.342,2.578,6.342,6.67,0,4.112-2.645,6.769-6.342,6.769C1139.882,966.8,1137.237,964.143,1137.237,960.031Zm11.585,0c0-3.581-2.106-5.844-5.219-5.844-3.136,0-5.243,2.263-5.243,5.844,0,3.6,2.106,5.942,5.243,5.942C1146.716,965.973,1148.822,963.632,1148.822,960.031Z" transform="translate(-68.119 -59.256)"/><path class="cls-7" d="M1153.339,953.6h1.123l6.483,9.15,1.755,2.578h.094c-.07-1.259-.14-2.519-.14-3.778V953.6h1.006v12.967h-1.123l-6.483-9.15-1.755-2.578h-.093c.07,1.24.14,2.42.14,3.679v8.048h-1.006Z" transform="translate(-68.119 -59.256)"/><path class="cls-7" d="M1167.545,964.222a6.61,6.61,0,0,0,4.54,1.751c2.34,0,3.838-1.062,3.838-2.6,0-1.614-1.264-2.145-2.785-2.715l-2.34-.885c-1.334-.492-3.113-1.3-3.113-3.227,0-1.869,1.919-3.188,4.47-3.188a6.426,6.426,0,0,1,4.306,1.554l-.632.61a5.353,5.353,0,0,0-3.674-1.338c-2.036,0-3.394.905-3.394,2.322,0,1.5,1.545,2.066,2.668,2.5l2.341.866c1.708.649,3.23,1.456,3.23,3.443s-1.943,3.483-4.938,3.483a7.406,7.406,0,0,1-5.2-1.948Z" transform="translate(-68.119 -59.256)"/><path class="cls-5" d="M887.583,696.049l-67.36-38.891a7.317,7.317,0,0,0-7.32,0l-67.36,38.891a7.32,7.32,0,0,0-3.66,6.339v77.779a7.32,7.32,0,0,0,3.66,6.339l33.2,19.169c.145.1.293.189.447.279l67.36,38.891a7.32,7.32,0,0,0,10.98-6.341V803.858l30.058-17.353a7.32,7.32,0,0,0,3.66-6.339V702.388A7.32,7.32,0,0,0,887.583,696.049ZM876.6,775.94l-30.057,17.355a7.32,7.32,0,0,0-3.66,6.339v26.192l-55.9-32.274c-.145-.1-.293-.191-.447-.279l-30.02-17.333V706.614l60.04-34.665,60.04,34.665Z" transform="translate(-68.119 -59.256)"/><path class="cls-2" d="M890.17,691.565l-67.359-38.89a12.493,12.493,0,0,0-12.5,0l-67.36,38.891a12.528,12.528,0,0,0-6.248,10.822v77.779a12.529,12.529,0,0,0,6.25,10.823l33.066,19.094c.186.12.374.236.561.345l67.373,38.9A12.5,12.5,0,0,0,862.7,838.5V806.847l27.469-15.859a12.528,12.528,0,0,0,6.248-10.822V702.388A12.529,12.529,0,0,0,890.17,691.565Zm1.073,88.6a7.32,7.32,0,0,1-3.66,6.339l-30.058,17.353V838.5a7.322,7.322,0,0,1-10.98,6.341l-67.36-38.891c-.154-.089-.3-.182-.447-.279l-33.2-19.169a7.32,7.32,0,0,1-3.66-6.339V702.388a7.32,7.32,0,0,1,3.66-6.339l67.36-38.891a7.317,7.317,0,0,1,7.32,0l67.36,38.891a7.32,7.32,0,0,1,3.66,6.339Z" transform="translate(-68.119 -59.256)"/><path class="cls-2" d="M756.523,706.614V775.94l30.02,17.333c.154.088.3.181.447.279l39.291,22.686,16.6,9.587V799.634a7.316,7.316,0,0,1,3.246-6.081q.2-.135.414-.258L876.6,775.94V706.614l-60.04-34.665Z" transform="translate(-68.119 -59.256)"/><path class="cls-5" d="M811.7,749.837l-1.569-23.481q-.44-6.863-.44-9.854a8.925,8.925,0,0,1,2.134-6.348,7.317,7.317,0,0,1,5.612-2.28q4.214,0,5.637,2.917T824.5,719.2a64.091,64.091,0,0,1-.343,6.568l-2.109,24.169a18.969,18.969,0,0,1-1.469,6.618,3.856,3.856,0,0,1-3.728,2.305,3.707,3.707,0,0,1-3.674-2.232A22.256,22.256,0,0,1,811.7,749.837Zm5.444,32.257a7.71,7.71,0,0,1-5.222-1.937,6.789,6.789,0,0,1-2.23-5.417,7.283,7.283,0,0,1,7.352-7.3,7.273,7.273,0,0,1,5.272,2.132,6.978,6.978,0,0,1,2.18,5.172,6.85,6.85,0,0,1-2.205,5.394A7.516,7.516,0,0,1,817.146,782.095Z" transform="translate(-68.119 -59.256)"/><path class="cls-5" d="M914.446,727.766a22.586,22.586,0,0,1,1.709-9.275,15.771,15.771,0,0,1,4.735-6.151,19.577,19.577,0,0,1,7.225-3.417,37.012,37.012,0,0,1,9.178-1.074,55.929,55.929,0,0,1,8.543.586q3.757.586,6.444,1.269a35.143,35.143,0,0,1,4.149,1.269q1.465.586,1.66.683v68.151H946.96V718q-.586-.195-3.173-.781a29.532,29.532,0,0,0-6.4-.586q-6.249,0-9.031,2.978t-2.783,8.934v2.245h11.131q3.222,0,4.54,1.318a5.227,5.227,0,0,1,1.318,3.857,9.38,9.38,0,0,1-.488,3.076,18.7,18.7,0,0,1-.781,2h-15.72v38.762H914.446Z" transform="translate(-68.119 -59.256)"/><path class="cls-5" d="M970,735.968a4.711,4.711,0,0,1,1.562-3.954,6.984,6.984,0,0,1,4.394-1.221,11.185,11.185,0,0,1,3.222.439q1.465.44,1.953.635v25.679q0,6.641,3.124,10.105t9.569,3.466q6.444,0,9.569-3.466t3.124-10.105V735.968a4.711,4.711,0,0,1,1.562-3.954,6.809,6.809,0,0,1,4.3-1.221,11.558,11.558,0,0,1,3.32.439q1.465.44,1.953.635v28.119a22.326,22.326,0,0,1-1.709,8.934,18.275,18.275,0,0,1-4.882,6.688,21.566,21.566,0,0,1-7.567,4.149,33.7,33.7,0,0,1-19.333,0,21.049,21.049,0,0,1-7.518-4.149,18.99,18.99,0,0,1-4.882-6.688A21.768,21.768,0,0,1,970,759.987Z" transform="translate(-68.119 -59.256)"/><path class="cls-5" d="M1072.716,776.194q-.783.49-2.441,1.367a24.92,24.92,0,0,1-4.15,1.66,46.985,46.985,0,0,1-5.76,1.367,40.822,40.822,0,0,1-7.177.586,30.646,30.646,0,0,1-10.2-1.66,23.7,23.7,0,0,1-8.3-4.931,23.209,23.209,0,0,1-5.614-8.006,27.175,27.175,0,0,1-2.05-10.887,27.672,27.672,0,0,1,2-10.691,24.478,24.478,0,0,1,5.565-8.3,25.093,25.093,0,0,1,8.4-5.37,28.656,28.656,0,0,1,10.594-1.9,28.068,28.068,0,0,1,8.983,1.318,20.812,20.812,0,0,1,6.59,3.515,14.378,14.378,0,0,1,5.419,11.375,14.781,14.781,0,0,1-1.269,6.2,11.2,11.2,0,0,1-4.492,4.784,26.784,26.784,0,0,1-8.69,3.125,70.773,70.773,0,0,1-13.864,1.123q-1.954,0-3.662-.049t-3.661-.146a12.129,12.129,0,0,0,4.833,8.055q4.05,3.075,11.57,3.076a26.217,26.217,0,0,0,4.687-.391,26.577,26.577,0,0,0,3.857-.976,27.528,27.528,0,0,0,2.929-1.172q1.22-.586,1.806-.879Zm-34.271-23.14q2.245.1,4.3.1h4.1a44.6,44.6,0,0,0,8.69-.683,17.589,17.589,0,0,0,5.175-1.758,5.481,5.481,0,0,0,2.441-2.441,7.118,7.118,0,0,0,.586-2.832,6.129,6.129,0,0,0-2.978-5.565,13.706,13.706,0,0,0-7.372-1.855,14.932,14.932,0,0,0-6.346,1.269,13.76,13.76,0,0,0-4.589,3.368,15.394,15.394,0,0,0-2.881,4.833A17.456,17.456,0,0,0,1038.445,753.054Z" transform="translate(-68.119 -59.256)"/><path class="cls-5" d="M1082.869,750.223a20.357,20.357,0,0,1,1.806-8.739,19.023,19.023,0,0,1,4.979-6.541,22.088,22.088,0,0,1,7.518-4.1,30.6,30.6,0,0,1,9.52-1.415,31.079,31.079,0,0,1,9.569,1.415,22.04,22.04,0,0,1,7.567,4.1,18.535,18.535,0,0,1,4.931,6.541,20.857,20.857,0,0,1,1.758,8.739v29.584h-11.131V753.054q0-6.638-3.222-10.105t-9.471-3.466q-6.348,0-9.52,3.466T1094,753.054v26.753h-11.131Z" transform="translate(-68.119 -59.256)"/><path class="cls-5" d="M1142.134,722.1a4.713,4.713,0,0,1,1.562-3.954,6.813,6.813,0,0,1,4.3-1.22,11.683,11.683,0,0,1,3.271.439q1.513.439,2,.634v12.79h14.157q3.222,0,4.54,1.318a5.227,5.227,0,0,1,1.318,3.857,9.385,9.385,0,0,1-.488,3.076,18.637,18.637,0,0,1-.781,2h-18.746v21.773a10.711,10.711,0,0,0,.684,4.149,6.451,6.451,0,0,0,1.9,2.587,7.154,7.154,0,0,0,2.831,1.367,14.232,14.232,0,0,0,3.369.391,15.453,15.453,0,0,0,5.272-.879,14.915,14.915,0,0,0,3.515-1.66l4.492,7.42q-.783.586-2.2,1.465a20.313,20.313,0,0,1-3.466,1.66,30.986,30.986,0,0,1-4.589,1.318,27.015,27.015,0,0,1-5.565.537q-8.593,0-12.986-4.443t-4.394-11.668Z" transform="translate(-68.119 -59.256)"/><path class="cls-5" d="M930.087,809.72H916.321l-4.061,10.022h-2.479l12.289-29.223H924.5l12.236,29.223h-2.584Zm-.686-1.729-2.215-5.455c-1.371-3.459-2.637-6.519-3.85-10.111h-.211c-1.213,3.592-2.426,6.652-3.85,10.111l-2.215,5.455Z" transform="translate(-68.119 -59.256)"/><path class="cls-5" d="M940.741,814.465a14.9,14.9,0,0,0,10.232,3.947c5.274,0,8.65-2.394,8.65-5.853,0-3.636-2.848-4.834-6.277-6.12l-5.274-2c-3.006-1.108-7.015-2.927-7.015-7.272,0-4.213,4.325-7.184,10.074-7.184a14.483,14.483,0,0,1,9.7,3.5l-1.424,1.375a12.063,12.063,0,0,0-8.281-3.015c-4.589,0-7.648,2.04-7.648,5.233,0,3.37,3.481,4.656,6.013,5.632l5.274,1.951c3.85,1.463,7.279,3.281,7.279,7.76s-4.378,7.849-11.129,7.849a16.692,16.692,0,0,1-11.709-4.39Z" transform="translate(-68.119 -59.256)"/><path class="cls-5" d="M967.272,814.465a14.9,14.9,0,0,0,10.232,3.947c5.274,0,8.65-2.394,8.65-5.853,0-3.636-2.848-4.834-6.276-6.12l-5.274-2c-3.007-1.108-7.015-2.927-7.015-7.272,0-4.213,4.325-7.184,10.074-7.184a14.483,14.483,0,0,1,9.7,3.5l-1.424,1.375a12.064,12.064,0,0,0-8.281-3.015c-4.589,0-7.648,2.04-7.648,5.233,0,3.37,3.481,4.656,6.013,5.632l5.275,1.951c3.85,1.463,7.279,3.281,7.279,7.76s-4.378,7.849-11.129,7.849a16.69,16.69,0,0,1-11.709-4.39Z" transform="translate(-68.119 -59.256)"/><path class="cls-5" d="M995.541,790.519h18.988v1.774H997.968v11.042h13.924v1.774H997.968v12.86h17.089v1.774H995.541Z" transform="translate(-68.119 -59.256)"/><path class="cls-5" d="M1041.48,819.742l-9.388-13.436h-7.384v13.436h-2.426V790.519h9.916c6.91,0,11.445,2.129,11.445,7.716,0,4.656-3.481,7.317-8.914,7.938l9.547,13.569Zm-9.916-15.122c6.171,0,9.547-2.084,9.547-6.386,0-4.39-3.376-5.987-9.547-5.987h-6.857V804.62Z" transform="translate(-68.119 -59.256)"/><path class="cls-5" d="M1057.884,792.293h-11.076v-1.774h24.526v1.774H1060.31v27.449h-2.426Z" transform="translate(-68.119 -59.256)"/><path class="cls-5" d="M1077.662,790.519h2.426v29.223h-2.426Z" transform="translate(-68.119 -59.256)"/><path class="cls-5" d="M1087.683,805.019c0-9.224,5.96-15.033,14.347-15.033,8.333,0,14.294,5.809,14.294,15.033,0,9.268-5.96,15.254-14.294,15.254C1093.643,820.274,1087.683,814.287,1087.683,805.019Zm26.108,0c0-8.071-4.747-13.17-11.762-13.17-7.068,0-11.815,5.1-11.815,13.17,0,8.115,4.747,13.392,11.815,13.392C1109.044,818.411,1113.791,813.134,1113.791,805.019Z" transform="translate(-68.119 -59.256)"/><path class="cls-5" d="M1123.97,790.519h2.532l14.61,20.62,3.956,5.809h.211c-.158-2.838-.316-5.676-.316-8.514V790.519h2.268v29.223H1144.7l-14.61-20.62-3.956-5.809h-.211c.158,2.793.316,5.454.316,8.292v18.137h-2.268Z" transform="translate(-68.119 -59.256)"/><path class="cls-5" d="M1155.985,814.465a14.9,14.9,0,0,0,10.232,3.947c5.274,0,8.65-2.394,8.65-5.853,0-3.636-2.848-4.834-6.276-6.12l-5.274-2c-3.007-1.108-7.015-2.927-7.015-7.272,0-4.213,4.325-7.184,10.074-7.184a14.483,14.483,0,0,1,9.7,3.5l-1.424,1.375a12.064,12.064,0,0,0-8.281-3.015c-4.589,0-7.648,2.04-7.648,5.233,0,3.37,3.481,4.656,6.013,5.632l5.275,1.951c3.85,1.463,7.279,3.281,7.279,7.76s-4.378,7.849-11.129,7.849a16.69,16.69,0,0,1-11.709-4.39Z" transform="translate(-68.119 -59.256)"/></svg>