<svg id="Layer_1" data-name="Layer 1" xmlns="http://www.w3.org/2000/svg" viewBox="0 0 1021.353 463.634"><defs><style>.cls-1{fill:#00a9ee;}.cls-2{fill:#fff;}.cls-3{fill:#ed1c24;}</style></defs><title>fluent_assertions_large_horizontal</title><path class="cls-1" d="M479.08,384.614,322.929,294.458a16.962,16.962,0,0,0-16.969,0L149.808,384.614a16.968,16.968,0,0,0-8.485,14.695v180.3a16.968,16.968,0,0,0,8.485,14.695l76.953,44.436c.336.224.679.439,1.036.646l156.152,90.156a16.969,16.969,0,0,0,25.454-14.7V634.535l69.678-40.227a16.968,16.968,0,0,0,8.484-14.695v-180.3A16.969,16.969,0,0,0,479.08,384.614Zm-25.454,185.2-69.678,40.231a16.968,16.968,0,0,0-8.485,14.695v60.717L245.888,610.643c-.336-.228-.679-.443-1.036-.646l-69.591-40.181V409.107l139.183-80.359,139.183,80.359Z" transform="translate(-129.323 -280.183)"/><path class="cls-2" d="M485.077,374.22,328.929,284.065a28.962,28.962,0,0,0-28.969,0L143.808,374.222a29.042,29.042,0,0,0-14.484,25.087v180.3A29.043,29.043,0,0,0,143.811,604.7l76.653,44.263c.431.279.867.547,1.3.8l156.183,90.174A28.969,28.969,0,0,0,421.4,714.848V641.463L485.08,604.7a29.042,29.042,0,0,0,14.485-25.087v-180.3A29.043,29.043,0,0,0,485.077,374.22Zm2.487,205.393a16.969,16.969,0,0,1-8.484,14.695L409.4,634.535v80.313a16.973,16.973,0,0,1-25.454,14.7L227.8,639.39c-.356-.207-.7-.423-1.036-.646l-76.953-44.436a16.968,16.968,0,0,1-8.485-14.695v-180.3a16.968,16.968,0,0,1,8.485-14.695L305.96,294.458a16.962,16.962,0,0,1,16.969,0L479.08,384.614a16.969,16.969,0,0,1,8.484,14.695Z" transform="translate(-129.323 -280.183)"/><path class="cls-2" d="M175.261,409.107V569.815L244.853,610c.356.2.7.418,1.036.646l91.083,52.59,38.493,22.225V624.741a16.961,16.961,0,0,1,7.524-14.1q.468-.313.96-.6l69.678-40.231V409.107L314.444,328.748Z" transform="translate(-129.323 -280.183)"/><path class="cls-3" d="M303.176,509.305l-3.637-54.433q-1.019-15.908-1.019-22.844,0-9.433,4.947-14.715t13.008-5.286q9.769,0,13.066,6.761t3.3,19.492a148.573,148.573,0,0,1-.8,15.225l-4.889,56.028q-.8,10-3.405,15.341a8.939,8.939,0,0,1-8.642,5.344q-6.127,0-8.518-5.174T303.176,509.305Zm12.619,74.778a17.874,17.874,0,0,1-12.105-4.491q-5.17-4.487-5.17-12.557A16.883,16.883,0,0,1,315.563,550.1a16.86,16.86,0,0,1,12.221,4.942,16.177,16.177,0,0,1,5.054,11.989q0,7.96-5.112,12.5A17.422,17.422,0,0,1,315.795,584.083Z" transform="translate(-129.323 -280.183)"/><path class="cls-3" d="M541.353,458.14q0-12.672,3.961-21.5a36.561,36.561,0,0,1,10.978-14.26,45.382,45.382,0,0,1,16.749-7.922,85.8,85.8,0,0,1,21.276-2.489,129.654,129.654,0,0,1,19.8,1.358q8.71,1.358,14.938,2.942a81.466,81.466,0,0,1,9.619,2.942q3.4,1.358,3.848,1.584V578.78h-25.8V435.506q-1.358-.451-7.356-1.811a68.46,68.46,0,0,0-14.825-1.358q-14.487,0-20.937,6.9t-6.451,20.711v5.205h25.8q7.469,0,10.525,3.056t3.056,8.94a21.743,21.743,0,0,1-1.132,7.13,43.36,43.36,0,0,1-1.811,4.64H567.156V578.78h-25.8Z" transform="translate(-129.323 -280.183)"/><path class="cls-3" d="M670.14,477.153q0-6.334,3.621-9.166t10.186-2.83a25.929,25.929,0,0,1,7.469,1.019q3.4,1.02,4.527,1.472v59.527q0,15.394,7.242,23.426t22.182,8.035q14.938,0,22.182-8.035t7.242-23.426V477.153q0-6.334,3.621-9.166t9.959-2.83a26.794,26.794,0,0,1,7.7,1.019q3.4,1.02,4.527,1.472v65.186a51.756,51.756,0,0,1-3.961,20.71,42.364,42.364,0,0,1-11.316,15.5,49.993,49.993,0,0,1-17.541,9.619,78.133,78.133,0,0,1-44.816,0,48.8,48.8,0,0,1-17.428-9.619,44.023,44.023,0,0,1-11.316-15.5,50.461,50.461,0,0,1-4.074-20.71Z" transform="translate(-129.323 -280.183)"/><path class="cls-3" d="M908.248,570.4q-1.815,1.135-5.658,3.169a57.769,57.769,0,0,1-9.62,3.848,108.918,108.918,0,0,1-13.354,3.169,94.632,94.632,0,0,1-16.637,1.358,71.043,71.043,0,0,1-23.652-3.848,54.94,54.94,0,0,1-19.238-11.431,53.8,53.8,0,0,1-13.015-18.56,63,63,0,0,1-4.753-25.237,64.149,64.149,0,0,1,4.64-24.784,56.743,56.743,0,0,1,12.9-19.238A58.169,58.169,0,0,1,839.327,466.4a66.43,66.43,0,0,1,24.559-4.413,65.066,65.066,0,0,1,20.823,3.056,48.245,48.245,0,0,1,15.277,8.147,33.33,33.33,0,0,1,12.563,26.369,34.265,34.265,0,0,1-2.942,14.372q-2.944,6.451-10.412,11.091t-20.145,7.243q-12.678,2.6-32.14,2.6-4.531,0-8.488-.113t-8.487-.339a28.116,28.116,0,0,0,11.2,18.673q9.39,7.129,26.821,7.13a60.776,60.776,0,0,0,10.865-.905,61.61,61.61,0,0,0,8.94-2.264,63.814,63.814,0,0,0,6.79-2.716q2.827-1.358,4.187-2.037ZM828.8,516.762q5.2.229,9.959.227h9.506a103.389,103.389,0,0,0,20.145-1.584,40.774,40.774,0,0,0,12-4.074q4.3-2.489,5.658-5.658a16.5,16.5,0,0,0,1.358-6.564q0-8.6-6.9-12.9t-17.089-4.3a34.614,34.614,0,0,0-14.712,2.942,31.9,31.9,0,0,0-10.638,7.809,35.685,35.685,0,0,0-6.678,11.2A40.465,40.465,0,0,0,828.8,516.762Z" transform="translate(-129.323 -280.183)"/><path class="cls-3" d="M931.786,510.2a47.191,47.191,0,0,1,4.188-20.258,44.1,44.1,0,0,1,11.543-15.164,51.2,51.2,0,0,1,17.428-9.507,70.944,70.944,0,0,1,22.068-3.281,72.047,72.047,0,0,1,22.182,3.281,51.092,51.092,0,0,1,17.541,9.507,42.966,42.966,0,0,1,11.431,15.164,48.35,48.35,0,0,1,4.074,20.258V578.78h-25.8V516.762q0-15.388-7.47-23.426T987.013,485.3q-14.716,0-22.068,8.035t-7.355,23.426V578.78h-25.8Z" transform="translate(-129.323 -280.183)"/><path class="cls-3" d="M1069.172,445.013q0-6.334,3.621-9.167t9.959-2.829a27.084,27.084,0,0,1,7.583,1.019q3.507,1.018,4.64,1.471v29.65h32.819q7.469,0,10.524,3.056t3.056,8.94a21.756,21.756,0,0,1-1.131,7.13,43.2,43.2,0,0,1-1.812,4.64h-43.457V539.4a24.829,24.829,0,0,0,1.585,9.619,14.954,14.954,0,0,0,4.413,6,16.584,16.584,0,0,0,6.563,3.169,32.993,32.993,0,0,0,7.81.905,35.822,35.822,0,0,0,12.222-2.037,34.575,34.575,0,0,0,8.148-3.848l10.412,17.2q-1.815,1.359-5.093,3.4a47.089,47.089,0,0,1-8.035,3.848,71.831,71.831,0,0,1-10.638,3.056,62.624,62.624,0,0,1-12.9,1.245q-19.92,0-30.1-10.3T1069.172,544.6Z" transform="translate(-129.323 -280.183)"/><path class="cls-3" d="M577.612,648.122H545.7l-9.415,23.232h-5.747l28.488-67.744h5.625l28.366,67.744h-5.991Zm-1.589-4.009-5.135-12.645c-3.179-8.019-6.114-15.111-8.926-23.438h-.489c-2.812,8.327-5.624,15.42-8.925,23.438l-5.135,12.645Z" transform="translate(-129.323 -280.183)"/><path class="cls-3" d="M602.309,659.121a34.538,34.538,0,0,0,23.72,9.149c12.227,0,20.052-5.551,20.052-13.569,0-8.43-6.6-11.205-14.55-14.187l-12.227-4.626c-6.969-2.569-16.262-6.784-16.262-16.858,0-9.766,10.026-16.653,23.353-16.653a33.573,33.573,0,0,1,22.5,8.121l-3.3,3.187a27.964,27.964,0,0,0-19.2-6.99c-10.637,0-17.729,4.729-17.729,12.13,0,7.813,8.07,10.794,13.939,13.056l12.227,4.523c8.926,3.392,16.873,7.606,16.873,17.989s-10.148,18.2-25.8,18.2c-11.738,0-20.786-4.215-27.144-10.177Z" transform="translate(-129.323 -280.183)"/><path class="cls-3" d="M663.811,659.121a34.534,34.534,0,0,0,23.72,9.149c12.227,0,20.052-5.551,20.052-13.569,0-8.43-6.6-11.205-14.55-14.187l-12.227-4.626c-6.97-2.569-16.262-6.784-16.262-16.858,0-9.766,10.026-16.653,23.354-16.653a33.573,33.573,0,0,1,22.5,8.121l-3.3,3.187a27.966,27.966,0,0,0-19.2-6.99c-10.638,0-17.729,4.729-17.729,12.13,0,7.813,8.07,10.794,13.938,13.056l12.228,4.523c8.925,3.392,16.873,7.606,16.873,17.989s-10.148,18.2-25.8,18.2c-11.738,0-20.786-4.215-27.144-10.177Z" transform="translate(-129.323 -280.183)"/><path class="cls-3" d="M729.346,603.611h44.017v4.112H734.97v25.6h32.279v4.111H734.97v29.812h39.615v4.112H729.346Z" transform="translate(-129.323 -280.183)"/><path class="cls-3" d="M835.84,671.355l-21.764-31.147H796.958v31.147h-5.624V603.611H814.32c16.018,0,26.532,4.935,26.532,17.887,0,10.794-8.069,16.962-20.663,18.4l22.131,31.456ZM812.853,636.3c14.306,0,22.131-4.831,22.131-14.8,0-10.177-7.825-13.878-22.131-13.878h-15.9V636.3Z" transform="translate(-129.323 -280.183)"/><path class="cls-3" d="M873.866,607.723H848.189v-4.112h56.855v4.112H879.49v63.632h-5.624Z" transform="translate(-129.323 -280.183)"/><path class="cls-3" d="M919.716,603.611h5.624v67.744h-5.624Z" transform="translate(-129.323 -280.183)"/><path class="cls-3" d="M942.944,637.226c0-21.382,13.816-34.849,33.258-34.849,19.318,0,33.135,13.467,33.135,34.849,0,21.484-13.816,35.362-33.135,35.362C956.761,672.588,942.944,658.71,942.944,637.226Zm60.523,0c0-18.71-11-30.531-27.266-30.531-16.385,0-27.389,11.821-27.389,30.531,0,18.812,11,31.045,27.389,31.045C992.464,668.271,1003.468,656.037,1003.468,637.226Z" transform="translate(-129.323 -280.183)"/><path class="cls-3" d="M1027.063,603.611h5.869l33.868,47.8,9.17,13.467h.489c-.366-6.579-.733-13.158-.733-19.737v-41.53h5.258v67.744h-5.869l-33.868-47.8-9.171-13.466h-.488c.366,6.476.733,12.644.733,19.223v42.045h-5.258Z" transform="translate(-129.323 -280.183)"/><path class="cls-3" d="M1101.28,659.121a34.534,34.534,0,0,0,23.72,9.149c12.227,0,20.052-5.551,20.052-13.569,0-8.43-6.6-11.205-14.55-14.187l-12.227-4.626c-6.97-2.569-16.262-6.784-16.262-16.858,0-9.766,10.026-16.653,23.354-16.653a33.573,33.573,0,0,1,22.5,8.121l-3.3,3.187a27.966,27.966,0,0,0-19.2-6.99c-10.638,0-17.729,4.729-17.729,12.13,0,7.813,8.07,10.794,13.938,13.056L1133.8,636.4c8.925,3.392,16.873,7.606,16.873,17.989s-10.148,18.2-25.8,18.2c-11.738,0-20.786-4.215-27.144-10.177Z" transform="translate(-129.323 -280.183)"/></svg>