<?xml version="1.0" encoding="UTF-8" standalone="no"?>
<svg
   xmlns:dc="http://purl.org/dc/elements/1.1/"
   xmlns:cc="http://creativecommons.org/ns#"
   xmlns:rdf="http://www.w3.org/1999/02/22-rdf-syntax-ns#"
   xmlns:svg="http://www.w3.org/2000/svg"
   xmlns="http://www.w3.org/2000/svg"
   height="616.45001"
   width="925.59998"
   xml:space="preserve"
   viewBox="0 0 925.59998 616.45001"
   y="0px"
   x="0px"
   id="Layer_1"
   version="1.1"><metadata
     id="metadata51"><rdf:RDF><cc:Work
         rdf:about=""><dc:format>image/svg+xml</dc:format><dc:type
           rdf:resource="http://purl.org/dc/dcmitype/StillImage" /><dc:title></dc:title></cc:Work></rdf:RDF></metadata><defs
     id="defs49" /><style
     id="style2"
     type="text/css">
	.st0{fill:#ED1C24;}
	.st1{fill:#FFFFFF;}
	.st2{fill:#00A9EE;}
</style><g
     transform="translate(-174.9,-189.65)"
     id="g14"><path
       style="fill:#ed1c24"
       id="path4"
       d="m 491,591.6 c 0,-8.4 1.3,-15.6 4,-21.5 2.6,-5.9 6.3,-10.6 11,-14.3 4.7,-3.6 10.3,-6.3 16.7,-7.9 6.5,-1.7 13.6,-2.5 21.3,-2.5 7.4,0 14,0.5 19.8,1.4 5.8,0.9 10.8,1.9 14.9,2.9 4.1,1.1 7.4,2 9.6,2.9 2.3,0.9 3.5,1.4 3.8,1.6 v 158 H 566.3 V 569 c -0.9,-0.3 -3.4,-0.9 -7.4,-1.8 -4,-0.9 -8.9,-1.4 -14.8,-1.4 -9.7,0 -16.6,2.3 -20.9,6.9 -4.3,4.6 -6.5,11.5 -6.5,20.7 v 5.2 h 25.8 c 5,0 8.5,1 10.5,3.1 2,2.1 3.1,5 3.1,8.9 0,2.6 -0.4,4.9 -1.1,7.1 -0.8,2.2 -1.4,3.7 -1.8,4.6 h -36.4 v 89.9 H 491 Z"
       class="st0" /><path
       style="fill:#ed1c24"
       id="path6"
       d="m 619.8,610.6 c 0,-4.2 1.2,-7.3 3.6,-9.2 2.4,-1.9 5.8,-2.8 10.2,-2.8 2.7,0 5.2,0.3 7.5,1 2.3,0.7 3.8,1.2 4.5,1.5 v 59.5 c 0,10.3 2.4,18.1 7.2,23.4 4.8,5.4 12.2,8 22.2,8 10,0 17.3,-2.7 22.2,-8 4.8,-5.4 7.2,-13.2 7.2,-23.4 v -50 c 0,-4.2 1.2,-7.3 3.6,-9.2 2.4,-1.9 5.7,-2.8 10,-2.8 2.9,0 5.4,0.3 7.7,1 2.3,0.7 3.8,1.2 4.5,1.5 v 65.2 c 0,7.7 -1.3,14.6 -4,20.7 -2.6,6.1 -6.4,11.3 -11.3,15.5 -4.9,4.2 -10.8,7.4 -17.5,9.6 -6.8,2.2 -14.3,3.3 -22.4,3.3 -8.1,0 -15.6,-1.1 -22.4,-3.3 -6.8,-2.2 -12.6,-5.4 -17.4,-9.6 -4.8,-4.2 -8.6,-9.4 -11.3,-15.5 -2.7,-6.1 -4.1,-13 -4.1,-20.7 z"
       class="st0" /><path
       style="fill:#ed1c24"
       id="path8"
       d="m 857.9,703.9 c -1.2,0.8 -3.1,1.8 -5.7,3.2 -2.6,1.4 -5.8,2.6 -9.6,3.8 -3.8,1.2 -8.3,2.3 -13.4,3.2 -5.1,0.9 -10.6,1.4 -16.6,1.4 -8.5,0 -16.3,-1.3 -23.7,-3.8 -7.3,-2.6 -13.7,-6.4 -19.2,-11.4 -5.5,-5.1 -9.8,-11.2 -13,-18.6 -3.2,-7.3 -4.8,-15.7 -4.8,-25.2 0,-9.1 1.5,-17.3 4.6,-24.8 3.1,-7.5 7.4,-13.9 12.9,-19.2 5.5,-5.4 12,-9.5 19.5,-12.4 7.5,-2.9 15.7,-4.4 24.6,-4.4 7.8,0 14.8,1 20.8,3.1 6,2 11.1,4.8 15.3,8.1 4.1,3.4 7.3,7.4 9.4,11.9 2.1,4.5 3.2,9.4 3.2,14.5 0,5.3 -1,10.1 -2.9,14.4 -2,4.3 -5.4,8 -10.4,11.1 -5,3.1 -11.7,5.5 -20.1,7.2 -8.5,1.7 -19.2,2.6 -32.1,2.6 -3,0 -5.8,0 -8.5,-0.1 -2.6,-0.1 -5.5,-0.2 -8.5,-0.3 1.2,7.7 4.9,13.9 11.2,18.7 6.3,4.8 15.2,7.1 26.8,7.1 3.9,0 7.5,-0.3 10.9,-0.9 3.3,-0.6 6.3,-1.4 8.9,-2.3 2.6,-0.9 4.9,-1.8 6.8,-2.7 1.9,-0.9 3.3,-1.6 4.2,-2 z m -79.4,-53.7 c 3.5,0.2 6.8,0.2 10,0.2 3.2,0 6.3,0 9.5,0 8.3,0 15,-0.5 20.1,-1.6 5.1,-1.1 9.1,-2.4 12,-4.1 2.9,-1.7 4.8,-3.5 5.7,-5.7 0.9,-2.1 1.4,-4.3 1.4,-6.6 0,-5.7 -2.3,-10 -6.9,-12.9 -4.6,-2.9 -10.3,-4.3 -17.1,-4.3 -5.6,0 -10.5,1 -14.7,2.9 -4.2,2 -7.8,4.6 -10.6,7.8 -2.9,3.2 -5.1,7 -6.7,11.2 -1.7,4.5 -2.6,8.8 -2.7,13.1 z"
       class="st0" /><path
       style="fill:#ed1c24"
       id="path10"
       d="m 881.5,643.7 c 0,-7.5 1.4,-14.3 4.2,-20.3 2.8,-6 6.6,-11 11.5,-15.2 4.9,-4.1 10.7,-7.3 17.4,-9.5 6.7,-2.2 14.1,-3.3 22.1,-3.3 8,0 15.4,1.1 22.2,3.3 6.8,2.2 12.6,5.4 17.5,9.5 4.9,4.2 8.7,9.2 11.4,15.2 2.7,6 4.1,12.7 4.1,20.3 v 68.6 h -25.8 v -62 c 0,-10.3 -2.5,-18.1 -7.5,-23.4 -5,-5.4 -12.3,-8 -22,-8 -9.8,0 -17.2,2.7 -22.1,8 -4.9,5.4 -7.4,13.2 -7.4,23.4 v 62 h -25.8 v -68.6 z"
       class="st0" /><path
       style="fill:#ed1c24"
       id="path12"
       d="m 1018.8,578.5 c 0,-4.2 1.2,-7.3 3.6,-9.2 2.4,-1.9 5.7,-2.8 10,-2.8 2.7,0 5.2,0.3 7.6,1 2.3,0.7 3.9,1.2 4.6,1.5 v 29.7 h 32.8 c 5,0 8.5,1 10.5,3.1 2,2 3.1,5 3.1,8.9 0,2.6 -0.4,4.9 -1.1,7.1 -0.8,2.2 -1.4,3.7 -1.8,4.6 h -43.5 v 50.5 c 0,3.9 0.5,7.1 1.6,9.6 1.1,2.5 2.5,4.5 4.4,6 1.9,1.5 4.1,2.6 6.6,3.2 2.5,0.6 5.1,0.9 7.8,0.9 4.4,0 8.4,-0.7 12.2,-2 3.8,-1.4 6.5,-2.6 8.1,-3.8 l 10.4,17.2 c -1.2,0.9 -2.9,2 -5.1,3.4 -2.2,1.4 -4.9,2.6 -8,3.8 -3.1,1.2 -6.7,2.2 -10.6,3.1 -3.9,0.8 -8.2,1.2 -12.9,1.2 -13.3,0 -23.3,-3.4 -30.1,-10.3 -6.8,-6.9 -10.2,-15.9 -10.2,-27 z"
       class="st0" /></g><path
     style="fill:#ffffff"
     id="path16"
     d="m 34,277.65 69.6,40.2 c 0.4,0.2 0.7,0.4 1,0.6 l 129.6,74.8 v -60.7 c 0,-6.1 3.2,-11.7 8.5,-14.7 l 69.7,-40.2 V 116.95 L 173.2,36.55 34,116.95 Z"
     class="st1" /><path
     style="fill:#00a9ee"
     id="path18"
     d="M 337.9,92.45 181.7,2.25 c -5.3,-3 -11.7,-3 -17,0 L 8.5,92.45 c -5.2,3 -8.5,8.6 -8.5,14.7 v 180.3 c 0,6.1 3.2,11.7 8.5,14.7 l 77,44.4 c 0.3,0.2 0.7,0.4 1,0.6 l 156.2,90.2 c 2.6,1.5 5.6,2.3 8.5,2.3 2.9,0 5.9,-0.8 8.5,-2.3 5.2,-3 8.5,-8.6 8.5,-14.7 v -80.3 l 69.7,-40.2 c 5.2,-3 8.5,-8.6 8.5,-14.7 v -180.3 c -0.1,-6.1 -3.3,-11.7 -8.5,-14.7 z m -25.5,185.2 -69.7,40.2 c -5.2,3 -8.5,8.6 -8.5,14.7 v 60.7 l -129.6,-74.8 c -0.3,-0.2 -0.7,-0.4 -1,-0.6 L 34,277.65 v -160.7 l 139.2,-80.4 139.2,80.4 z"
     class="st2" /><g
     transform="translate(-174.9,-189.65)"
     id="g22"><path
       style="fill:#ed1c24"
       id="path20"
       d="m 336.9,406.8 -3.6,-54.4 c -0.7,-10.6 -1,-18.2 -1,-22.8 0,-6.3 1.6,-11.2 4.9,-14.7 3.3,-3.5 7.6,-5.3 13,-5.3 6.5,0 10.9,2.3 13.1,6.8 2.2,4.5 3.3,11 3.3,19.5 0,5 -0.3,10.1 -0.8,15.2 l -4.9,56 c -0.5,6.7 -1.7,11.8 -3.4,15.3 -1.7,3.6 -4.6,5.3 -8.6,5.3 -4.1,0 -6.9,-1.7 -8.5,-5.2 -1.7,-3.4 -2.9,-8.7 -3.5,-15.7 z m 12.6,74.8 c -4.6,0 -8.7,-1.5 -12.1,-4.5 -3.4,-3 -5.2,-7.2 -5.2,-12.6 0,-4.7 1.6,-8.7 4.9,-12 3.3,-3.3 7.3,-4.9 12.1,-4.9 4.8,0 8.8,1.6 12.2,4.9 3.4,3.3 5.1,7.3 5.1,12 0,5.3 -1.7,9.5 -5.1,12.5 -3.4,3 -7.4,4.6 -11.9,4.6 z"
       class="st0" /></g><g
     transform="translate(-174.9,-189.65)"
     id="g44"><path
       style="fill:#ed1c24"
       id="path24"
       d="m 527.3,781.6 h -31.9 l -9.4,23.2 h -5.7 l 28.5,-67.7 h 5.6 l 28.4,67.7 h -6 z m -1.6,-4 -5.1,-12.6 c -3.2,-8 -6.1,-15.1 -8.9,-23.4 h -0.5 c -2.8,8.3 -5.6,15.4 -8.9,23.4 l -5.1,12.6 z"
       class="st0" /><path
       style="fill:#ed1c24"
       id="path26"
       d="m 552,792.6 c 5.9,5.6 14.3,9.1 23.7,9.1 12.2,0 20.1,-5.6 20.1,-13.6 0,-8.4 -6.6,-11.2 -14.6,-14.2 L 569,769.3 c -7,-2.6 -16.3,-6.8 -16.3,-16.9 0,-9.8 10,-16.7 23.4,-16.7 9.8,0 17.6,3.7 22.5,8.1 l -3.3,3.2 c -4.6,-4.2 -11.1,-7 -19.2,-7 -10.6,0 -17.7,4.7 -17.7,12.1 0,7.8 8.1,10.8 13.9,13.1 l 12.2,4.5 c 8.9,3.4 16.9,7.6 16.9,18 0,10.4 -10.1,18.2 -25.8,18.2 -11.7,0 -20.8,-4.2 -27.1,-10.2 z"
       class="st0" /><path
       style="fill:#ed1c24"
       id="path28"
       d="m 613.5,792.6 c 5.9,5.6 14.3,9.1 23.7,9.1 12.2,0 20.1,-5.6 20.1,-13.6 0,-8.4 -6.6,-11.2 -14.5,-14.2 l -12.2,-4.6 c -7,-2.6 -16.3,-6.8 -16.3,-16.9 0,-9.8 10,-16.7 23.4,-16.7 9.8,0 17.6,3.7 22.5,8.1 l -3.3,3.2 c -4.6,-4.2 -11.1,-7 -19.2,-7 -10.6,0 -17.7,4.7 -17.7,12.1 0,7.8 8.1,10.8 13.9,13.1 l 12.2,4.5 c 8.9,3.4 16.9,7.6 16.9,18 0,10.4 -10.1,18.2 -25.8,18.2 -11.7,0 -20.8,-4.2 -27.1,-10.2 z"
       class="st0" /><path
       style="fill:#ed1c24"
       id="path30"
       d="m 679,737.1 h 44 v 4.1 h -38.4 v 25.6 h 32.3 v 4.1 h -32.3 v 29.8 h 39.6 v 4.1 H 679 Z"
       class="st0" /><path
       style="fill:#ed1c24"
       id="path32"
       d="m 785.5,804.8 -21.8,-31.1 h -17.1 v 31.1 H 741 v -67.7 h 23 c 16,0 26.5,4.9 26.5,17.9 0,10.8 -8.1,17 -20.7,18.4 l 22.1,31.5 h -6.4 z m -23,-35 c 14.3,0 22.1,-4.8 22.1,-14.8 0,-10.2 -7.8,-13.9 -22.1,-13.9 h -15.9 v 28.7 z"
       class="st0" /><path
       style="fill:#ed1c24"
       id="path34"
       d="m 823.5,741.2 h -25.7 v -4.1 h 56.9 v 4.1 h -25.6 v 63.6 h -5.6 z"
       class="st0" /><path
       style="fill:#ed1c24"
       id="path36"
       d="m 869.4,737.1 h 5.6 v 67.7 h -5.6 z"
       class="st0" /><path
       style="fill:#ed1c24"
       id="path38"
       d="m 892.6,770.7 c 0,-21.4 13.8,-34.8 33.3,-34.8 19.3,0 33.1,13.5 33.1,34.8 0,21.5 -13.8,35.4 -33.1,35.4 -19.5,0 -33.3,-13.9 -33.3,-35.4 z m 60.5,0 c 0,-18.7 -11,-30.5 -27.3,-30.5 -16.4,0 -27.4,11.8 -27.4,30.5 0,18.8 11,31 27.4,31 16.3,0.1 27.3,-12.2 27.3,-31 z"
       class="st0" /><path
       style="fill:#ed1c24"
       id="path40"
       d="m 976.7,737.1 h 5.9 l 33.9,47.8 9.2,13.5 h 0.5 c -0.4,-6.6 -0.7,-13.2 -0.7,-19.7 v -41.5 h 5.3 v 67.7 h -5.9 l -34,-47.9 -9.2,-13.5 h -0.5 c 0.4,6.5 0.7,12.6 0.7,19.2 v 42 h -5.3 v -67.6 z"
       class="st0" /><path
       style="fill:#ed1c24"
       id="path42"
       d="m 1051,792.6 c 5.9,5.6 14.3,9.1 23.7,9.1 12.2,0 20.1,-5.6 20.1,-13.6 0,-8.4 -6.6,-11.2 -14.5,-14.2 l -12.2,-4.6 c -7,-2.6 -16.3,-6.8 -16.3,-16.9 0,-9.8 10,-16.7 23.4,-16.7 9.8,0 17.6,3.7 22.5,8.1 l -3.3,3.2 c -4.6,-4.2 -11.1,-7 -19.2,-7 -10.6,0 -17.7,4.7 -17.7,12.1 0,7.8 8.1,10.8 13.9,13.1 l 12.2,4.5 c 8.9,3.4 16.9,7.6 16.9,18 0,10.4 -10.1,18.2 -25.8,18.2 -11.7,0 -20.8,-4.2 -27.1,-10.2 z"
       class="st0" /></g></svg>