<?xml version="1.0" encoding="iso-8859-1"?>
<!-- Generator: Adobe Illustrator 19.0.0, SVG Export Plug-In . SVG Version: 6.00 Build 0)  -->
<svg xmlns="http://www.w3.org/2000/svg" xmlns:xlink="http://www.w3.org/1999/xlink" version="1.1" id="Capa_1" x="0px" y="0px" viewBox="0 0 512 512" style="enable-background:new 0 0 512 512;" xml:space="preserve" width="512px" height="512px">
<g>
	<g>
		<path d="M492.499,447.44h-7.147v-74.191c0-29.855-1.984-60.059-5.897-89.773c-0.541-4.106-4.304-7.003-8.416-6.456    c-4.106,0.541-6.997,4.309-6.456,8.416c3.828,29.067,5.769,58.612,5.769,87.814v14.507h-122.14c0-16.115,0-87.935,0-99.4h1.436    c4.142,0,7.5-3.357,7.5-7.5s-3.358-7.5-7.5-7.5h-1.436V259.5h1.436c4.142,0,7.5-3.357,7.5-7.5s-3.358-7.5-7.5-7.5h-1.436    c0-4.743,0-121.981,0-132.793h69.201c18.837,44.634,32.856,91.408,41.688,139.111c0.753,4.072,4.667,6.76,8.741,6.01    c4.073-0.754,6.764-4.667,6.009-8.741c-9.239-49.904-24.039-98.812-43.982-145.401V63.788c8.141-2.344,14.118-9.845,14.118-18.728    V21.518c0-10.753-8.748-19.501-19.501-19.501h-85.891c-10.753,0-19.501,8.748-19.501,19.501V45.06    c0,8.885,5.977,16.385,14.118,18.728c0,4.397,0,120.831,0,125.244h-56.474c-4.142,0-7.5,3.357-7.5,7.5c0,4.143,3.358,7.5,7.5,7.5    h56.474V244.5H178.79v-40.467h62.944c4.142,0,7.5-3.357,7.5-7.5s-3.358-7.5-7.5-7.5H178.79c0-4.412,0-120.846,0-125.244    c8.139-2.344,14.118-9.845,14.118-18.728V21.518c0-10.753-8.749-19.501-19.501-19.501H87.515    c-10.753,0-19.501,8.749-19.501,19.501V45.06c0,8.885,5.977,16.384,14.118,18.728v38.896    C45.32,188.668,26.649,279.688,26.649,373.249v74.192h-7.147C8.749,447.44,0,456.189,0,466.941v23.54    c0,10.753,8.749,19.501,19.501,19.501h161.177c10.753,0,19.501-8.749,19.501-19.501v-23.54c0-10.753-8.749-19.501-19.501-19.501    h-1.888V341.581h154.42c0,15.291,0,90.698,0,105.859h-1.888c-10.753,0-19.501,8.749-19.501,19.501v23.54    c0,10.753,8.749,19.501,19.501,19.501h161.177c10.753,0,19.501-8.748,19.501-19.501v-23.54    C512,456.189,503.251,447.44,492.499,447.44z M83.015,21.518c0-2.439,2.061-4.5,4.5-4.5h85.891c2.439,0,4.5,2.061,4.5,4.5V45.06    c0,2.439-2.061,4.5-4.5,4.5c-9.461,0-75.029,0-85.891,0c-2.439,0-4.5-2.061-4.5-4.5V21.518z M163.789,64.561v32.145H97.133V64.561    H163.789z M41.65,373.248c0-90.384,17.81-178.355,52.938-261.541h69.202c0,5.013,0,121.36,0,132.854    c-3.709,0.453-6.583,3.607-6.583,7.438s2.874,6.985,6.583,7.438v13.979c-3.709,0.453-6.583,3.607-6.583,7.438    s2.874,6.985,6.583,7.438c0,11.486,0,83.339,0,99.461H41.65V373.248z M41.65,402.756h122.138v44.683H41.65V402.756z     M180.678,462.441c2.44,0,4.5,2.06,4.5,4.5v23.54c0,2.439-2.061,4.5-4.5,4.5H19.501c-2.439,0-4.5-2.061-4.5-4.5v-23.54    c0-2.439,2.061-4.5,4.5-4.5C24.496,462.441,171.11,462.441,180.678,462.441z M470.349,402.756v44.683H348.211v-44.683H470.349z     M414.867,96.706h-66.656V64.561h66.656V96.706z M334.093,21.518c0-2.439,2.061-4.5,4.5-4.5h85.891c2.439,0,4.5,2.061,4.5,4.5    V45.06c0,2.439-2.061,4.5-4.5,4.5c-9.324,0-71.874,0-85.891,0c-2.439,0-4.5-2.061-4.5-4.5V21.518z M178.79,259.501h154.42v13.855    H178.79V259.501z M178.79,326.58v-38.224h154.42v38.224H178.79z M496.999,490.482c0,2.439-2.061,4.5-4.5,4.5H331.322    c-2.439,0-4.5-2.061-4.5-4.5v-23.54c0-2.439,2.061-4.5,4.5-4.5c5.955,0,149.909,0,161.177,0c2.439,0,4.5,2.061,4.5,4.5V490.482z" fill="#00aeef"/>
	</g>
</g>
<g>
</g>
<g>
</g>
<g>
</g>
<g>
</g>
<g>
</g>
<g>
</g>
<g>
</g>
<g>
</g>
<g>
</g>
<g>
</g>
<g>
</g>
<g>
</g>
<g>
</g>
<g>
</g>
<g>
</g>
</svg>
