<svg xmlns="http://www.w3.org/2000/svg" xmlns:xlink="http://www.w3.org/1999/xlink" width="450" zoomAndPan="magnify" viewBox="0 0 337.5 337.500003" height="450" preserveAspectRatio="xMidYMid meet" version="1.0"><defs><clipPath id="79e1f4197b"><path d="M 1.980469 3 L 335.238281 3 L 335.238281 334 L 1.980469 334 Z M 1.980469 3 " clip-rule="nonzero"/></clipPath></defs><g clip-path="url(#79e1f4197b)"><path fill="#ff671b" d="M 322.332031 293.023438 L 317.683594 293.023438 L 317.683594 244.765625 C 317.683594 225.34375 316.390625 205.699219 313.847656 186.371094 C 313.496094 183.699219 311.046875 181.816406 308.371094 182.171875 C 305.703125 182.523438 303.820312 184.976562 304.171875 187.644531 C 306.664062 206.554688 307.925781 225.769531 307.925781 244.765625 L 307.925781 254.203125 L 228.480469 254.203125 C 228.480469 243.71875 228.480469 197.003906 228.480469 189.546875 L 229.414062 189.546875 C 232.109375 189.546875 234.292969 187.363281 234.292969 184.667969 C 234.292969 181.972656 232.109375 179.789062 229.414062 179.789062 L 228.480469 179.789062 L 228.480469 170.777344 L 229.414062 170.777344 C 232.109375 170.777344 234.292969 168.59375 234.292969 165.898438 C 234.292969 163.203125 232.109375 161.019531 229.414062 161.019531 L 228.480469 161.019531 C 228.480469 157.933594 228.480469 81.675781 228.480469 74.644531 L 273.492188 74.644531 C 285.746094 103.675781 294.863281 134.101562 300.609375 165.128906 C 301.097656 167.777344 303.644531 169.527344 306.292969 169.039062 C 308.941406 168.546875 310.691406 166.003906 310.203125 163.351562 C 304.191406 130.890625 294.566406 99.078125 281.59375 68.773438 L 281.59375 43.472656 C 286.890625 41.949219 290.777344 37.070312 290.777344 31.292969 L 290.777344 15.980469 C 290.777344 8.984375 285.085938 3.292969 278.09375 3.292969 L 222.222656 3.292969 C 215.230469 3.292969 209.539062 8.984375 209.539062 15.980469 L 209.539062 31.292969 C 209.539062 37.070312 213.425781 41.949219 218.722656 43.472656 C 218.722656 46.332031 218.722656 122.070312 218.722656 124.941406 L 181.988281 124.941406 C 179.292969 124.941406 177.109375 127.125 177.109375 129.816406 C 177.109375 132.511719 179.292969 134.695312 181.988281 134.695312 L 218.722656 134.695312 L 218.722656 161.019531 L 118.277344 161.019531 L 118.277344 134.695312 L 159.21875 134.695312 C 161.914062 134.695312 164.097656 132.511719 164.097656 129.820312 C 164.097656 127.125 161.914062 124.941406 159.21875 124.941406 L 118.277344 124.941406 C 118.277344 122.070312 118.277344 46.335938 118.277344 43.472656 C 123.570312 41.949219 127.460938 37.070312 127.460938 31.292969 L 127.460938 15.980469 C 127.460938 8.984375 121.769531 3.292969 114.777344 3.292969 L 58.90625 3.292969 C 51.914062 3.292969 46.222656 8.984375 46.222656 15.980469 L 46.222656 31.292969 C 46.222656 37.070312 50.109375 41.949219 55.40625 43.472656 L 55.40625 68.773438 C 31.460938 124.703125 19.316406 183.90625 19.316406 244.765625 L 19.316406 293.023438 L 14.667969 293.023438 C 7.671875 293.023438 1.980469 298.714844 1.980469 305.707031 L 1.980469 321.019531 C 1.980469 328.011719 7.671875 333.703125 14.667969 333.703125 L 119.503906 333.703125 C 126.5 333.703125 132.191406 328.011719 132.191406 321.019531 L 132.191406 305.707031 C 132.191406 298.714844 126.5 293.023438 119.503906 293.023438 L 118.277344 293.023438 L 118.277344 224.167969 L 218.722656 224.167969 C 218.722656 234.113281 218.722656 283.160156 218.722656 293.023438 L 217.492188 293.023438 C 210.5 293.023438 204.808594 298.714844 204.808594 305.707031 L 204.808594 321.019531 C 204.808594 328.011719 210.5 333.703125 217.492188 333.703125 L 322.332031 333.703125 C 329.324219 333.703125 335.015625 328.011719 335.015625 321.019531 L 335.015625 305.707031 C 335.015625 298.714844 329.324219 293.023438 322.332031 293.023438 Z M 55.980469 15.980469 C 55.980469 14.390625 57.320312 13.050781 58.90625 13.050781 L 114.777344 13.050781 C 116.363281 13.050781 117.703125 14.390625 117.703125 15.980469 L 117.703125 31.292969 C 117.703125 32.878906 116.363281 34.21875 114.777344 34.21875 C 108.621094 34.21875 65.972656 34.21875 58.90625 34.21875 C 57.320312 34.21875 55.980469 32.878906 55.980469 31.292969 Z M 108.519531 43.976562 L 108.519531 64.886719 L 65.164062 64.886719 L 65.164062 43.976562 Z M 29.074219 244.765625 C 29.074219 185.972656 40.660156 128.75 63.507812 74.644531 L 108.519531 74.644531 C 108.519531 77.902344 108.519531 153.582031 108.519531 161.058594 C 106.109375 161.351562 104.238281 163.40625 104.238281 165.898438 C 104.238281 168.390625 106.109375 170.441406 108.519531 170.734375 L 108.519531 179.828125 C 106.109375 180.121094 104.238281 182.175781 104.238281 184.664062 C 104.238281 187.15625 106.109375 189.210938 108.519531 189.503906 C 108.519531 196.976562 108.519531 243.710938 108.519531 254.199219 L 29.074219 254.199219 Z M 29.074219 263.957031 L 108.519531 263.957031 L 108.519531 293.023438 L 29.074219 293.023438 Z M 119.503906 302.78125 C 121.09375 302.78125 122.433594 304.121094 122.433594 305.707031 L 122.433594 321.019531 C 122.433594 322.605469 121.09375 323.945312 119.503906 323.945312 L 14.667969 323.945312 C 13.082031 323.945312 11.738281 322.605469 11.738281 321.019531 L 11.738281 305.707031 C 11.738281 304.121094 13.082031 302.78125 14.667969 302.78125 C 17.914062 302.78125 113.28125 302.78125 119.503906 302.78125 Z M 307.925781 263.957031 L 307.925781 293.023438 L 228.480469 293.023438 L 228.480469 263.957031 Z M 271.835938 64.886719 L 228.480469 64.886719 L 228.480469 43.976562 L 271.835938 43.976562 Z M 219.296875 15.980469 C 219.296875 14.390625 220.636719 13.050781 222.222656 13.050781 L 278.089844 13.050781 C 279.675781 13.050781 281.019531 14.390625 281.019531 15.980469 L 281.019531 31.292969 C 281.019531 32.878906 279.675781 34.21875 278.089844 34.21875 C 272.027344 34.21875 231.339844 34.21875 222.222656 34.21875 C 220.636719 34.21875 219.296875 32.878906 219.296875 31.292969 Z M 118.277344 170.777344 L 218.722656 170.777344 L 218.722656 179.789062 L 118.277344 179.789062 Z M 118.277344 214.410156 L 118.277344 189.546875 L 218.722656 189.546875 L 218.722656 214.410156 Z M 325.257812 321.019531 C 325.257812 322.605469 323.917969 323.945312 322.332031 323.945312 L 217.492188 323.945312 C 215.90625 323.945312 214.566406 322.605469 214.566406 321.019531 L 214.566406 305.707031 C 214.566406 304.121094 215.90625 302.78125 217.492188 302.78125 C 221.367188 302.78125 315.003906 302.78125 322.332031 302.78125 C 323.917969 302.78125 325.257812 304.121094 325.257812 305.707031 Z M 325.257812 321.019531 " fill-opacity="1" fill-rule="nonzero"/></g></svg>