<svg xmlns="http://www.w3.org/2000/svg" xmlns:xlink="http://www.w3.org/1999/xlink" width="450" zoomAndPan="magnify" viewBox="0 0 337.5 337.500003" height="450" preserveAspectRatio="xMidYMid meet" version="1.0"><defs><clipPath id="b54f3270d1"><path d="M 2.230469 46 L 334.738281 46 L 334.738281 290 L 2.230469 290 Z M 2.230469 46 " clip-rule="nonzero"/></clipPath></defs><g clip-path="url(#b54f3270d1)"><path fill="#ff671b" d="M 328.644531 77.578125 L 314.003906 77.578125 L 314.003906 63.722656 C 314.003906 60.621094 311.679688 58.011719 308.597656 57.648438 L 223.769531 47.6875 C 204.746094 45.449219 185.703125 48.632812 168.496094 56.886719 C 151.285156 48.632812 132.246094 45.449219 113.21875 47.6875 L 28.390625 57.648438 C 25.308594 58.011719 22.988281 60.621094 22.988281 63.722656 L 22.988281 77.578125 L 8.347656 77.578125 C 4.96875 77.578125 2.230469 80.316406 2.230469 83.695312 L 2.230469 283.882812 C 2.230469 287.261719 4.96875 290 8.347656 290 L 328.644531 290 C 332.023438 290 334.761719 287.261719 334.761719 283.882812 L 334.761719 83.695312 C 334.761719 80.316406 332.023438 77.578125 328.644531 77.578125 Z M 222.34375 59.835938 L 301.765625 69.164062 L 301.765625 251.101562 L 223.769531 241.941406 C 206.972656 239.96875 190.164062 242.226562 174.613281 248.460938 L 174.613281 67.535156 C 189.515625 60.574219 205.9375 57.910156 222.34375 59.835938 Z M 114.648438 59.835938 C 131.050781 57.910156 147.476562 60.574219 162.378906 67.535156 L 162.378906 248.464844 C 150.484375 243.695312 137.851562 241.246094 125.054688 241.246094 C 121.121094 241.246094 117.167969 241.480469 113.21875 241.941406 L 35.222656 251.101562 L 35.222656 69.164062 Z M 322.527344 277.765625 L 14.464844 277.765625 L 14.464844 89.8125 L 22.988281 89.8125 L 22.988281 257.980469 C 22.988281 259.726562 23.734375 261.390625 25.039062 262.550781 C 26.34375 263.710938 28.085938 264.261719 29.820312 264.054688 L 114.648438 254.09375 C 132.273438 252.023438 149.921875 255.246094 165.679688 263.410156 C 167.445312 264.328125 169.542969 264.328125 171.308594 263.410156 C 187.066406 255.246094 204.710938 252.023438 222.34375 254.09375 L 307.167969 264.054688 C 307.40625 264.082031 307.644531 264.097656 307.882812 264.097656 C 309.375 264.097656 310.824219 263.550781 311.949219 262.550781 C 313.253906 261.390625 314 259.726562 314 257.980469 L 314 89.8125 L 322.523438 89.8125 L 322.523438 277.765625 Z M 322.527344 277.765625 " fill-opacity="1" fill-rule="nonzero"/></g><path fill="#ff671b" d="M 188.703125 94.300781 C 199.664062 91.320312 210.949219 90.484375 222.230469 91.808594 L 285.921875 99.285156 C 286.164062 99.3125 286.40625 99.328125 286.644531 99.328125 C 289.703125 99.328125 292.34375 97.035156 292.710938 93.921875 C 293.105469 90.566406 290.703125 87.527344 287.347656 87.132812 L 223.65625 79.65625 C 210.8125 78.148438 197.972656 79.101562 185.496094 82.492188 C 182.234375 83.378906 180.308594 86.742188 181.195312 90 C 182.082031 93.261719 185.445312 95.183594 188.703125 94.300781 Z M 188.703125 94.300781 " fill-opacity="1" fill-rule="nonzero"/><path fill="#ff671b" d="M 50.121094 99.328125 C 50.359375 99.328125 50.601562 99.3125 50.84375 99.285156 L 114.527344 91.808594 C 125.792969 90.496094 137.207031 91.351562 148.058594 94.308594 C 151.316406 95.195312 154.679688 93.273438 155.566406 90.011719 C 156.457031 86.753906 154.53125 83.390625 151.273438 82.503906 C 138.921875 79.136719 125.9375 78.160156 113.105469 79.65625 L 49.414062 87.132812 C 46.058594 87.527344 43.65625 90.566406 44.050781 93.921875 C 44.417969 97.035156 47.0625 99.328125 50.121094 99.328125 Z M 50.121094 99.328125 " fill-opacity="1" fill-rule="nonzero"/><path fill="#ff671b" d="M 188.703125 122.359375 C 199.664062 119.378906 210.949219 118.542969 222.230469 119.867188 L 285.921875 127.34375 C 286.164062 127.371094 286.40625 127.386719 286.644531 127.386719 C 289.703125 127.386719 292.34375 125.09375 292.710938 121.980469 C 293.105469 118.625 290.703125 115.585938 287.347656 115.195312 L 223.65625 107.714844 C 210.8125 106.207031 197.972656 107.164062 185.496094 110.554688 C 182.234375 111.4375 180.308594 114.800781 181.195312 118.058594 C 182.082031 121.320312 185.445312 123.246094 188.703125 122.359375 Z M 188.703125 122.359375 " fill-opacity="1" fill-rule="nonzero"/><path fill="#ff671b" d="M 50.121094 127.386719 C 50.359375 127.386719 50.601562 127.371094 50.84375 127.34375 L 114.527344 119.867188 C 125.785156 118.554688 137.207031 119.410156 148.058594 122.367188 C 151.316406 123.253906 154.679688 121.332031 155.566406 118.070312 C 156.457031 114.8125 154.53125 111.449219 151.273438 110.5625 C 138.917969 107.195312 125.929688 106.21875 113.105469 107.714844 L 49.414062 115.191406 C 46.058594 115.585938 43.65625 118.625 44.050781 121.980469 C 44.417969 125.09375 47.0625 127.386719 50.121094 127.386719 Z M 50.121094 127.386719 " fill-opacity="1" fill-rule="nonzero"/><path fill="#ff671b" d="M 188.703125 150.417969 C 199.664062 147.4375 210.949219 146.601562 222.230469 147.925781 L 285.921875 155.402344 C 286.164062 155.429688 286.40625 155.445312 286.644531 155.445312 C 289.703125 155.445312 292.34375 153.152344 292.710938 150.039062 C 293.105469 146.683594 290.703125 143.644531 287.347656 143.25 L 223.65625 135.773438 C 210.8125 134.265625 197.972656 135.222656 185.496094 138.613281 C 182.234375 139.496094 180.308594 142.859375 181.195312 146.117188 C 182.082031 149.378906 185.445312 151.304688 188.703125 150.417969 Z M 188.703125 150.417969 " fill-opacity="1" fill-rule="nonzero"/><path fill="#ff671b" d="M 50.121094 155.445312 C 50.359375 155.445312 50.601562 155.429688 50.84375 155.402344 L 114.527344 147.925781 C 125.785156 146.613281 137.207031 147.46875 148.058594 150.425781 C 151.316406 151.3125 154.679688 149.390625 155.566406 146.128906 C 156.457031 142.871094 154.53125 139.507812 151.273438 138.621094 C 138.917969 135.257812 125.929688 134.277344 113.105469 135.773438 L 49.414062 143.25 C 46.058594 143.644531 43.65625 146.683594 44.050781 150.039062 C 44.417969 153.152344 47.0625 155.445312 50.121094 155.445312 Z M 50.121094 155.445312 " fill-opacity="1" fill-rule="nonzero"/><path fill="#ff671b" d="M 188.703125 178.476562 C 199.664062 175.496094 210.945312 174.660156 222.230469 175.984375 L 285.921875 183.460938 C 286.164062 183.488281 286.40625 183.503906 286.644531 183.503906 C 289.703125 183.503906 292.34375 181.210938 292.710938 178.097656 C 293.105469 174.742188 290.703125 171.703125 287.347656 171.308594 L 223.65625 163.832031 C 210.8125 162.324219 197.972656 163.28125 185.496094 166.671875 C 182.234375 167.554688 180.308594 170.917969 181.195312 174.175781 C 182.082031 177.4375 185.445312 179.363281 188.703125 178.476562 Z M 188.703125 178.476562 " fill-opacity="1" fill-rule="nonzero"/><path fill="#ff671b" d="M 50.121094 183.503906 C 50.359375 183.503906 50.601562 183.488281 50.84375 183.460938 L 114.527344 175.984375 C 125.78125 174.671875 137.207031 175.527344 148.058594 178.484375 C 151.316406 179.371094 154.679688 177.449219 155.566406 174.1875 C 156.457031 170.929688 154.53125 167.566406 151.273438 166.679688 C 138.917969 163.316406 125.929688 162.335938 113.105469 163.832031 L 49.414062 171.308594 C 46.058594 171.703125 43.65625 174.742188 44.050781 178.097656 C 44.417969 181.210938 47.0625 183.503906 50.121094 183.503906 Z M 50.121094 183.503906 " fill-opacity="1" fill-rule="nonzero"/><path fill="#ff671b" d="M 287.347656 199.367188 L 223.660156 191.890625 C 210.8125 190.382812 197.972656 191.339844 185.496094 194.730469 C 182.234375 195.613281 180.308594 198.976562 181.195312 202.234375 C 182.082031 205.496094 185.445312 207.421875 188.703125 206.535156 C 199.667969 203.558594 210.949219 202.71875 222.230469 204.042969 L 285.921875 211.519531 C 286.164062 211.550781 286.40625 211.5625 286.644531 211.5625 C 289.703125 211.5625 292.347656 209.273438 292.710938 206.160156 C 293.105469 202.804688 290.703125 199.761719 287.347656 199.367188 Z M 287.347656 199.367188 " fill-opacity="1" fill-rule="nonzero"/><path fill="#ff671b" d="M 50.121094 211.5625 C 50.359375 211.5625 50.601562 211.550781 50.84375 211.519531 L 114.527344 204.042969 C 125.785156 202.730469 137.207031 203.589844 148.058594 206.542969 C 151.316406 207.429688 154.679688 205.507812 155.566406 202.25 C 156.457031 198.988281 154.53125 195.625 151.273438 194.738281 C 138.917969 191.375 125.929688 190.398438 113.105469 191.890625 L 49.414062 199.371094 C 46.058594 199.761719 43.65625 202.804688 44.050781 206.160156 C 44.417969 209.273438 47.0625 211.5625 50.121094 211.5625 Z M 50.121094 211.5625 " fill-opacity="1" fill-rule="nonzero"/></svg>