<?xml version="1.0" encoding="iso-8859-1"?>
<!-- Generator: Adobe Illustrator 18.0.0, SVG Export Plug-In . SVG Version: 6.00 Build 0)  -->
<!DOCTYPE svg PUBLIC "-//W3C//DTD SVG 1.1//EN" "http://www.w3.org/Graphics/SVG/1.1/DTD/svg11.dtd">
<svg xmlns="http://www.w3.org/2000/svg" xmlns:xlink="http://www.w3.org/1999/xlink" version="1.1" id="Capa_1" x="0px" y="0px" viewBox="0 0 407.686 407.686" style="enable-background:new 0 0 407.686 407.686;" xml:space="preserve" width="512px" height="512px">
<g>
	<path d="M400.186,92.376h-17.95V75.392c0-3.804-2.848-7.005-6.625-7.449L271.611,55.729c-23.323-2.74-46.669,1.16-67.769,11.282   c-21.101-10.122-44.443-14.023-67.769-11.282l-104,12.214c-3.777,0.444-6.625,3.645-6.625,7.449v16.984H7.5   c-4.143,0-7.5,3.358-7.5,7.5v245.432c0,4.142,3.357,7.5,7.5,7.5h392.686c4.143,0,7.5-3.358,7.5-7.5V99.876   C407.686,95.734,404.328,92.376,400.186,92.376z M269.861,70.627l97.374,11.436v223.057l-95.624-11.23   c-20.593-2.419-41.202,0.347-60.269,7.993V80.065C229.613,71.53,249.748,68.265,269.861,70.627z M137.824,70.627   c20.112-2.363,40.249,0.903,58.519,9.438v221.82c-14.584-5.848-30.068-8.847-45.758-8.847c-4.823,0-9.668,0.283-14.511,0.851   l-95.625,11.23V82.063L137.824,70.627z M392.686,337.808H15V107.376h10.449v206.176c0,2.142,0.915,4.181,2.516,5.604   c1.6,1.423,3.733,2.095,5.859,1.845l104-12.214c21.608-2.539,43.248,1.412,62.567,11.424c2.164,1.122,4.738,1.122,6.902,0   c19.318-10.012,40.95-13.963,62.567-11.424l103.999,12.214c0.292,0.034,0.584,0.051,0.875,0.051c1.827,0,3.604-0.668,4.984-1.896   c1.601-1.423,2.516-3.462,2.516-5.604V107.376h10.45V337.808z" fill="#00aeef"/>
	<path d="M228.616,112.878c13.442-3.652,27.276-4.679,41.107-3.056l78.085,9.168c0.298,0.035,0.593,0.052,0.885,0.052   c3.751,0,6.991-2.809,7.439-6.626c0.482-4.114-2.461-7.84-6.574-8.323l-78.086-9.168c-15.75-1.849-31.491-0.678-46.788,3.479   c-3.998,1.086-6.357,5.207-5.271,9.204C220.499,111.605,224.623,113.963,228.616,112.878z" fill="#00aeef"/>
	<path d="M58.714,119.042c0.292,0,0.588-0.017,0.885-0.052l78.078-9.167c13.813-1.609,27.808-0.558,41.109,3.065   c3.995,1.087,8.119-1.268,9.207-5.266c1.089-3.997-1.269-8.119-5.266-9.207c-15.144-4.125-31.062-5.323-46.794-3.49l-78.085,9.168   c-4.113,0.483-7.057,4.209-6.574,8.323C51.723,116.233,54.963,119.042,58.714,119.042z" fill="#00aeef"/>
	<path d="M228.616,147.279c13.442-3.652,27.274-4.679,41.107-3.056l78.085,9.168c0.298,0.035,0.593,0.052,0.885,0.052   c3.751,0,6.991-2.809,7.439-6.626c0.482-4.114-2.461-7.84-6.574-8.323l-78.086-9.168c-15.748-1.848-31.49-0.678-46.788,3.479   c-3.998,1.086-6.357,5.207-5.271,9.204C220.499,146.005,224.623,148.365,228.616,147.279z" fill="#00aeef"/>
	<path d="M58.714,153.442c0.292,0,0.588-0.017,0.885-0.052l78.078-9.167c13.804-1.608,27.807-0.558,41.109,3.065   c3.995,1.087,8.119-1.268,9.207-5.266c1.089-3.997-1.269-8.119-5.266-9.207c-15.146-4.125-31.069-5.323-46.794-3.49l-78.085,9.168   c-4.113,0.483-7.057,4.209-6.574,8.323C51.723,150.633,54.963,153.442,58.714,153.442z" fill="#00aeef"/>
	<path d="M228.616,181.679c13.442-3.652,27.274-4.679,41.107-3.056l78.085,9.168c0.298,0.035,0.593,0.052,0.885,0.052   c3.751,0,6.991-2.809,7.439-6.626c0.482-4.114-2.461-7.84-6.574-8.323l-78.086-9.168c-15.748-1.848-31.49-0.677-46.788,3.479   c-3.998,1.086-6.357,5.207-5.271,9.204C220.499,180.406,224.623,182.765,228.616,181.679z" fill="#00aeef"/>
	<path d="M58.714,187.843c0.292,0,0.588-0.017,0.885-0.052l78.078-9.167c13.803-1.608,27.807-0.558,41.109,3.065   c3.995,1.088,8.119-1.268,9.207-5.266c1.089-3.997-1.269-8.119-5.266-9.207c-15.145-4.125-31.068-5.323-46.794-3.491l-78.085,9.168   c-4.113,0.483-7.057,4.209-6.574,8.323C51.723,185.034,54.963,187.843,58.714,187.843z" fill="#00aeef"/>
	<path d="M228.616,216.079c13.44-3.652,27.272-4.68,41.107-3.056l78.085,9.168c0.298,0.035,0.593,0.052,0.885,0.052   c3.751,0,6.991-2.809,7.439-6.626c0.482-4.114-2.461-7.84-6.574-8.323l-78.086-9.168c-15.748-1.847-31.489-0.678-46.788,3.479   c-3.998,1.086-6.357,5.207-5.271,9.204C220.499,214.806,224.623,217.166,228.616,216.079z" fill="#00aeef"/>
	<path d="M58.714,222.243c0.292,0,0.588-0.017,0.885-0.052l78.078-9.167c13.8-1.609,27.805-0.559,41.109,3.065   c3.995,1.087,8.119-1.268,9.207-5.266c1.089-3.997-1.269-8.119-5.266-9.207c-15.145-4.125-31.072-5.323-46.794-3.49l-78.085,9.168   c-4.113,0.483-7.057,4.209-6.574,8.323C51.723,219.434,54.963,222.243,58.714,222.243z" fill="#00aeef"/>
	<path d="M349.559,241.694l-78.086-9.168c-15.751-1.848-31.492-0.677-46.788,3.479c-3.998,1.086-6.357,5.207-5.271,9.204   c1.086,3.998,5.21,6.358,9.203,5.271c13.442-3.651,27.276-4.678,41.107-3.056l78.085,9.168c0.298,0.035,0.593,0.052,0.885,0.052   c3.751,0,6.991-2.809,7.439-6.626C356.615,245.904,353.672,242.177,349.559,241.694z" fill="#00aeef"/>
	<path d="M58.714,256.644c0.292,0,0.588-0.017,0.885-0.052l78.078-9.167c13.804-1.608,27.807-0.558,41.109,3.065   c3.995,1.088,8.119-1.268,9.207-5.266c1.089-3.997-1.269-8.119-5.266-9.207c-15.146-4.125-31.069-5.323-46.794-3.49l-78.085,9.168   c-4.113,0.483-7.057,4.209-6.574,8.323C51.723,253.835,54.963,256.644,58.714,256.644z" fill="#00aeef"/>
</g>
<g>
</g>
<g>
</g>
<g>
</g>
<g>
</g>
<g>
</g>
<g>
</g>
<g>
</g>
<g>
</g>
<g>
</g>
<g>
</g>
<g>
</g>
<g>
</g>
<g>
</g>
<g>
</g>
<g>
</g>
</svg>
