<svg xmlns="http://www.w3.org/2000/svg" xmlns:xlink="http://www.w3.org/1999/xlink" width="450" zoomAndPan="magnify" viewBox="0 0 337.5 337.500003" height="450" preserveAspectRatio="xMidYMid meet" version="1.0"><defs><clipPath id="ba0c1e9898"><path d="M 47 1.363281 L 292 1.363281 L 292 335.367188 L 47 335.367188 Z M 47 1.363281 " clip-rule="nonzero"/></clipPath></defs><g clip-path="url(#ba0c1e9898)"><path fill="#ff671b" d="M 285.574219 27.078125 L 240.574219 27.078125 L 240.574219 20.648438 C 240.574219 17.097656 237.695312 14.21875 234.148438 14.21875 L 195.566406 14.21875 C 189.539062 6.207031 180.003906 1.363281 169.863281 1.363281 C 159.722656 1.363281 150.1875 6.207031 144.160156 14.21875 L 105.578125 14.21875 C 102.03125 14.21875 99.152344 17.097656 99.152344 20.648438 L 99.152344 27.074219 L 54.152344 27.074219 C 50.601562 27.074219 47.722656 29.953125 47.722656 33.503906 L 47.722656 329.207031 C 47.722656 332.757812 50.601562 335.636719 54.152344 335.636719 L 285.574219 335.636719 C 289.125 335.636719 292 332.757812 292 329.207031 L 292 33.503906 C 292 29.957031 289.125 27.078125 285.574219 27.078125 Z M 112.007812 27.078125 L 147.597656 27.078125 C 149.894531 27.078125 152.011719 25.855469 153.164062 23.867188 C 156.605469 17.917969 163.003906 14.21875 169.863281 14.21875 C 176.722656 14.21875 183.121094 17.917969 186.5625 23.867188 C 187.710938 25.855469 189.832031 27.078125 192.125 27.078125 L 227.71875 27.078125 L 227.71875 52.789062 L 112.007812 52.789062 Z M 279.144531 297.066406 L 247.003906 297.066406 C 243.453125 297.066406 240.574219 299.945312 240.574219 303.496094 C 240.574219 307.046875 243.453125 309.921875 247.003906 309.921875 L 279.144531 309.921875 L 279.144531 322.78125 L 60.582031 322.78125 L 60.582031 39.933594 L 99.152344 39.933594 L 99.152344 59.21875 C 99.152344 62.765625 102.03125 65.644531 105.578125 65.644531 L 234.144531 65.644531 C 237.695312 65.644531 240.574219 62.765625 240.574219 59.21875 L 240.574219 39.933594 L 279.144531 39.933594 Z M 279.144531 297.066406 " fill-opacity="1" fill-rule="nonzero"/></g><path fill="#ff671b" d="M 135.359375 86.378906 C 132.609375 84.136719 128.558594 84.542969 126.3125 87.292969 L 99.925781 119.605469 L 84.945312 100.28125 C 82.773438 97.472656 78.734375 96.960938 75.929688 99.136719 C 73.121094 101.3125 72.609375 105.347656 74.785156 108.15625 L 94.710938 133.867188 C 95.914062 135.417969 97.753906 136.332031 99.710938 136.359375 C 99.738281 136.359375 99.765625 136.359375 99.792969 136.359375 C 101.722656 136.359375 103.550781 135.492188 104.773438 133.996094 L 136.269531 95.425781 C 138.515625 92.675781 138.109375 88.625 135.359375 86.378906 Z M 135.359375 86.378906 " fill-opacity="1" fill-rule="nonzero"/><path fill="#ff671b" d="M 259.859375 91.359375 L 157.007812 91.359375 C 153.457031 91.359375 150.578125 94.238281 150.578125 97.789062 C 150.578125 101.335938 153.457031 104.214844 157.007812 104.214844 L 259.859375 104.214844 C 263.410156 104.214844 266.289062 101.335938 266.289062 97.789062 C 266.289062 94.238281 263.410156 91.359375 259.859375 91.359375 Z M 259.859375 91.359375 " fill-opacity="1" fill-rule="nonzero"/><path fill="#ff671b" d="M 195.578125 117.074219 L 157.007812 117.074219 C 153.457031 117.074219 150.578125 119.953125 150.578125 123.5 C 150.578125 127.050781 153.457031 129.929688 157.007812 129.929688 L 195.578125 129.929688 C 199.125 129.929688 202.003906 127.050781 202.003906 123.5 C 202.003906 119.953125 199.125 117.074219 195.578125 117.074219 Z M 195.578125 117.074219 " fill-opacity="1" fill-rule="nonzero"/><path fill="#ff671b" d="M 135.359375 163.519531 C 132.609375 161.277344 128.558594 161.683594 126.3125 164.433594 L 99.925781 196.746094 L 84.945312 177.417969 C 82.773438 174.613281 78.734375 174.101562 75.929688 176.277344 C 73.121094 178.453125 72.609375 182.488281 74.785156 185.296875 L 94.710938 211.007812 C 95.914062 212.558594 97.753906 213.472656 99.710938 213.5 C 99.738281 213.5 99.765625 213.5 99.792969 213.5 C 101.722656 213.5 103.550781 212.632812 104.773438 211.136719 L 136.269531 172.566406 C 138.515625 169.816406 138.109375 165.765625 135.359375 163.519531 Z M 135.359375 163.519531 " fill-opacity="1" fill-rule="nonzero"/><path fill="#ff671b" d="M 259.859375 168.5 L 157.007812 168.5 C 153.457031 168.5 150.578125 171.378906 150.578125 174.929688 C 150.578125 178.476562 153.457031 181.355469 157.007812 181.355469 L 259.859375 181.355469 C 263.410156 181.355469 266.289062 178.476562 266.289062 174.929688 C 266.289062 171.378906 263.410156 168.5 259.859375 168.5 Z M 259.859375 168.5 " fill-opacity="1" fill-rule="nonzero"/><path fill="#ff671b" d="M 195.578125 194.214844 L 157.007812 194.214844 C 153.457031 194.214844 150.578125 197.09375 150.578125 200.640625 C 150.578125 204.191406 153.457031 207.070312 157.007812 207.070312 L 195.578125 207.070312 C 199.125 207.070312 202.003906 204.191406 202.003906 200.640625 C 202.003906 197.09375 199.125 194.214844 195.578125 194.214844 Z M 195.578125 194.214844 " fill-opacity="1" fill-rule="nonzero"/><path fill="#ff671b" d="M 135.359375 240.660156 C 132.609375 238.417969 128.558594 238.824219 126.3125 241.574219 L 99.925781 273.886719 L 84.945312 254.558594 C 82.773438 251.753906 78.734375 251.242188 75.929688 253.417969 C 73.121094 255.589844 72.609375 259.628906 74.785156 262.4375 L 94.710938 288.148438 C 95.914062 289.699219 97.753906 290.613281 99.710938 290.640625 C 99.738281 290.640625 99.765625 290.640625 99.792969 290.640625 C 101.722656 290.640625 103.550781 289.773438 104.773438 288.277344 L 136.269531 249.707031 C 138.515625 246.957031 138.109375 242.90625 135.359375 240.660156 Z M 135.359375 240.660156 " fill-opacity="1" fill-rule="nonzero"/><path fill="#ff671b" d="M 259.859375 245.640625 L 157.007812 245.640625 C 153.457031 245.640625 150.578125 248.519531 150.578125 252.070312 C 150.578125 255.617188 153.457031 258.496094 157.007812 258.496094 L 259.859375 258.496094 C 263.410156 258.496094 266.289062 255.617188 266.289062 252.070312 C 266.289062 248.519531 263.410156 245.640625 259.859375 245.640625 Z M 259.859375 245.640625 " fill-opacity="1" fill-rule="nonzero"/><path fill="#ff671b" d="M 195.578125 271.351562 L 157.007812 271.351562 C 153.457031 271.351562 150.578125 274.230469 150.578125 277.78125 C 150.578125 281.332031 153.457031 284.210938 157.007812 284.210938 L 195.578125 284.210938 C 199.125 284.210938 202.003906 281.332031 202.003906 277.78125 C 202.003906 274.234375 199.125 271.351562 195.578125 271.351562 Z M 195.578125 271.351562 " fill-opacity="1" fill-rule="nonzero"/><path fill="#ff671b" d="M 232.261719 298.949219 C 231.066406 297.753906 229.410156 297.066406 227.71875 297.066406 C 226.027344 297.066406 224.371094 297.753906 223.171875 298.949219 C 221.976562 300.148438 221.289062 301.804688 221.289062 303.496094 C 221.289062 305.1875 221.976562 306.84375 223.171875 308.039062 C 224.371094 309.234375 226.027344 309.921875 227.71875 309.921875 C 229.410156 309.921875 231.066406 309.234375 232.261719 308.039062 C 233.457031 306.84375 234.148438 305.1875 234.148438 303.496094 C 234.148438 301.804688 233.457031 300.144531 232.261719 298.949219 Z M 232.261719 298.949219 " fill-opacity="1" fill-rule="nonzero"/></svg>