<?xml version="1.0" encoding="iso-8859-1"?>
<!-- Generator: Adobe Illustrator 19.0.0, SVG Export Plug-In . SVG Version: 6.00 Build 0)  -->
<svg xmlns="http://www.w3.org/2000/svg" xmlns:xlink="http://www.w3.org/1999/xlink" version="1.1" id="Capa_1" x="0px" y="0px" viewBox="0 0 512 512" style="enable-background:new 0 0 512 512;" xml:space="preserve" width="512px" height="512px">
<g>
	<g>
		<path d="M433.231,39.385h-68.923v-9.846c0-5.437-4.409-9.846-9.846-9.846h-59.091C286.139,7.419,271.533,0,256,0    s-30.139,7.419-39.371,19.692h-59.091c-5.437,0-9.846,4.409-9.846,9.846v9.846H78.769c-5.437,0-9.846,4.409-9.846,9.846v452.923    c0,5.437,4.409,9.846,9.846,9.846h354.462c5.437,0,9.846-4.409,9.846-9.846V49.231C443.077,43.794,438.668,39.385,433.231,39.385z     M167.385,39.385h54.513c3.514,0,6.762-1.873,8.522-4.915c5.275-9.115,15.076-14.777,25.58-14.777    c10.504,0,20.306,5.663,25.579,14.777c1.759,3.042,5.008,4.915,8.522,4.915h54.514v39.385H167.385V39.385z M423.385,452.923    h-49.231c-5.437,0-9.846,4.409-9.846,9.846s4.409,9.846,9.846,9.846h49.231v19.692H88.615V59.077h59.077v29.538    c0,5.437,4.409,9.846,9.846,9.846h196.923c5.437,0,9.846-4.409,9.846-9.846V59.077h59.077V452.923z" fill="#00aeef"/>
	</g>
</g>
<g>
	<g>
		<path d="M203.151,130.22c-4.212-3.439-10.414-2.814-13.854,1.398l-40.418,49.492l-22.943-29.602    c-3.331-4.298-9.516-5.083-13.814-1.751c-4.298,3.331-5.082,9.516-1.751,13.814l30.523,39.385    c1.838,2.371,4.656,3.775,7.656,3.813c0.042,0,0.085,0,0.126,0c2.954,0,5.755-1.327,7.626-3.618l48.246-59.077    C207.988,139.863,207.363,133.66,203.151,130.22z" fill="#00aeef"/>
	</g>
</g>
<g>
	<g>
		<path d="M393.846,137.846H236.308c-5.437,0-9.846,4.409-9.846,9.846c0,5.437,4.409,9.846,9.846,9.846h157.538    c5.437,0,9.846-4.409,9.846-9.846C403.692,142.255,399.283,137.846,393.846,137.846z" fill="#00aeef"/>
	</g>
</g>
<g>
	<g>
		<path d="M295.385,177.231h-59.077c-5.437,0-9.846,4.409-9.846,9.846c0,5.437,4.409,9.846,9.846,9.846h59.077    c5.437,0,9.846-4.409,9.846-9.846C305.231,181.64,300.822,177.231,295.385,177.231z" fill="#00aeef"/>
	</g>
</g>
<g>
	<g>
		<path d="M203.151,248.374c-4.212-3.439-10.414-2.814-13.854,1.398l-40.418,49.492l-22.943-29.602    c-3.331-4.298-9.516-5.083-13.814-1.751c-4.298,3.331-5.082,9.516-1.751,13.814l30.523,39.385    c1.838,2.371,4.656,3.775,7.656,3.813c0.042,0,0.085,0,0.126,0c2.954,0,5.755-1.327,7.626-3.618l48.246-59.077    C207.988,258.016,207.363,251.813,203.151,248.374z" fill="#00aeef"/>
	</g>
</g>
<g>
	<g>
		<path d="M393.846,256H236.308c-5.437,0-9.846,4.409-9.846,9.846c0,5.437,4.409,9.846,9.846,9.846h157.538    c5.437,0,9.846-4.409,9.846-9.846C403.692,260.409,399.283,256,393.846,256z" fill="#00aeef"/>
	</g>
</g>
<g>
	<g>
		<path d="M295.385,295.385h-59.077c-5.437,0-9.846,4.409-9.846,9.846s4.409,9.846,9.846,9.846h59.077    c5.437,0,9.846-4.409,9.846-9.846S300.822,295.385,295.385,295.385z" fill="#00aeef"/>
	</g>
</g>
<g>
	<g>
		<path d="M203.151,366.528c-4.212-3.439-10.414-2.814-13.854,1.398l-40.418,49.492l-22.943-29.602    c-3.331-4.298-9.516-5.083-13.814-1.751c-4.298,3.331-5.082,9.516-1.751,13.814l30.523,39.385    c1.838,2.371,4.656,3.775,7.656,3.813c0.042,0,0.085,0,0.126,0c2.954,0,5.755-1.327,7.626-3.618l48.246-59.077    C207.988,376.17,207.363,369.967,203.151,366.528z" fill="#00aeef"/>
	</g>
</g>
<g>
	<g>
		<path d="M393.846,374.154H236.308c-5.437,0-9.846,4.409-9.846,9.846s4.409,9.846,9.846,9.846h157.538    c5.437,0,9.846-4.409,9.846-9.846S399.283,374.154,393.846,374.154z" fill="#00aeef"/>
	</g>
</g>
<g>
	<g>
		<path d="M295.385,413.538h-59.077c-5.437,0-9.846,4.409-9.846,9.846c0,5.437,4.409,9.846,9.846,9.846h59.077    c5.437,0,9.846-4.409,9.846-9.846C305.231,417.948,300.822,413.538,295.385,413.538z" fill="#00aeef"/>
	</g>
</g>
<g>
	<g>
		<path d="M351.576,455.808c-1.83-1.832-4.371-2.885-6.96-2.885c-2.59,0-5.13,1.053-6.961,2.885    c-1.831,1.832-2.885,4.372-2.885,6.961s1.053,5.13,2.885,6.96c1.831,1.831,4.372,2.886,6.961,2.886c2.59,0,5.13-1.054,6.96-2.886    c1.832-1.83,2.886-4.371,2.886-6.96S353.408,457.639,351.576,455.808z" fill="#00aeef"/>
	</g>
</g>
<g>
</g>
<g>
</g>
<g>
</g>
<g>
</g>
<g>
</g>
<g>
</g>
<g>
</g>
<g>
</g>
<g>
</g>
<g>
</g>
<g>
</g>
<g>
</g>
<g>
</g>
<g>
</g>
<g>
</g>
</svg>
