<svg xmlns="http://www.w3.org/2000/svg" xmlns:xlink="http://www.w3.org/1999/xlink" width="450" zoomAndPan="magnify" viewBox="0 0 337.5 337.500003" height="450" preserveAspectRatio="xMidYMid meet" version="1.0"><defs><clipPath id="fceaa9a707"><path d="M 230 110 L 333.605469 110 L 333.605469 333 L 230 333 Z M 230 110 " clip-rule="nonzero"/></clipPath><clipPath id="0ee5f8d225"><path d="M 3.34375 139 L 107 139 L 107 333 L 3.34375 333 Z M 3.34375 139 " clip-rule="nonzero"/></clipPath></defs><g clip-path="url(#fceaa9a707)"><path fill="#ff671b" d="M 325.601562 214.769531 L 322.359375 214.769531 L 322.359375 200.539062 C 335.183594 187.558594 333.722656 164.40625 333.480469 161.46875 L 333.480469 137.222656 C 333.480469 129.417969 327.128906 123.066406 319.324219 123.066406 L 318.78125 123.066406 C 316.3125 123.066406 313.988281 123.703125 311.964844 124.816406 C 309.371094 121.558594 305.367188 119.464844 300.886719 119.464844 L 300.34375 119.464844 C 297.953125 119.464844 295.679688 120.050781 293.683594 121.109375 C 291.085938 118.027344 287.195312 116.0625 282.855469 116.0625 L 282.308594 116.0625 C 280.332031 116.0625 278.425781 116.472656 276.691406 117.21875 C 274.15625 113.382812 269.804688 110.84375 264.871094 110.84375 L 264.324219 110.84375 C 256.519531 110.84375 250.167969 117.195312 250.167969 125 L 250.167969 138.644531 C 244.484375 138.035156 240.039062 139.121094 236.679688 141.933594 C 229.394531 148.03125 230.128906 160.132812 230.835938 171.835938 C 231.804688 187.808594 246.046875 201.210938 251.53125 205.808594 L 251.53125 214.769531 L 248.800781 214.769531 C 245.921875 214.769531 243.589844 217.101562 243.589844 219.980469 L 243.589844 327.152344 C 243.589844 330.03125 245.921875 332.363281 248.800781 332.363281 L 325.601562 332.363281 C 328.480469 332.363281 330.8125 330.03125 330.8125 327.152344 L 330.8125 219.980469 C 330.8125 217.105469 328.480469 214.769531 325.601562 214.769531 Z M 241.238281 171.203125 C 240.738281 162.9375 240.113281 152.648438 243.367188 149.925781 C 244.578125 148.914062 246.945312 148.652344 250.167969 149.15625 L 250.167969 156.234375 C 250.167969 159.113281 252.5 161.445312 255.378906 161.445312 C 258.257812 161.445312 260.589844 159.113281 260.589844 156.234375 L 260.589844 125.003906 C 260.589844 122.941406 262.265625 121.265625 264.324219 121.265625 L 264.867188 121.265625 C 266.929688 121.265625 268.605469 122.941406 268.605469 125.003906 L 268.605469 145.121094 C 268.605469 148 270.9375 150.332031 273.816406 150.332031 C 276.695312 150.332031 279.027344 148 279.027344 145.121094 L 279.027344 128.453125 C 279.667969 127.257812 280.917969 126.488281 282.308594 126.488281 L 282.851562 126.488281 C 284.914062 126.488281 286.589844 128.164062 286.589844 130.222656 L 286.589844 145.121094 C 286.589844 148 288.921875 150.332031 291.800781 150.332031 C 294.679688 150.332031 297.011719 148 297.011719 145.121094 L 297.011719 131.929688 C 297.636719 130.6875 298.910156 129.890625 300.34375 129.890625 L 300.886719 129.890625 C 302.945312 129.890625 304.621094 131.566406 304.621094 133.625 L 304.621094 147.679688 C 304.621094 150.558594 306.953125 152.890625 309.832031 152.890625 C 312.710938 152.890625 315.042969 150.558594 315.042969 147.679688 L 315.042969 137.226562 C 315.042969 135.167969 316.71875 133.492188 318.777344 133.492188 L 319.324219 133.492188 C 321.382812 133.492188 323.058594 135.167969 323.058594 137.226562 L 323.058594 161.699219 C 323.058594 161.867188 323.066406 162.035156 323.082031 162.199219 C 323.683594 168.429688 323.183594 186.335938 313.78125 194.296875 C 312.609375 195.285156 311.9375 196.742188 311.9375 198.273438 L 311.9375 214.773438 L 261.953125 214.773438 L 261.953125 203.3125 C 261.953125 201.664062 261.171875 200.109375 259.851562 199.128906 C 259.675781 198.996094 242.121094 185.734375 241.238281 171.203125 Z M 320.390625 321.941406 L 254.007812 321.941406 L 254.007812 251.996094 L 320.390625 251.996094 Z M 320.390625 241.574219 L 254.007812 241.574219 L 254.007812 225.191406 L 320.390625 225.191406 Z M 320.390625 241.574219 " fill-opacity="1" fill-rule="nonzero"/></g><path fill="#ff671b" d="M 224.714844 89.390625 L 248.554688 99.457031 C 250.273438 100.183594 252.082031 100.546875 253.894531 100.546875 C 255.644531 100.546875 257.394531 100.210938 259.058594 99.53125 C 262.460938 98.152344 265.117188 95.53125 266.542969 92.152344 L 269.441406 85.289062 C 270.867188 81.910156 270.894531 78.175781 269.515625 74.78125 C 268.136719 71.382812 265.515625 68.726562 262.128906 67.296875 L 233.832031 55.402344 L 235.140625 50.671875 C 235.15625 50.609375 235.171875 50.546875 235.1875 50.484375 C 236.058594 46.804688 235.449219 43.007812 233.464844 39.789062 C 231.480469 36.570312 228.363281 34.316406 224.6875 33.441406 L 224.152344 33.316406 C 221.75 32.746094 219.34375 32.824219 217.117188 33.445312 C 215.347656 29.671875 211.9375 26.710938 207.574219 25.675781 L 207.046875 25.550781 C 204.726562 24.996094 202.382812 25.042969 200.195312 25.613281 C 200.011719 25.25 199.8125 24.894531 199.601562 24.546875 C 197.617188 21.328125 194.496094 19.074219 190.820312 18.203125 L 190.289062 18.074219 C 188.367188 17.617188 186.421875 17.574219 184.566406 17.902344 C 184.238281 17.007812 183.820312 16.144531 183.308594 15.3125 C 181.324219 12.09375 178.207031 9.839844 174.519531 8.964844 L 174 8.839844 C 170.316406 7.96875 166.519531 8.578125 163.300781 10.5625 C 160.105469 12.53125 157.859375 15.617188 156.972656 19.261719 L 156.046875 22.707031 L 119.351562 7.289062 C 119.335938 7.28125 119.316406 7.277344 119.296875 7.269531 C 119.199219 7.230469 119.097656 7.195312 119 7.160156 C 118.933594 7.136719 118.867188 7.113281 118.800781 7.09375 C 118.714844 7.070312 118.628906 7.050781 118.539062 7.027344 C 118.453125 7.007812 118.367188 6.988281 118.28125 6.972656 C 118.210938 6.960938 118.140625 6.949219 118.070312 6.9375 C 117.960938 6.921875 117.855469 6.910156 117.75 6.902344 C 117.722656 6.902344 117.695312 6.894531 117.667969 6.894531 L 82.777344 4.644531 C 80.582031 4.5 78.570312 5.734375 77.683594 7.726562 C 76.796875 9.71875 77.242188 12.050781 78.800781 13.574219 L 103.328125 37.53125 C 103.335938 37.539062 103.34375 37.546875 103.351562 37.554688 L 103.367188 37.566406 C 103.378906 37.578125 103.394531 37.589844 103.410156 37.605469 C 103.511719 37.703125 103.617188 37.796875 103.726562 37.886719 C 103.78125 37.929688 103.835938 37.96875 103.890625 38.007812 C 103.949219 38.054688 104.007812 38.101562 104.070312 38.140625 C 104.085938 38.152344 104.101562 38.160156 104.117188 38.171875 C 104.207031 38.230469 104.296875 38.285156 104.390625 38.335938 C 105.054688 38.761719 105.75 39.144531 106.472656 39.453125 L 128.789062 48.875 C 127.144531 53.707031 126.136719 59.449219 125.238281 64.617188 C 122.390625 80.953125 134.046875 97.898438 137.964844 103.035156 L 137.984375 126.726562 L 133.644531 126.726562 C 130.765625 126.726562 128.433594 129.058594 128.433594 131.9375 L 128.433594 327.152344 C 128.433594 330.03125 130.765625 332.363281 133.644531 332.363281 L 210.449219 332.363281 C 213.328125 332.363281 215.660156 330.03125 215.660156 327.152344 L 215.660156 196.757812 C 215.660156 193.878906 213.328125 191.546875 210.449219 191.546875 C 207.570312 191.546875 205.238281 193.878906 205.238281 196.757812 L 205.238281 321.941406 L 138.855469 321.941406 L 138.855469 163.957031 L 205.238281 163.957031 L 205.238281 178.429688 C 205.238281 181.308594 207.570312 183.640625 210.449219 183.640625 C 213.328125 183.640625 215.660156 181.308594 215.660156 178.429688 L 215.660156 131.9375 C 215.660156 129.058594 213.328125 126.726562 210.449219 126.726562 L 208.261719 126.726562 L 208.308594 113.265625 C 217.109375 107.4375 222.050781 97.3125 224.714844 89.390625 Z M 252.367188 74.5 L 258.082031 76.902344 C 258.898438 77.242188 259.527344 77.882812 259.859375 78.703125 C 260.191406 79.519531 260.1875 80.417969 259.84375 81.230469 L 256.941406 88.097656 C 256.597656 88.914062 255.960938 89.542969 255.140625 89.875 C 254.324219 90.207031 253.421875 90.203125 252.609375 89.859375 L 246.515625 87.285156 Z M 227.488281 78.34375 L 231.03125 65.53125 L 242.753906 70.457031 L 236.910156 83.226562 L 227.347656 79.191406 C 227.410156 78.835938 227.453125 78.550781 227.488281 78.34375 Z M 105.429688 25.011719 L 96.148438 15.949219 L 109.328125 16.800781 Z M 113.976562 31.304688 L 119.90625 18.824219 L 153.3125 32.867188 L 149.675781 46.382812 Z M 205.238281 153.535156 L 138.855469 153.535156 L 138.855469 137.148438 L 205.238281 137.148438 Z M 200.75 105.628906 C 199.007812 106.515625 197.902344 108.300781 197.898438 110.257812 L 197.839844 126.191406 L 148.402344 126.191406 L 148.382812 101.222656 C 148.382812 100 147.949219 98.8125 147.164062 97.875 C 147.023438 97.703125 133.003906 80.746094 135.503906 66.410156 C 136.292969 61.886719 137.167969 56.882812 138.417969 52.941406 L 147.839844 56.921875 C 148.410156 58.449219 149.675781 59.6875 151.367188 60.140625 C 154.140625 60.886719 157.007812 59.242188 157.753906 56.464844 L 167.054688 21.90625 C 167.070312 21.855469 167.082031 21.804688 167.09375 21.757812 C 167.324219 20.785156 167.917969 19.960938 168.765625 19.4375 C 169.617188 18.914062 170.617188 18.753906 171.597656 18.988281 L 172.117188 19.109375 C 173.089844 19.339844 173.910156 19.933594 174.4375 20.785156 C 174.960938 21.636719 175.121094 22.636719 174.890625 23.609375 L 174.359375 25.839844 L 168.222656 47.109375 C 167.421875 49.875 169.015625 52.761719 171.78125 53.558594 C 172.265625 53.699219 172.753906 53.765625 173.230469 53.765625 C 175.492188 53.765625 177.574219 52.28125 178.234375 50 L 184.164062 29.449219 C 185.0625 28.378906 186.492188 27.886719 187.875 28.21875 L 188.40625 28.34375 C 189.378906 28.574219 190.203125 29.167969 190.726562 30.019531 C 191.238281 30.855469 191.398438 31.835938 191.1875 32.792969 L 185.726562 51.230469 C 184.910156 53.988281 186.484375 56.890625 189.246094 57.707031 C 189.738281 57.851562 190.238281 57.921875 190.726562 57.921875 C 192.976562 57.921875 195.050781 56.457031 195.71875 54.1875 L 200.773438 37.121094 C 201.65625 35.917969 203.160156 35.339844 204.640625 35.695312 L 205.167969 35.820312 C 207.171875 36.296875 208.414062 38.3125 207.9375 40.316406 L 207.148438 43.644531 L 202.707031 57.804688 C 201.84375 60.550781 203.371094 63.472656 206.117188 64.335938 C 206.636719 64.496094 207.164062 64.574219 207.679688 64.574219 C 209.894531 64.574219 211.949219 63.148438 212.648438 60.921875 L 217.148438 46.585938 C 217.167969 46.523438 217.179688 46.460938 217.195312 46.398438 C 217.210938 46.339844 217.230469 46.289062 217.246094 46.230469 C 217.722656 44.226562 219.738281 42.984375 221.738281 43.460938 L 222.273438 43.585938 C 224.253906 44.058594 225.488281 46.03125 225.0625 48.011719 L 217.355469 75.875 C 217.292969 76.09375 217.246094 76.324219 217.214844 76.546875 C 217.183594 76.765625 213.917969 98.953125 200.75 105.628906 Z M 200.75 105.628906 " fill-opacity="1" fill-rule="nonzero"/><g clip-path="url(#0ee5f8d225)"><path fill="#ff671b" d="M 106.417969 190.207031 L 106.417969 165.964844 C 106.417969 158.15625 100.066406 151.804688 92.261719 151.804688 L 91.71875 151.804688 C 89.25 151.804688 86.925781 152.441406 84.902344 153.558594 C 82.308594 150.296875 78.304688 148.203125 73.824219 148.203125 L 73.28125 148.203125 C 70.890625 148.203125 68.617188 148.792969 66.621094 149.851562 C 64.019531 146.765625 60.128906 144.800781 55.789062 144.800781 L 55.246094 144.800781 C 53.265625 144.800781 51.363281 145.210938 49.628906 145.957031 C 47.09375 142.121094 42.742188 139.582031 37.808594 139.582031 L 37.261719 139.582031 C 29.457031 139.582031 23.105469 145.933594 23.105469 153.742188 L 23.105469 167.382812 C 17.417969 166.769531 12.980469 167.859375 9.617188 170.671875 C 2.332031 176.769531 3.066406 188.871094 3.773438 200.574219 C 4.742188 216.546875 18.980469 229.949219 24.46875 234.546875 L 24.46875 243.507812 L 21.734375 243.507812 C 18.855469 243.507812 16.523438 245.839844 16.523438 248.71875 L 16.523438 327.152344 C 16.523438 330.03125 18.855469 332.363281 21.734375 332.363281 L 98.539062 332.363281 C 101.417969 332.363281 103.75 330.03125 103.75 327.152344 L 103.75 248.71875 C 103.75 245.839844 101.417969 243.507812 98.539062 243.507812 L 95.296875 243.507812 L 95.296875 229.277344 C 108.121094 216.300781 106.660156 193.144531 106.417969 190.207031 Z M 93.328125 321.941406 L 26.945312 321.941406 L 26.945312 280.734375 L 93.328125 280.734375 Z M 93.328125 270.316406 L 26.945312 270.316406 L 26.945312 253.929688 L 93.328125 253.929688 Z M 86.71875 223.03125 C 85.546875 224.019531 84.875 225.476562 84.875 227.007812 L 84.875 243.511719 L 34.886719 243.511719 L 34.886719 232.042969 C 34.886719 230.394531 34.105469 228.84375 32.785156 227.859375 C 27.855469 224.203125 14.910156 212.0625 14.175781 199.941406 C 13.671875 191.675781 13.050781 181.386719 16.304688 178.664062 C 17.511719 177.652344 19.886719 177.394531 23.105469 177.894531 L 23.105469 184.972656 C 23.105469 187.851562 25.4375 190.183594 28.316406 190.183594 C 31.195312 190.183594 33.527344 187.851562 33.527344 184.972656 L 33.527344 153.738281 C 33.527344 151.679688 35.203125 150.003906 37.261719 150.003906 L 37.804688 150.003906 C 39.867188 150.003906 41.542969 151.679688 41.542969 153.738281 L 41.542969 173.855469 C 41.542969 176.734375 43.875 179.066406 46.753906 179.066406 C 49.632812 179.066406 51.964844 176.734375 51.964844 173.855469 L 51.964844 157.1875 C 52.605469 155.992188 53.851562 155.222656 55.246094 155.222656 L 55.789062 155.222656 C 57.847656 155.222656 59.523438 156.898438 59.523438 158.957031 L 59.523438 173.855469 C 59.523438 176.734375 61.859375 179.066406 64.734375 179.066406 C 67.613281 179.066406 69.945312 176.734375 69.945312 173.855469 L 69.945312 160.667969 C 70.574219 159.425781 71.84375 158.625 73.277344 158.625 L 73.820312 158.625 C 75.882812 158.625 77.558594 160.300781 77.558594 162.359375 L 77.558594 176.414062 C 77.558594 179.292969 79.890625 181.625 82.769531 181.625 C 85.648438 181.625 87.980469 179.292969 87.980469 176.414062 L 87.980469 165.964844 C 87.980469 163.902344 89.65625 162.226562 91.714844 162.226562 L 92.257812 162.226562 C 94.320312 162.226562 95.996094 163.902344 95.996094 165.964844 L 95.996094 190.433594 C 95.996094 190.601562 96.003906 190.769531 96.019531 190.933594 C 96.621094 197.164062 96.121094 215.070312 86.71875 223.03125 Z M 86.71875 223.03125 " fill-opacity="1" fill-rule="nonzero"/></g></svg>