<?xml version="1.0" encoding="iso-8859-1"?>
<!-- Generator: Adobe Illustrator 19.0.0, SVG Export Plug-In . SVG Version: 6.00 Build 0)  -->
<svg xmlns="http://www.w3.org/2000/svg" xmlns:xlink="http://www.w3.org/1999/xlink" version="1.1" id="Layer_1" x="0px" y="0px" viewBox="0 0 511.999 511.999" style="enable-background:new 0 0 511.999 511.999;" xml:space="preserve" width="512px" height="512px">
<g>
	<g>
		<g>
			<path d="M499.517,327.723h-5.025v-22.061c19.878-20.116,17.616-56.008,17.24-60.56v-37.581c0-12.1-9.845-21.944-21.943-21.944     h-0.843c-3.826,0-7.428,0.984-10.563,2.713c-4.024-5.052-10.227-8.298-17.173-8.298h-0.843c-3.705,0-7.227,0.91-10.324,2.552     c-4.028-4.781-10.059-7.824-16.786-7.824h-0.843c-3.068,0-6.018,0.633-8.708,1.794c-3.929-5.95-10.677-9.884-18.326-9.884h-0.843     c-12.099,0-21.943,9.845-21.943,21.945v21.147c-8.814-0.945-15.701,0.737-20.909,5.097c-11.294,9.453-10.158,28.21-9.058,46.351     c1.501,24.76,23.574,45.534,32.08,52.662v13.89h-4.237c-4.462,0-8.077,3.615-8.077,8.077v41.549v124.573     c0,4.462,3.615,8.077,8.077,8.077h119.049c4.462,0,8.077-3.615,8.077-8.077V377.349V335.8     C507.595,331.34,503.979,327.723,499.517,327.723z M368.751,260.193c-0.778-12.814-1.744-28.763,3.301-32.984     c1.874-1.57,5.547-1.971,10.541-1.19v10.971c0,4.462,3.615,8.077,8.077,8.077s8.077-3.615,8.077-8.077v-48.413     c0-3.193,2.597-5.791,5.789-5.791h0.843c3.193,0,5.791,2.598,5.791,5.791v3.747v27.436c0,4.462,3.615,8.077,8.077,8.077     s8.077-3.615,8.077-8.077v-25.835c0.995-1.853,2.93-3.047,5.089-3.047h0.843c3.193,0,5.791,2.598,5.791,5.791v1.141v21.952     c0,4.462,3.615,8.077,8.077,8.077s8.077-3.615,8.077-8.077v-20.446c0.971-1.925,2.942-3.164,5.164-3.164h0.843     c3.192,0,5.789,2.598,5.789,5.79v5.586v16.199c0,4.462,3.615,8.077,8.077,8.077c4.461,0,8.077-3.615,8.077-8.077v-16.199     c0-3.192,2.599-5.79,5.793-5.79h0.843c3.192,0,5.789,2.598,5.789,5.79v37.934c0,0.258,0.013,0.517,0.037,0.775     c0.932,9.655,0.156,37.413-14.418,49.75c-1.814,1.535-2.858,3.789-2.858,6.166v25.578h-77.478v-17.77     c0-2.555-1.213-4.961-3.255-6.484C397.329,303.27,370.116,282.715,368.751,260.193z M491.44,493.846H388.545V385.427H491.44     V493.846z M491.44,369.273H388.545v-25.395h4.237h93.633h5.025V369.273z" fill="#00aeef"/>
			<path d="M343.138,133.376l36.952,15.606c2.664,1.125,5.471,1.688,8.278,1.688c2.711,0,5.423-0.524,8.008-1.575     c5.268-2.139,9.387-6.202,11.597-11.437l4.495-10.642c2.212-5.236,2.252-11.021,0.113-16.288     c-2.139-5.267-6.201-9.385-11.449-11.6l-43.864-18.436l2.028-7.333c0.026-0.096,0.052-0.192,0.073-0.288     c1.355-5.704,0.407-11.592-2.668-16.581c-3.075-4.991-7.909-8.484-13.605-9.837l-0.828-0.197     c-3.725-0.885-7.454-0.759-10.904,0.2c-2.747-5.847-8.033-10.437-14.793-12.044l-0.817-0.194     c-3.6-0.855-7.235-0.784-10.623,0.096c-0.283-0.56-0.591-1.109-0.923-1.649c-3.076-4.991-7.91-8.484-13.606-9.837l-0.827-0.197     c-2.98-0.709-5.992-0.778-8.871-0.268c-0.507-1.384-1.157-2.726-1.948-4.01c-3.075-4.991-7.909-8.485-13.624-9.842l-0.808-0.191     c-5.705-1.355-11.594-0.407-16.583,2.668c-4.953,3.052-8.431,7.836-9.806,13.484l-1.438,5.342L179.82,6.113     c-0.029-0.013-0.059-0.02-0.088-0.032c-0.152-0.061-0.306-0.114-0.461-0.167c-0.103-0.034-0.206-0.071-0.309-0.101     c-0.132-0.039-0.266-0.07-0.401-0.103c-0.135-0.031-0.269-0.064-0.405-0.088c-0.108-0.02-0.216-0.034-0.326-0.051     c-0.165-0.025-0.331-0.044-0.495-0.057c-0.042-0.003-0.083-0.012-0.125-0.015l-54.084-3.483     c-3.403-0.227-6.524,1.689-7.898,4.775c-1.374,3.087-0.683,6.703,1.735,9.064l38.019,37.133c0.013,0.013,0.025,0.024,0.037,0.037     l0.019,0.018c0.022,0.023,0.046,0.04,0.069,0.061c0.157,0.151,0.322,0.297,0.493,0.436c0.083,0.068,0.169,0.127,0.254,0.192     c0.092,0.068,0.179,0.14,0.274,0.205c0.024,0.017,0.051,0.029,0.075,0.046c0.138,0.093,0.28,0.176,0.423,0.258     c1.03,0.66,2.107,1.253,3.23,1.726l34.59,14.608c-2.551,7.49-4.108,16.388-5.503,24.402     c-4.414,25.322,13.653,51.584,19.726,59.551l0.028,36.724h-6.724c-4.462,0-8.077,3.615-8.077,8.077v41.551v261.045     c0,4.462,3.615,8.077,8.077,8.077h119.05c4.462,0,8.077-3.615,8.077-8.077V299.801c0-4.462-3.615-8.077-8.077-8.077     s-8.077,3.615-8.077,8.077v194.046H210.051v-244.89h102.895v13.464v8.974c0,4.462,3.615,8.077,8.077,8.077     s8.077-3.616,8.077-8.077v-8.974V240.88v-41.551c0-4.462-3.615-8.078-8.077-8.078h-3.387l0.073-20.866     C331.351,161.349,339.009,145.654,343.138,133.376z M386.001,110.294l8.86,3.723c1.261,0.531,2.239,1.523,2.754,2.79     c0.516,1.269,0.506,2.662-0.027,3.923l-4.495,10.644c-0.532,1.261-1.524,2.239-2.793,2.754c-1.268,0.516-2.662,0.506-3.923-0.027     l-9.446-3.989L386.001,110.294z M347.434,116.253l5.494-19.86l18.173,7.637l-9.058,19.794l-14.826-6.26     C347.313,117.018,347.384,116.575,347.434,116.253z M158.235,33.586l-14.382-14.047l20.429,1.316L158.235,33.586z      M171.486,43.342l9.189-19.346l51.784,21.763l-5.639,20.951L171.486,43.342z M312.945,232.803H210.051v-25.396h102.895V232.803z      M305.992,158.548c-2.704,1.372-4.413,4.143-4.423,7.176l-0.087,24.697h-76.634l-0.029-38.707     c-0.001-1.892-0.674-3.733-1.889-5.185c-0.218-0.266-21.948-26.552-18.073-48.777c1.222-7.009,2.576-14.763,4.516-20.873     l14.606,6.17c0.88,2.363,2.845,4.283,5.466,4.989c4.3,1.157,8.74-1.393,9.898-5.7l14.417-53.566     c0.022-0.078,0.041-0.156,0.059-0.234c0.358-1.503,1.278-2.78,2.596-3.592c1.316-0.811,2.868-1.06,4.386-0.7l0.809,0.191     c1.503,0.358,2.78,1.279,3.592,2.597c0.811,1.317,1.061,2.87,0.702,4.378l-0.82,3.455l-9.515,32.968     c-1.237,4.287,1.234,8.764,5.521,10.001c0.748,0.215,1.502,0.319,2.244,0.319c3.507,0,6.735-2.303,7.756-5.839l9.194-31.856     c1.391-1.657,3.604-2.419,5.749-1.907l0.827,0.197c1.506,0.358,2.781,1.279,3.593,2.597c0.796,1.293,1.045,2.815,0.714,4.298     l-8.462,28.58c-1.266,4.278,1.175,8.772,5.453,10.037c0.765,0.226,1.537,0.335,2.296,0.335c3.485,0,6.702-2.273,7.741-5.787     l7.833-26.458c1.367-1.865,3.696-2.758,5.992-2.21l0.817,0.194c3.106,0.739,5.034,3.865,4.295,6.973l-1.223,5.157l-6.887,21.948     c-1.335,4.256,1.033,8.789,5.289,10.125c0.805,0.252,1.619,0.373,2.42,0.373c3.436,0,6.621-2.21,7.705-5.662l6.973-22.223     c0.03-0.098,0.049-0.196,0.075-0.294c0.025-0.086,0.055-0.169,0.075-0.257c0.738-3.106,3.864-5.035,6.966-4.296l0.828,0.197     c3.068,0.729,4.985,3.789,4.321,6.857l-11.946,43.194c-0.094,0.337-0.166,0.693-0.214,1.038     C331.466,113.808,326.401,148.199,305.992,158.548z" fill="#00aeef"/>
			<path d="M159.77,289.647V252.07c0-12.101-9.845-21.945-21.945-21.945h-0.843c-3.826,0-7.427,0.984-10.562,2.713     c-4.024-5.053-10.228-8.298-17.174-8.298h-0.843c-3.704,0-7.225,0.911-10.322,2.554c-4.029-4.783-10.06-7.826-16.788-7.826     h-0.843c-3.067,0-6.017,0.633-8.706,1.793c-3.929-5.949-10.677-9.883-18.326-9.883h-0.843c-12.101,0-21.945,9.845-21.945,21.945     v21.148c-8.816-0.951-15.697,0.737-20.907,5.096c-11.294,9.451-10.158,28.21-9.058,46.352     c1.501,24.76,23.572,45.534,32.078,52.662v13.89h-4.237c-4.462,0-8.077,3.615-8.077,8.077v41.551v80.026     c0,4.462,3.615,8.077,8.077,8.077h119.051c4.462,0,8.077-3.615,8.077-8.077v-80.026v-41.551c0-4.462-3.615-8.077-8.077-8.077     h-5.025v-22.061C162.408,330.094,160.146,294.2,159.77,289.647z M139.478,493.846H36.581v-63.872h102.897V493.846z      M139.478,413.821H36.581v-25.396h4.236h93.635h5.026V413.821z M129.234,340.528c-1.814,1.535-2.858,3.789-2.858,6.166v25.578     H48.894v-0.001V354.5c0-2.557-1.211-4.963-3.263-6.485c-7.637-5.668-27.705-24.488-28.843-43.275     c-0.778-12.814-1.744-28.764,3.301-32.985c1.872-1.568,5.55-1.969,10.539-1.19v10.971c0,4.462,3.615,8.077,8.077,8.077     c4.462,0,8.077-3.615,8.077-8.077V233.12c0-3.193,2.598-5.791,5.791-5.791h0.844c3.193,0,5.791,2.598,5.791,5.791v3.747v27.436     c0,4.462,3.615,8.077,8.077,8.077c4.462,0,8.077-3.615,8.077-8.077v-25.835c0.996-1.854,2.929-3.048,5.087-3.048h0.843     c3.193,0,5.791,2.598,5.791,5.791v1.143v21.951c0,4.462,3.615,8.077,8.077,8.077c4.462,0,8.077-3.615,8.077-8.077v-20.446     c0.972-1.926,2.942-3.165,5.164-3.165h0.843c3.193,0,5.791,2.598,5.791,5.79v5.587v16.199c0,4.462,3.615,8.077,8.077,8.077     c4.462,0,8.077-3.616,8.077-8.077V252.07c0-3.193,2.598-5.791,5.791-5.791h0.843c3.193,0,5.791,2.598,5.791,5.791v37.932     c0,0.258,0.013,0.517,0.037,0.775C144.584,300.432,143.808,328.191,129.234,340.528z" fill="#00aeef"/>
		</g>
	</g>
</g>
<g>
</g>
<g>
</g>
<g>
</g>
<g>
</g>
<g>
</g>
<g>
</g>
<g>
</g>
<g>
</g>
<g>
</g>
<g>
</g>
<g>
</g>
<g>
</g>
<g>
</g>
<g>
</g>
<g>
</g>
</svg>
