<?xml version="1.0" encoding="iso-8859-1"?>
<!-- Generator: Adobe Illustrator 19.0.0, SVG Export Plug-In . SVG Version: 6.00 Build 0)  -->
<svg xmlns="http://www.w3.org/2000/svg" xmlns:xlink="http://www.w3.org/1999/xlink" version="1.1" id="Layer_1" x="0px" y="0px" viewBox="0 0 512 512" style="enable-background:new 0 0 512 512;" xml:space="preserve" width="512px" height="512px">
<g>
	<g>
		<path d="M286.053,413.045l-73.595-30.664c21.063-3.825,40.496-9.734,56.571-17.247c7.405-3.46,12.15-10.929,12.09-19.03    c-0.745-100.857-14.797-234.94-127.733-234.94S26.398,245.248,25.653,346.104c-0.06,8.099,4.685,15.568,12.09,19.029    c16.076,7.512,35.51,13.422,56.572,17.247l-73.595,30.664C8.133,418.29,0,430.489,0,444.125v34.205    c0,13.851,11.268,25.119,25.119,25.119h256.534c13.851,0,25.119-11.268,25.119-25.119v-34.205    C306.772,430.489,298.639,418.29,286.053,413.045z M265.085,346.224c0.015,1.849-1.102,3.569-2.844,4.384    c-16.202,7.571-36.258,13.409-58.081,16.929V356.68l14.266-7.926c12.224-6.792,20.277-19.16,21.542-33.086l0.031-0.345h7.449    c6.356,0,12.163-2.377,16.592-6.283C264.641,320.798,264.987,333.187,265.085,346.224z M153.386,340.977    c30.692,0,51.696-6.427,65.319-13.21c-2.153,2.811-4.877,5.2-8.066,6.972l-44.535,24.741c-7.963,4.424-17.472,4.424-25.435,0    l-44.534-24.741c-7.582-4.212-12.578-11.884-13.362-20.522l-6.197-68.165c22.402-2.53,86.048-11.097,124.426-30.22    c4.615,8.457,13.706,21.087,29.372,28.303l-5.506,60.565c-6.547,5.79-27.311,20.244-71.48,20.244    c-4.427,0-8.017,3.589-8.017,8.017S148.959,340.977,153.386,340.977z M241.458,299.29l3.207-35.273h2.784    c5.01,0,9.086,4.076,9.086,9.086v17.102c0,5.01-4.076,9.086-9.086,9.086H241.458z M64.935,190.362    c18.102-42.502,47.033-63.164,88.451-63.164s70.349,20.662,88.451,63.165c7.048,16.549,12.462,36.457,16.288,60.009    c-3.242-1.53-6.86-2.388-10.676-2.388h-1.328l0.76-8.36c0.337-3.705-1.92-7.154-5.449-8.331    c-21.373-7.124-29.07-28.946-29.134-29.135c-0.77-2.307-2.543-4.14-4.824-4.983c-2.281-0.843-4.821-0.606-6.906,0.645    c-40.679,24.407-132.498,33.011-133.42,33.095c-4.409,0.401-7.659,4.301-7.258,8.709l0.761,8.359h-1.328    c-3.816,0-7.434,0.859-10.676,2.388C52.473,226.819,57.887,206.912,64.935,190.362z M65.315,299.29h-5.991    c-5.01,0-9.086-4.076-9.086-9.086v-17.102c0-5.01,4.076-9.086,9.086-9.086h2.784L65.315,299.29z M44.532,350.607    c-1.742-0.813-2.859-2.533-2.845-4.384c0.096-13.037,0.444-25.425,1.044-37.184c4.43,3.907,10.237,6.284,16.592,6.284h7.449    l0.031,0.345c1.266,13.927,9.32,26.295,21.544,33.086l14.267,7.925v10.857C80.79,364.016,60.735,358.179,44.532,350.607z     M103.189,396.051c9.391-3.911,15.458-13.012,15.458-23.185v-7.278l14.234,7.908c6.421,3.567,13.462,5.35,20.505,5.35    c7.042,0,14.086-1.784,20.505-5.35l14.234-7.908v7.278c0,10.174,6.067,19.274,15.457,23.186l9.096,3.79    c-26.389,31.481-52.196,42.011-59.316,44.449c-7.151-2.406-32.725-12.754-59.271-44.449L103.189,396.051z M51.307,487.415H25.119    c-5.01,0-9.086-4.076-9.086-9.086v-34.205c0-2.21,0.41-4.348,1.169-6.329l27.486,21.989c4.207,3.365,6.619,8.384,6.619,13.772    V487.415z M239.432,473.557v13.858H67.34v-13.858c0-10.285-4.606-19.867-12.636-26.293l-25.488-20.39l49.431-20.597    c0.025,0.032,0.045,0.067,0.071,0.099c35.487,44.358,71.22,53.7,72.725,54.076c0.638,0.159,1.291,0.239,1.944,0.239    c0.653,0,1.306-0.08,1.944-0.239c1.504-0.376,37.238-9.718,72.725-54.076c0.026-0.032,0.046-0.067,0.071-0.099l49.431,20.597    l-25.488,20.39C244.038,453.69,239.432,463.272,239.432,473.557z M290.739,478.33c0,5.01-4.076,9.086-9.086,9.086h-26.188v-13.858    c0-5.387,2.412-10.407,6.619-13.773l27.486-21.988c0.759,1.981,1.169,4.118,1.169,6.329V478.33z" fill="#00aeef"/>
	</g>
</g>
<g>
	<g>
		<path d="M478.33,8.551H307.307c-18.566,0-33.67,15.105-33.67,33.67v94.063c0,15.805,10.945,29.101,25.653,32.706v35.703    c0,3.242,1.953,6.166,4.949,7.406c0.992,0.41,2.033,0.61,3.067,0.61c2.086,0,4.137-0.815,5.67-2.348l40.406-40.407H478.33    c18.566,0,33.67-15.105,33.67-33.67V42.221C512,23.656,496.895,8.551,478.33,8.551z M495.967,136.284    c0,9.725-7.912,17.637-17.637,17.637H350.063c-2.126,0-4.165,0.844-5.668,2.348l-29.071,29.071v-23.402    c0-4.427-3.589-8.017-8.017-8.017c-9.725,0-17.637-7.912-17.637-17.637V42.221c0-9.725,7.912-17.637,17.637-17.637H478.33    c9.725,0,17.637,7.912,17.637,17.637V136.284z" fill="#00aeef"/>
	</g>
</g>
<g>
	<g>
		<path d="M366.63,80.701c0-16.209-13.186-29.395-29.395-29.395c-16.209,0-29.395,13.186-29.395,29.395v17.102    c0,16.209,13.186,29.395,29.395,29.395c5.197,0,10.08-1.361,14.32-3.738l1.39,1.39c1.565,1.565,3.617,2.348,5.668,2.348    s4.104-0.782,5.668-2.348c3.131-3.131,3.131-8.206,0-11.337l-1.389-1.39c2.376-4.24,3.737-9.123,3.737-14.32V80.701z     M350.597,97.804c0,0.638-0.061,1.261-0.148,1.876l-3.27-3.27c-3.131-3.131-8.207-3.131-11.337,0    c-3.131,3.131-3.131,8.206,0,11.337l3.27,3.27c-0.616,0.088-1.239,0.149-1.877,0.149c-7.368,0-13.361-5.993-13.361-13.361V80.701    c0-7.368,5.993-13.361,13.361-13.361c7.368,0,13.361,5.993,13.361,13.361V97.804z" fill="#00aeef"/>
	</g>
</g>
<g>
	<g>
		<path d="M412.456,43.167c-4.2-1.401-8.74,0.87-10.141,5.071l-25.653,76.96c-1.4,4.2,0.87,8.74,5.071,10.141    c0.841,0.28,1.695,0.414,2.536,0.414c3.356,0,6.484-2.124,7.604-5.483l25.653-76.96C418.926,49.107,416.656,44.568,412.456,43.167    z" fill="#00aeef"/>
	</g>
</g>
<g>
	<g>
		<path d="M477.488,116.979l-17.103-59.858c-0.982-3.441-4.128-5.814-7.708-5.814h-8.551c-3.58,0-6.725,2.373-7.708,5.814    l-17.102,59.858c-1.216,4.257,1.248,8.694,5.506,9.911c4.257,1.216,8.694-1.247,9.911-5.506l3.225-11.288h20.889l3.225,11.289    c1.006,3.521,4.216,5.816,7.705,5.816c0.729,0,1.471-0.1,2.206-0.311C476.238,125.673,478.704,121.236,477.488,116.979z     M442.537,94.063l5.864-20.523l5.864,20.523H442.537z" fill="#00aeef"/>
	</g>
</g>
<g>
</g>
<g>
</g>
<g>
</g>
<g>
</g>
<g>
</g>
<g>
</g>
<g>
</g>
<g>
</g>
<g>
</g>
<g>
</g>
<g>
</g>
<g>
</g>
<g>
</g>
<g>
</g>
<g>
</g>
</svg>
