<svg xmlns="http://www.w3.org/2000/svg" xmlns:xlink="http://www.w3.org/1999/xlink" width="450" zoomAndPan="magnify" viewBox="0 0 337.5 337.500003" height="450" preserveAspectRatio="xMidYMid meet" version="1.0"><defs><clipPath id="16cb5e3100"><path d="M 3.34375 75 L 202 75 L 202 329 L 3.34375 329 Z M 3.34375 75 " clip-rule="nonzero"/></clipPath><clipPath id="0f914c1f5b"><path d="M 179 8 L 333.605469 8 L 333.605469 141 L 179 141 Z M 179 8 " clip-rule="nonzero"/></clipPath></defs><g clip-path="url(#16cb5e3100)"><path fill="#ff671b" d="M 187.886719 269.8125 L 140.410156 250.03125 C 153.996094 247.5625 166.535156 243.75 176.90625 238.90625 C 181.679688 236.671875 184.742188 231.855469 184.703125 226.628906 C 184.222656 161.5625 175.15625 75.0625 102.300781 75.0625 C 29.441406 75.0625 20.375 161.5625 19.894531 226.628906 C 19.855469 231.851562 22.917969 236.671875 27.695312 238.902344 C 38.066406 243.75 50.601562 247.5625 64.191406 250.03125 L 16.710938 269.8125 C 8.59375 273.199219 3.34375 281.066406 3.34375 289.863281 L 3.34375 311.929688 C 3.34375 320.867188 10.613281 328.136719 19.550781 328.136719 L 185.046875 328.136719 C 193.984375 328.136719 201.253906 320.867188 201.253906 311.929688 L 201.253906 289.863281 C 201.253906 281.066406 196.007812 273.199219 187.886719 269.8125 Z M 174.359375 226.707031 C 174.371094 227.898438 173.648438 229.007812 172.523438 229.535156 C 162.074219 234.417969 149.132812 238.183594 135.054688 240.453125 L 135.054688 233.449219 L 144.257812 228.335938 C 152.144531 223.957031 157.339844 215.976562 158.15625 206.992188 L 158.175781 206.769531 L 162.980469 206.769531 C 167.082031 206.769531 170.828125 205.238281 173.6875 202.714844 C 174.074219 210.300781 174.296875 218.292969 174.359375 226.707031 Z M 102.300781 223.320312 C 122.101562 223.320312 135.648438 219.175781 144.4375 214.796875 C 143.050781 216.613281 141.292969 218.152344 139.234375 219.296875 L 110.503906 235.257812 C 105.367188 238.109375 99.234375 238.109375 94.09375 235.257812 L 65.363281 219.296875 C 60.472656 216.578125 57.25 211.628906 56.746094 206.054688 L 52.746094 162.082031 C 67.199219 160.449219 108.257812 154.921875 133.019531 142.585938 C 135.996094 148.042969 141.859375 156.1875 151.96875 160.84375 L 148.414062 199.917969 C 144.191406 203.652344 130.796875 212.976562 102.300781 212.976562 C 99.445312 212.976562 97.128906 215.292969 97.128906 218.148438 C 97.128906 221.003906 99.445312 223.320312 102.300781 223.320312 Z M 159.117188 196.425781 L 161.1875 173.671875 L 162.984375 173.671875 C 166.214844 173.671875 168.84375 176.300781 168.84375 179.53125 L 168.84375 190.566406 C 168.84375 193.796875 166.214844 196.425781 162.984375 196.425781 Z M 45.238281 126.152344 C 56.914062 98.734375 75.578125 85.40625 102.300781 85.40625 C 129.019531 85.40625 147.683594 98.734375 159.363281 126.15625 C 163.910156 136.832031 167.402344 149.675781 169.871094 164.867188 C 167.777344 163.882812 165.445312 163.328125 162.984375 163.328125 L 162.125 163.328125 L 162.617188 157.933594 C 162.832031 155.542969 161.378906 153.320312 159.101562 152.558594 C 145.3125 147.964844 140.347656 133.886719 140.304688 133.765625 C 139.808594 132.277344 138.664062 131.09375 137.191406 130.550781 C 135.722656 130.003906 134.082031 130.15625 132.738281 130.964844 C 106.496094 146.710938 47.257812 152.261719 46.664062 152.316406 C 43.820312 152.574219 41.722656 155.089844 41.980469 157.933594 L 42.472656 163.328125 L 41.617188 163.328125 C 39.15625 163.328125 36.820312 163.882812 34.730469 164.867188 C 37.195312 149.671875 40.691406 136.832031 45.238281 126.152344 Z M 45.480469 196.425781 L 41.617188 196.425781 C 38.386719 196.425781 35.753906 193.796875 35.753906 190.566406 L 35.753906 179.53125 C 35.753906 176.300781 38.386719 173.671875 41.617188 173.671875 L 43.414062 173.671875 Z M 32.074219 229.53125 C 30.949219 229.007812 30.230469 227.898438 30.238281 226.703125 C 30.300781 218.292969 30.523438 210.300781 30.914062 202.714844 C 33.769531 205.238281 37.515625 206.769531 41.617188 206.769531 L 46.421875 206.769531 L 46.441406 206.992188 C 47.257812 215.976562 52.453125 223.957031 60.339844 228.335938 L 69.542969 233.449219 L 69.542969 240.453125 C 55.464844 238.183594 42.527344 234.417969 32.074219 229.53125 Z M 69.914062 258.851562 C 75.972656 256.328125 79.886719 250.457031 79.886719 243.894531 L 79.886719 239.199219 L 89.070312 244.300781 C 93.214844 246.601562 97.753906 247.75 102.300781 247.75 C 106.84375 247.75 111.386719 246.601562 115.527344 244.300781 L 124.710938 239.199219 L 124.710938 243.894531 C 124.710938 250.457031 128.625 256.328125 134.683594 258.851562 L 140.550781 261.296875 C 123.527344 281.605469 106.878906 288.398438 102.285156 289.972656 C 97.671875 288.417969 81.171875 281.742188 64.046875 261.296875 Z M 36.445312 317.792969 L 19.550781 317.792969 C 16.316406 317.792969 13.6875 315.164062 13.6875 311.929688 L 13.6875 289.863281 C 13.6875 288.4375 13.953125 287.058594 14.441406 285.78125 L 32.175781 299.964844 C 34.890625 302.136719 36.445312 305.375 36.445312 308.851562 Z M 157.808594 308.851562 L 157.808594 317.792969 L 46.789062 317.792969 L 46.789062 308.851562 C 46.789062 302.214844 43.816406 296.035156 38.636719 291.890625 L 22.195312 278.734375 L 54.082031 265.449219 C 54.097656 265.46875 54.113281 265.492188 54.128906 265.511719 C 77.023438 294.128906 100.074219 300.15625 101.046875 300.398438 C 101.457031 300.5 101.878906 300.550781 102.300781 300.550781 C 102.722656 300.550781 103.144531 300.5 103.554688 300.398438 C 104.523438 300.15625 127.578125 294.128906 150.472656 265.511719 C 150.488281 265.492188 150.5 265.46875 150.515625 265.449219 L 182.40625 278.734375 L 165.964844 291.890625 C 160.78125 296.035156 157.808594 302.214844 157.808594 308.851562 Z M 190.910156 311.929688 C 190.910156 315.164062 188.28125 317.792969 185.046875 317.792969 L 168.152344 317.792969 L 168.152344 308.851562 C 168.152344 305.378906 169.710938 302.136719 172.425781 299.96875 L 190.15625 285.78125 C 190.644531 287.058594 190.910156 288.4375 190.910156 289.863281 Z M 190.910156 311.929688 " fill-opacity="1" fill-rule="nonzero"/></g><g clip-path="url(#0f914c1f5b)"><path fill="#ff671b" d="M 311.929688 8.863281 L 201.597656 8.863281 C 189.621094 8.863281 179.878906 18.605469 179.878906 30.582031 L 179.878906 91.265625 C 179.878906 101.460938 186.9375 110.039062 196.425781 112.367188 L 196.425781 135.398438 C 196.425781 137.492188 197.6875 139.378906 199.621094 140.175781 C 200.257812 140.441406 200.929688 140.570312 201.597656 140.570312 C 202.945312 140.570312 204.265625 140.042969 205.257812 139.054688 L 231.324219 112.988281 L 311.929688 112.988281 C 323.910156 112.988281 333.652344 103.242188 333.652344 91.265625 L 333.652344 30.582031 C 333.652344 18.605469 323.90625 8.863281 311.929688 8.863281 Z M 323.308594 91.265625 C 323.308594 97.539062 318.207031 102.644531 311.929688 102.644531 L 229.183594 102.644531 C 227.808594 102.644531 226.496094 103.1875 225.527344 104.160156 L 206.769531 122.914062 L 206.769531 107.816406 C 206.769531 104.960938 204.457031 102.644531 201.597656 102.644531 C 195.324219 102.644531 190.21875 97.539062 190.21875 91.265625 L 190.21875 30.582031 C 190.21875 24.308594 195.324219 19.207031 201.597656 19.207031 L 311.929688 19.207031 C 318.203125 19.207031 323.308594 24.308594 323.308594 30.582031 Z M 323.308594 91.265625 " fill-opacity="1" fill-rule="nonzero"/></g><path fill="#ff671b" d="M 239.871094 55.40625 C 239.871094 44.949219 231.363281 36.445312 220.90625 36.445312 C 210.449219 36.445312 201.941406 44.949219 201.941406 55.40625 L 201.941406 66.441406 C 201.941406 76.898438 210.449219 85.40625 220.90625 85.40625 C 224.257812 85.40625 227.410156 84.527344 230.144531 82.992188 L 231.042969 83.890625 C 232.050781 84.898438 233.375 85.40625 234.699219 85.40625 C 236.019531 85.40625 237.34375 84.898438 238.355469 83.890625 C 240.375 81.871094 240.375 78.597656 238.355469 76.574219 L 237.457031 75.679688 C 238.992188 72.945312 239.871094 69.792969 239.871094 66.441406 Z M 229.527344 66.441406 C 229.527344 66.851562 229.488281 67.253906 229.429688 67.652344 L 227.320312 65.542969 C 225.300781 63.523438 222.027344 63.523438 220.007812 65.542969 C 217.988281 67.5625 217.988281 70.835938 220.007812 72.855469 L 222.117188 74.964844 C 221.71875 75.023438 221.316406 75.0625 220.90625 75.0625 C 216.152344 75.0625 212.285156 71.195312 212.285156 66.441406 L 212.285156 55.40625 C 212.285156 50.65625 216.152344 46.789062 220.90625 46.789062 C 225.660156 46.789062 229.527344 50.65625 229.527344 55.40625 Z M 229.527344 66.441406 " fill-opacity="1" fill-rule="nonzero"/><path fill="#ff671b" d="M 269.433594 31.195312 C 266.722656 30.289062 263.796875 31.753906 262.890625 34.464844 L 246.34375 84.113281 C 245.4375 86.824219 246.902344 89.753906 249.613281 90.65625 C 250.15625 90.835938 250.707031 90.921875 251.25 90.921875 C 253.414062 90.921875 255.433594 89.554688 256.15625 87.386719 L 272.703125 37.738281 C 273.609375 35.027344 272.144531 32.097656 269.433594 31.195312 Z M 269.433594 31.195312 " fill-opacity="1" fill-rule="nonzero"/><path fill="#ff671b" d="M 311.386719 78.8125 L 300.355469 40.195312 C 299.722656 37.976562 297.691406 36.445312 295.382812 36.445312 L 289.863281 36.445312 C 287.554688 36.445312 285.527344 37.976562 284.890625 40.195312 L 273.859375 78.8125 C 273.074219 81.558594 274.664062 84.421875 277.410156 85.207031 C 280.15625 85.992188 283.019531 84.402344 283.804688 81.652344 L 285.886719 74.371094 L 299.363281 74.371094 L 301.441406 81.65625 C 302.089844 83.925781 304.164062 85.40625 306.414062 85.40625 C 306.882812 85.40625 307.363281 85.34375 307.835938 85.207031 C 310.582031 84.421875 312.171875 81.558594 311.386719 78.8125 Z M 288.839844 64.027344 L 292.621094 50.789062 L 296.40625 64.027344 Z M 288.839844 64.027344 " fill-opacity="1" fill-rule="nonzero"/></svg>