<?xml version="1.0" encoding="iso-8859-1"?>
<!-- Generator: Adobe Illustrator 19.0.0, SVG Export Plug-In . SVG Version: 6.00 Build 0)  -->
<svg xmlns="http://www.w3.org/2000/svg" xmlns:xlink="http://www.w3.org/1999/xlink" version="1.1" id="Capa_1" x="0px" y="0px" viewBox="0 0 512.001 512.001" style="enable-background:new 0 0 512.001 512.001;" xml:space="preserve" width="512px" height="512px">
<g>
	<g>
		<path d="M81.507,492.002H10.014c-5.521,0-9.999,4.477-9.999,9.999c0,5.522,4.478,9.999,9.999,9.999h71.492    c5.521,0,9.999-4.476,9.999-9.999C91.506,496.479,87.029,492.002,81.507,492.002z" fill="#00aeef"/>
	</g>
</g>
<g>
	<g>
		<path d="M125.071,494.932c-1.859-1.86-4.439-2.93-7.068-2.93c-2.63,0-5.209,1.07-7.069,2.93s-2.93,4.44-2.93,7.069    c0,2.63,1.069,5.209,2.93,7.069c1.861,1.86,4.44,2.93,7.069,2.93c2.63,0,5.209-1.07,7.068-2.93c1.86-1.86,2.931-4.44,2.931-7.069    C128.002,499.372,126.932,496.792,125.071,494.932z" fill="#00aeef"/>
	</g>
</g>
<g>
	<g>
		<path d="M509.012,322.468c-5.556-12.63-17.579-20.477-31.379-20.477c-1.29,0-2.571,0.077-3.84,0.22    c-0.388-3.422-1.288-6.837-2.744-10.147c-5.557-12.63-17.581-20.477-31.38-20.477c-0.569,0-1.135,0.018-1.701,0.046V191.11h13.999    c5.521,0,9.999-4.477,9.999-9.999v-59.994c0-16.54-13.457-29.997-29.997-29.997h-25.478c8.083-9.632,12.964-22.037,12.964-35.565    c0-22.949-13.195-42.599-34.435-51.287c-21.239-8.686-44.424-3.913-60.507,12.461L255.99,86.5L187.466,16.73    C171.383,0.357,148.201-4.417,126.958,4.269c-21.241,8.687-34.435,28.338-34.435,51.287c0,13.529,4.88,25.934,12.964,35.565    H80.007c-16.54,0-29.997,13.457-29.997,29.997v59.994c0,5.522,4.478,9.999,9.999,9.999h13.999v138.918    c-16.518,6.797-31.504,17.257-43.67,30.818L2.572,391.793c-3.688,4.111-3.346,10.432,0.765,14.121    c4.111,3.688,10.433,3.346,14.12-0.765l27.766-30.946c18.938-21.108,46.064-33.214,74.424-33.214h138.894    c8.821,0,15.998,7.177,15.998,15.998c0,8.821-7.177,15.998-15.998,15.998h-66.147c-19.212,0-34.842,15.629-34.842,34.841    s15.63,34.841,34.842,34.841h105.084c42.88,0,83.722-18.46,112.054-50.647l57.379-65.184c2.711-3.08,6.617-4.846,10.721-4.846    c5.836,0,10.725,3.19,13.074,8.531c2.351,5.342,1.399,11.1-2.545,15.402l-80.472,87.797    c-33.948,37.039-82.235,58.283-132.48,58.283H154.499c-5.521,0-9.999,4.477-9.999,9.999c0,5.522,4.478,9.999,9.999,9.999H275.21    c55.836,0,109.496-23.606,147.222-64.768l80.472-87.797C512.229,349.263,514.569,335.098,509.012,322.468z M431.97,111.119    c5.513,0,9.999,4.486,9.999,9.999v49.995h-67.133c-0.239,0-0.472,0.019-0.706,0.036l-34.065-60.03H431.97z M338.781,30.742    c12.283-12.508,28.03-12.316,38.669-7.963c10.64,4.351,22.008,15.246,22.008,32.776c0,19.526-15.885,35.411-35.411,35.411h-41.423    c-0.005,0-0.01,0-0.015,0h-42.976L338.781,30.742z M134.528,22.779c4.013-1.641,8.75-2.69,13.756-2.69    c8.268,0,17.262,2.863,24.913,10.653l59.149,60.225h-84.414c-19.526,0-35.411-15.885-35.411-35.412    C112.521,38.024,123.888,27.129,134.528,22.779z M237.327,111.12l-44.934,81.799l-3.802-14.211    c-0.686-2.563-2.362-4.748-4.66-6.075c-2.298-1.327-5.03-1.686-7.591-0.998l-15.843,4.253l34.955-64.768H237.327z M70.008,171.112    v-49.995c0-5.513,4.486-9.999,9.999-9.999h92.722l-32.379,59.994H70.008z M209.994,320.99h-90.347    c-8.691-0.001-17.283,0.952-25.642,2.785V191.11h36.69c-0.106,2.357,0.615,4.725,2.138,6.651c2.477,3.132,6.58,4.491,10.435,3.456    l28.591-7.674l7.65,28.598c1.056,3.946,4.404,6.852,8.457,7.343c0.403,0.049,0.806,0.073,1.205,0.073    c3.615,0,6.99-1.962,8.761-5.185l12.062-21.957V320.99z M209.994,422.669h-17.6c-8.185,0-14.844-6.658-14.844-14.843    s6.659-14.843,14.844-14.843h17.6V422.669z M281.986,422.669h-51.995v-29.687h28.55c8.95,0,17.141-3.291,23.445-8.716V422.669z     M281.986,329.705c-6.303-5.425-14.495-8.716-23.445-8.716h-28.55V191.11h51.995V329.705z M227.189,171.112l29.58-53.847    l30.288,53.847H227.189z M276.255,111.119h40.817l42.412,74.737l-15.171-4.072c-2.561-0.688-5.292-0.329-7.591,0.998    c-2.298,1.327-3.975,3.513-4.66,6.075l-3.895,14.555L276.255,111.119z M394.524,378.806    c-23.543,26.746-57.061,42.538-92.54,43.774V197.653l20.785,36.953c1.786,3.175,5.133,5.097,8.712,5.097    c0.416,0,0.835-0.026,1.255-0.079c4.033-0.509,7.356-3.41,8.407-7.336l7.65-28.598l28.591,7.673c3.894,1.046,8.033-0.35,10.5-3.54    c2.468-3.189,2.778-7.546,0.788-11.053l-3.214-5.663h32.514v161.027c0,0.01,0.001,0.019,0.001,0.029L394.524,378.806z     M450.2,315.519c-0.178,0.194-0.338,0.397-0.497,0.601l-11.733,13.33v-37.75c0.563-0.067,1.129-0.114,1.701-0.114    c5.836,0,10.725,3.189,13.074,8.531C455.096,305.459,454.144,311.216,450.2,315.519z" fill="#00aeef"/>
	</g>
</g>
<g>
	<g>
		<path d="M387.975,232.445c-5.521,0-9.999,4.477-9.999,9.999v57.994c0,5.522,4.477,9.999,9.999,9.999s9.999-4.477,9.999-9.999    v-57.994C397.974,236.921,393.497,232.445,387.975,232.445z" fill="#00aeef"/>
	</g>
</g>
<g>
	<g>
		<path d="M395.043,331.049c-1.859-1.86-4.439-2.93-7.068-2.93s-5.209,1.07-7.069,2.93c-1.86,1.86-2.93,4.44-2.93,7.069    c0,2.63,1.069,5.209,2.93,7.069c1.861,1.86,4.44,2.93,7.069,2.93c2.63,0,5.209-1.07,7.068-2.93c1.86-1.86,2.931-4.44,2.931-7.069    C397.974,335.489,396.904,332.909,395.043,331.049z" fill="#00aeef"/>
	</g>
</g>
<g>
</g>
<g>
</g>
<g>
</g>
<g>
</g>
<g>
</g>
<g>
</g>
<g>
</g>
<g>
</g>
<g>
</g>
<g>
</g>
<g>
</g>
<g>
</g>
<g>
</g>
<g>
</g>
<g>
</g>
</svg>
