<?xml version="1.0" encoding="utf-8"?>
<!-- Generator: Adobe Illustrator 18.1.1, SVG Export Plug-In . SVG Version: 6.00 Build 0)  -->
<svg xmlns:xlink="http://www.w3.org/1999/xlink" version="1.1" id="Layer_1" xmlns="http://www.w3.org/2000/svg" x="0px" y="0px"
	 width="550px" height="201px" viewBox="-201 321.1 550 201" enable-background="new -201 321.1 550 201" xml:space="preserve">
<g>
	<polygon fill="#C90F5E" points="-31,432.9 -19.8,517.5 40.3,487.7 -1.6,394.2 	"/>
	<polygon fill="#C8105F" points="-31.8,432.9 -20.7,517.2 39.2,487.6 -2.6,394.3 	"/>
	<polygon fill="#C71060" points="-32.7,432.9 -21.6,517 38.1,487.5 -3.5,394.6 	"/>
	<polygon fill="#C61160" points="-33.5,432.9 -22.5,516.5 37,487.2 -4.4,394.8 	"/>
	<polygon fill="#C51161" points="-34.4,433.1 -23.5,516.3 35.8,487 -5.3,394.9 	"/>
	<polygon fill="#C41262" points="-35.2,433.1 -24.3,516 34.7,486.9 -6.3,395.2 	"/>
	<polygon fill="#C31263" points="-36,433.1 -25.3,515.7 33.6,486.6 -7.1,395.3 	"/>
	<polygon fill="#C21364" points="-37,433.1 -26.1,515.4 32.5,486.5 -8.1,395.6 	"/>
	<polygon fill="#C11364" points="-37.9,433.2 -27.1,515.1 31.4,486.3 -9.1,395.7 	"/>
	<polygon fill="#C01465" points="-38.7,433.2 -27.9,514.7 30.2,486.1 -9.9,396 	"/>
	<polygon fill="#BF1566" points="-39.5,433.2 -28.9,514.4 29.1,485.9 -10.9,396.2 	"/>
	<polygon fill="#BE1567" points="-40.4,433.2 -29.7,514.2 28,485.8 -11.7,396.3 	"/>
	<polygon fill="#BD1668" points="-41.2,433.2 -30.7,513.9 26.9,485.5 -12.7,396.6 	"/>
	<polygon fill="#BC1669" points="-42.1,433.3 -31.6,513.6 25.8,485.4 -13.7,396.7 	"/>
	<polygon fill="#BB1769" points="-42.9,433.3 -32.5,513.3 24.6,485.1 -14.5,397 	"/>
	<polygon fill="#BA176A" points="-43.7,433.3 -33.4,512.9 23.5,484.9 -15.5,397.1 	"/>
	<polygon fill="#B9186B" points="-44.6,433.3 -34.4,512.6 22.4,484.8 -16.3,397.4 	"/>
	<polygon fill="#B8196C" points="-45.4,433.5 -35.2,512.3 21.3,484.5 -17.3,397.6 	"/>
	<polygon fill="#B7196D" points="-46.2,433.5 -36.2,512.1 20.2,484.4 -18.1,397.7 	"/>
	<polygon fill="#B61A6D" points="-47.2,433.5 -37,511.8 19.1,484.2 -19.1,398 	"/>
	<polygon fill="#B51A6E" points="-48.1,433.5 -38,511.5 17.9,484 -20.1,398.1 	"/>
	<polygon fill="#B41B6F" points="-48.9,433.6 -38.8,511.1 16.8,483.8 -20.9,398.4 	"/>
	<polygon fill="#B31B70" points="-49.7,433.6 -39.8,510.8 15.7,483.7 -21.9,398.5 	"/>
	<polygon fill="#B21C71" points="-50.6,433.6 -40.7,510.5 14.6,483.4 -22.8,398.8 	"/>
	<polygon fill="#B11C71" points="-51.4,433.6 -41.6,510.3 13.5,483.3 -23.7,399 	"/>
	<polygon fill="#B01D72" points="-52.3,433.8 -42.5,510 12.3,483.1 -24.7,399.1 	"/>
	<polygon fill="#AF1E73" points="-53.1,433.8 -43.4,509.7 11.2,482.8 -25.6,399.4 	"/>
	<polygon fill="#AE1E74" points="-53.9,433.8 -44.3,509.3 10.1,482.7 -26.5,399.5 	"/>
	<polygon fill="#AD1F75" points="-54.8,433.8 -45.3,509 9,482.6 -27.4,399.8 	"/>
	<polygon fill="#AC1F75" points="-55.6,433.9 -46.1,508.7 7.9,482.3 -28.3,399.9 	"/>
	<polygon fill="#AB2076" points="-56.5,433.9 -47.1,508.4 6.7,482.1 -29.2,400.2 	"/>
	<polygon fill="#AA2077" points="-57.4,433.9 -47.9,508.2 5.6,482 -30.2,400.3 	"/>
	<polygon fill="#A92178" points="-58.3,433.9 -48.9,507.9 4.5,481.7 -31.1,400.6 	"/>
	<polygon fill="#A82279" points="-59.1,434 -49.7,507.5 3.4,481.6 -32,400.8 	"/>
	<polygon fill="#A7227A" points="-59.9,434 -50.7,507.2 2.3,481.4 -33,400.9 	"/>
	<polygon fill="#A6237A" points="-60.8,434 -51.6,506.9 1.2,481.2 -33.8,401.2 	"/>
	<polygon fill="#A5237B" points="-61.6,434 -52.5,506.6 0,481 -34.8,401.3 	"/>
	<polygon fill="#A4247C" points="-62.5,434.2 -53.4,506.3 -1.1,480.9 -35.8,401.6 	"/>
	<polygon fill="#A3247D" points="-63.3,434.2 -54.4,506.1 -2.2,480.6 -36.6,401.7 	"/>
	<polygon fill="#A2257E" points="-64.1,434.2 -55.2,505.6 -3.3,480.5 -37.6,402 	"/>
	<polygon fill="#A1257E" points="-65,434.2 -56.2,505.4 -4.4,480.3 -38.4,402.2 	"/>
	<polygon fill="#A0267F" points="-65.8,434.3 -57,505.1 -5.6,480 -39.4,402.3 	"/>
	<polygon fill="#9F2780" points="-66.7,434.3 -58,504.8 -6.7,479.9 -40.2,402.6 	"/>
	<polygon fill="#9E2781" points="-67.6,434.3 -58.8,504.5 -7.8,479.8 -41.2,402.7 	"/>
	<polygon fill="#9D2882" points="-68.5,434.3 -59.8,504.2 -8.9,479.5 -42.2,403 	"/>
	<polygon fill="#9C2882" points="-69.3,434.3 -60.6,503.8 -10,479.4 -43,403.1 	"/>
	<polygon fill="#9B2983" points="-70.2,434.5 -61.6,503.5 -11.1,479.2 -44,403.4 	"/>
	<polygon fill="#9A2984" points="-71,434.5 -62.5,503.3 -12.1,478.9 -44.8,403.6 	"/>
	<polygon fill="#992A85" points="-71.8,434.5 -63.4,503 -13.2,478.8 -45.8,403.7 	"/>
	<polygon fill="#982B86" points="-72.7,434.5 -64.3,502.7 -14.4,478.7 -46.7,404 	"/>
	<polygon fill="#972B86" points="-73.5,434.6 -65.3,502.4 -15.5,478.4 -47.6,404.1 	"/>
	<polygon fill="#962C87" points="-74.4,434.6 -66.1,502.1 -16.6,478.2 -48.6,404.4 	"/>
	<polygon fill="#952C88" points="-75.2,434.6 -67.1,501.7 -17.7,478.1 -49.5,404.5 	"/>
	<polygon fill="#942D89" points="-76,434.6 -67.9,501.4 -18.8,477.8 -50.4,404.8 	"/>
	<polygon fill="#932D8A" points="-76.9,434.7 -68.9,501.2 -20,477.7 -51.3,405 	"/>
	<polygon fill="#922E8B" points="-77.8,434.7 -69.7,500.9 -21.1,477.5 -52.3,405.1 	"/>
	<polygon fill="#912E8B" points="-78.7,434.7 -70.7,500.6 -22.2,477.3 -53.2,405.4 	"/>
	<polygon fill="#902F8C" points="-79.5,434.7 -71.6,500.3 -23.3,477.1 -54.1,405.5 	"/>
	<polygon fill="#8F308D" points="-80.4,434.9 -72.5,499.9 -24.4,477 -55.1,405.8 	"/>
	<polygon fill="#8E308E" points="-81.2,434.9 -73.4,499.6 -25.6,476.7 -55.9,405.9 	"/>
	<polygon fill="#8D318F" points="-82,434.9 -74.4,499.3 -26.7,476.6 -56.9,406.2 	"/>
	<polygon fill="#8C318F" points="-82.9,434.9 -75.2,499.1 -27.8,476.4 -57.7,406.4 	"/>
	<polygon fill="#8B3290" points="-83.7,435 -76.2,498.8 -28.9,476.1 -58.7,406.5 	"/>
	<polygon fill="#8A3291" points="-84.6,435 -77,498.5 -30,476 -59.7,406.8 	"/>
	<polygon fill="#893392" points="-85.4,435 -78,498.1 -31.1,475.9 -60.5,406.9 	"/>
	<polygon fill="#883493" points="-86.2,435 -78.8,497.8 -32.3,475.6 -61.5,407.2 	"/>
	<polygon fill="#873493" points="-87.1,435.2 -79.8,497.5 -33.4,475.4 -62.3,407.3 	"/>
	<polygon fill="#863594" points="-88.1,435.2 -80.6,497.2 -34.5,475.3 -63.3,407.6 	"/>
	<polygon fill="#853595" points="-88.9,435.2 -81.6,497 -35.6,475 -64.3,407.8 	"/>
	<polygon fill="#843696" points="-89.7,435.2 -82.5,496.7 -36.7,474.9 -65.1,408 	"/>
	<polygon fill="#833697" points="-90.6,435.3 -83.4,496.3 -37.9,474.7 -66.1,408.2 	"/>
	<polygon fill="#823797" points="-91.4,435.3 -84.3,496 -39,474.5 -66.9,408.3 	"/>
	<polygon fill="#813798" points="-92.2,435.3 -85.3,495.7 -40.1,474.3 -67.9,408.6 	"/>
	<polygon fill="#803899" points="-93.1,435.3 -86.1,495.4 -41.2,474.2 -68.8,408.7 	"/>
	<polygon fill="#7F399A" points="-93.9,435.4 -87.1,495.2 -42.3,473.9 -69.7,409 	"/>
	<polygon fill="#7E399B" points="-94.8,435.4 -87.9,494.9 -43.4,473.8 -70.7,409.2 	"/>
	<polygon fill="#7D3A9C" points="-95.6,435.4 -88.9,494.5 -44.6,473.6 -71.6,409.4 	"/>
	<polygon fill="#7C3A9C" points="-96.4,435.4 -89.7,494.2 -45.7,473.3 -72.5,409.6 	"/>
	<polygon fill="#7B3B9D" points="-97.3,435.4 -90.7,493.9 -46.8,473.2 -73.4,409.7 	"/>
	<polygon fill="#7A3B9E" points="-98.3,435.6 -91.5,493.6 -47.9,473.1 -74.4,410 	"/>
	<polygon fill="#793C9F" points="-99.1,435.6 -92.5,493.3 -49,472.8 -75.2,410.1 	"/>
	<polygon fill="#783DA0" points="-99.9,435.6 -93.4,493.1 -50.2,472.6 -76.2,410.4 	"/>
	<polygon fill="#773DA0" points="-100.8,435.6 -94.3,492.6 -51.3,472.5 -77.1,410.6 	"/>
	<polygon fill="#763EA1" points="-101.6,435.7 -95.2,492.4 -52.4,472.2 -78,410.8 	"/>
	<polygon fill="#753EA2" points="-102.5,435.7 -96.2,492.1 -53.5,472.1 -79,411 	"/>
	<polygon fill="#743FA3" points="-103.3,435.7 -97,491.8 -54.6,471.9 -79.8,411.1 	"/>
	<polygon fill="#733FA4" points="-104.1,435.7 -98,491.5 -55.8,471.7 -80.8,411.4 	"/>
	<polygon fill="#7240A4" points="-105,435.9 -98.8,491.2 -56.9,471.5 -81.8,411.5 	"/>
	<polygon fill="#7140A5" points="-105.8,435.9 -99.8,490.8 -58,471.2 -82.6,411.8 	"/>
	<polygon fill="#7041A6" points="-106.7,435.9 -100.6,490.5 -59.1,471.1 -83.6,412 	"/>
	<polygon fill="#6F42A7" points="-107.5,435.9 -101.6,490.3 -60.2,471 -84.4,412.2 	"/>
	<polygon fill="#6E42A8" points="-108.5,436 -102.5,490 -61.3,470.7 -85.4,412.4 	"/>
	<polygon fill="#6D43A8" points="-109.3,436 -103.4,489.7 -62.5,470.5 -86.2,412.5 	"/>
	<polygon fill="#6C43A9" points="-110.1,436 -104.3,489.4 -63.6,470.4 -87.2,412.8 	"/>
	<polygon fill="#6B44AA" points="-111,436 -105.3,489 -64.7,470.1 -88.2,412.9 	"/>
	<polygon fill="#6A44AB" points="-111.8,436.1 -106.1,488.7 -65.8,470 -89,413.2 	"/>
	<polygon fill="#6945AC" points="-112.7,436.1 -107.1,488.4 -66.9,469.8 -90,413.4 	"/>
	<polygon fill="#6846AD" points="-113.5,436.1 -107.9,488.2 -68.1,469.6 -90.8,413.6 	"/>
	<polygon fill="#6746AD" points="-114.3,436.1 -108.7,487.9 -69.2,469.4 -91.8,413.8 	"/>
	<polygon fill="#6647AE" points="-115.2,436.3 -109.7,487.6 -70.3,469.3 -92.8,413.9 	"/>
	<polygon fill="#6547AF" points="-116,436.3 -110.6,487.2 -71.4,469 -93.6,414.2 	"/>
	<polygon fill="#6448B0" points="-116.9,436.3 -111.5,486.9 -72.5,468.9 -94.6,414.3 	"/>
	<polygon fill="#6348B1" points="-117.7,436.3 -112.4,486.6 -73.7,468.7 -95.5,414.6 	"/>
	<polygon fill="#6249B1" points="-118.5,436.4 -113.4,486.3 -74.8,468.4 -96.4,414.8 	"/>
	<polygon fill="#6149B2" points="-119.5,436.4 -114.2,486.1 -75.9,468.3 -97.3,415 	"/>
	<polygon fill="#604AB3" points="-120.4,436.4 -115.2,485.8 -77,468.2 -98.3,415.2 	"/>
	<polygon fill="#5F4BB4" points="-121.2,436.4 -116,485.4 -78.1,467.9 -99.2,415.3 	"/>
	<polygon fill="#5E4BB5" points="-122,436.6 -117,485.1 -79.2,467.7 -100.1,415.6 	"/>
	<polygon fill="#5D4CB5" points="-122.9,436.6 -117.8,484.8 -80.4,467.6 -101.1,415.7 	"/>
	<polygon fill="#5C4CB6" points="-123.7,436.6 -118.8,484.5 -81.5,467.3 -101.9,416 	"/>
	<polygon fill="#5B4DB7" points="-124.5,436.6 -119.7,484.2 -82.6,467.2 -102.9,416.1 	"/>
	<polygon fill="#5A4DB8" points="-125.4,436.6 -120.6,484 -83.7,467 -103.9,416.4 	"/>
	<polygon fill="#594EB9" points="-126.2,436.7 -121.5,483.5 -84.8,466.8 -104.7,416.6 	"/>
	<polygon fill="#584EB9" points="-127.1,436.7 -122.5,483.3 -86,466.6 -105.7,416.8 	"/>
	<polygon fill="#574FBA" points="-127.9,436.7 -123.3,483 -87.1,466.5 -106.5,417 	"/>
	<polygon fill="#5650BB" points="-128.7,436.7 -124.3,482.7 -88.2,466.2 -107.5,417.1 	"/>
	<polygon fill="#5550BC" points="-129.7,436.8 -125.1,482.4 -89.3,466.1 -108.3,417.4 	"/>
	<polygon fill="#5451BD" points="-130.6,436.8 -126.1,482.1 -90.4,465.9 -109.3,417.5 	"/>
	<polygon fill="#5351BD" points="-131.4,436.8 -126.9,481.7 -91.5,465.6 -110.3,417.8 	"/>
	<polygon fill="#5252BE" points="-132.2,436.8 -127.9,481.4 -92.7,465.5 -111.1,418 	"/>
	<polygon fill="#5152BF" points="-133.1,437 -128.7,481.2 -93.8,465.4 -112.1,418.2 	"/>
	<polygon fill="#5053C0" points="-133.9,437 -129.7,480.9 -94.9,465.1 -112.9,418.4 	"/>
	<polygon fill="#4F54C1" points="-134.8,437 -130.6,480.6 -96,464.9 -113.9,418.5 	"/>
	<polygon fill="#4E54C2" points="-135.6,437 -131.5,480.3 -97.1,464.8 -114.8,418.8 	"/>
	<polygon fill="#4D55C2" points="-136.4,437.1 -132.4,479.9 -98.3,464.5 -115.7,418.9 	"/>
	<polygon fill="#4C55C3" points="-137.3,437.1 -133.4,479.6 -99.4,464.4 -116.7,419.2 	"/>
	<polygon fill="#4B56C4" points="-138.1,437.1 -134.2,479.4 -100.5,464.2 -117.6,419.4 	"/>
	<polygon fill="#4A56C5" points="-139,437.1 -135.2,479.1 -101.6,464 -118.5,419.6 	"/>
	<polygon fill="#4957C6" points="-139.9,437.3 -136,478.8 -102.7,463.8 -119.4,419.8 	"/>
	<polygon fill="#4857C6" points="-140.8,437.3 -137,478.5 -103.9,463.7 -120.4,419.9 	"/>
	<polygon fill="#4758C7" points="-141.6,437.3 -137.8,478.1 -105,463.4 -121.3,420.2 	"/>
	<polygon fill="#4659C8" points="-142.4,437.3 -138.8,477.8 -106.1,463.3 -122.2,420.3 	"/>
	<polygon fill="#4559C9" points="-143.3,437.4 -139.6,477.5 -107.2,463.1 -123.2,420.6 	"/>
	<polygon fill="#445ACA" points="-144.1,437.4 -140.6,477.3 -108.3,462.9 -124,420.8 	"/>
	<polygon fill="#435ACA" points="-145,437.4 -141.5,477 -109.4,462.7 -125,421 	"/>
	<polygon fill="#425BCB" points="-145.8,437.4 -142.4,476.7 -110.6,462.6 -125.8,421.2 	"/>
	<polygon fill="#415BCC" points="-146.6,437.5 -143.3,476.3 -111.7,462.3 -126.8,421.3 	"/>
	<polygon fill="#405CCD" points="-147.5,437.5 -144.3,476 -112.8,462.2 -127.8,421.6 	"/>
	<polygon fill="#3F5DCE" points="-148.3,437.5 -145.1,475.7 -113.9,462 -128.6,421.7 	"/>
	<polygon fill="#3E5DCE" points="-149.2,437.5 -146.1,475.4 -115,461.7 -129.6,422 	"/>
	<polygon fill="#3D5ECF" points="-150.1,437.7 -146.9,475.2 -116.2,461.6 -130.4,422.2 	"/>
	<polygon fill="#3C5ED0" points="-151,437.7 -147.9,474.9 -117.1,461.5 -131.4,422.4 	"/>
	<polygon fill="#3B5FD1" points="-151.8,437.7 -148.7,474.5 -118.3,461.2 -132.4,422.6 	"/>
	<polygon fill="#3A5FD2" points="-152.7,437.7 -149.7,474.2 -119.4,461 -133.2,422.7 	"/>
	<polygon fill="#3960D3" points="-153.5,437.7 -150.6,473.9 -120.5,460.9 -134.2,423 	"/>
	<polygon fill="#3860D3" points="-154.3,437.8 -151.5,473.6 -121.6,460.6 -135,423.1 	"/>
	<polygon fill="#3761D4" points="-155.2,437.8 -152.4,473.3 -122.7,460.5 -136,423.4 	"/>
	<polygon fill="#3662D5" points="-156,437.8 -153.4,473.1 -123.8,460.3 -136.9,423.6 	"/>
	<polygon fill="#3562D6" points="-156.8,437.8 -154.2,472.8 -125,460.1 -137.8,423.8 	"/>
	<polygon fill="#3463D7" points="-157.7,438 -155.2,472.4 -126.1,459.9 -138.8,424 	"/>
	<polygon fill="#3363D7" points="-158.5,438 -156,472.1 -127.2,459.8 -139.6,424.3 	"/>
	<polygon fill="#3264D8" points="-159.4,438 -157,471.8 -128.3,459.5 -140.6,424.4 	"/>
	<polygon fill="#3164D9" points="-160.3,438 -157.8,471.5 -129.4,459.4 -141.5,424.5 	"/>
	<polygon fill="#3065DA" points="-161.2,438.1 -158.8,471.2 -130.6,459.2 -142.4,424.8 	"/>
	<polygon fill="#2F66DB" points="-162,438.1 -159.6,471 -131.7,458.9 -143.4,425 	"/>
	<polygon fill="#2E66DB" points="-162.9,438.1 -160.6,470.5 -132.8,458.8 -144.3,425.2 	"/>
	<polygon fill="#2D67DC" points="-163.7,438.1 -161.5,470.3 -133.9,458.7 -145.2,425.4 	"/>
	<polygon fill="#2C67DD" points="-164.5,438.2 -162.4,470 -135,458.4 -146.1,425.7 	"/>
	<polygon fill="#2B68DE" points="-165.4,438.2 -163.3,469.7 -136.2,458.2 -147.1,425.8 	"/>
	<polygon fill="#2A68DF" points="-166.2,438.2 -164.3,469.4 -137.3,458.1 -147.9,425.9 	"/>
	<polygon fill="#2969DF" points="-167.1,438.2 -165.1,469.1 -138.4,457.8 -148.9,426.2 	"/>
	<polygon fill="#2869E0" points="-167.9,438.4 -166.1,468.7 -139.5,457.7 -149.9,426.4 	"/>
	<polygon fill="#276AE1" points="-168.7,438.4 -166.9,468.4 -140.6,457.5 -150.7,426.6 	"/>
	<polygon fill="#266BE2" points="-169.6,438.4 -167.9,468.2 -141.7,457.3 -151.7,426.8 	"/>
	<polygon fill="#256BE3" points="-170.6,438.4 -168.7,467.9 -142.9,457.1 -152.5,427.1 	"/>
	<polygon fill="#246CE4" points="-171.4,438.5 -169.7,467.6 -144,456.8 -153.5,427.2 	"/>
	<polygon fill="#236CE4" points="-172.2,438.5 -170.6,467.3 -145.1,456.7 -154.3,427.3 	"/>
	<polygon fill="#226DE5" points="-173.1,438.5 -171.5,466.9 -146.2,456.6 -155.3,427.6 	"/>
	<polygon fill="#216DE6" points="-173.9,438.5 -172.4,466.6 -147.3,456.3 -156.3,427.8 	"/>
	<polygon fill="#206EE7" points="-174.7,438.7 -173.3,466.3 -148.5,456.1 -157.1,428 	"/>
	<polygon fill="#1F6FE8" points="-175.6,438.7 -174.2,466.1 -149.6,456 -158.1,428.2 	"/>
	<polygon fill="#1E6FE8" points="-176.4,438.7 -175.2,465.8 -150.7,455.7 -158.9,428.5 	"/>
	<polygon fill="#1D70E9" points="-177.3,438.7 -176,465.5 -151.8,455.6 -159.9,428.6 	"/>
	<polygon fill="#1C70EA" points="-178.1,438.8 -177,465.1 -152.9,455.4 -160.9,428.7 	"/>
	<polygon fill="#1B71EB" points="-178.9,438.8 -177.8,464.8 -154.1,455.2 -161.7,429 	"/>
	<polygon fill="#1A71EC" points="-179.8,438.8 -178.8,464.5 -155.2,455 -162.7,429.2 	"/>
	<polygon fill="#1972EC" points="-180.8,438.8 -179.6,464.2 -156.3,454.9 -163.6,429.4 	"/>
	<polygon fill="#1872ED" points="-181.6,438.9 -180.6,464 -157.4,454.6 -164.5,429.6 	"/>
	<polygon fill="#1773EE" points="-182.4,438.9 -181.5,463.7 -158.5,454.5 -165.4,429.9 	"/>
	<polygon fill="#1674EF" points="-183.3,438.9 -182.4,463.3 -159.6,454.3 -166.4,430 	"/>
	<polygon fill="#1574F0" points="-184.1,438.9 -183.3,463 -160.8,454 -167.3,430.1 	"/>
	<polygon fill="#1475F0" points="-185,438.9 -184.3,462.7 -161.9,453.9 -168.2,430.4 	"/>
	<polygon fill="#1375F1" points="-185.8,439.1 -185.1,462.4 -163,453.8 -169.2,430.6 	"/>
	<polygon fill="#1276F2" points="-186.6,439.1 -186.1,462.2 -164.1,453.5 -170,430.8 	"/>
	<polygon fill="#1176F3" points="-187.5,439.1 -186.9,461.9 -165.2,453.3 -171,431 	"/>
	<polygon fill="#1077F4" points="-188.3,439.1 -187.9,461.5 -166.4,453.2 -171.9,431.3 	"/>
	<polygon fill="#0F78F5" points="-189.1,439.2 -188.7,461.2 -167.5,452.9 -172.8,431.4 	"/>
	<polygon fill="#0E78F5" points="-190,439.2 -189.7,460.9 -168.6,452.8 -173.8,431.7 	"/>
	<polygon fill="#0D79F6" points="-191,439.2 -190.5,460.6 -169.7,452.6 -174.6,431.8 	"/>
	<polygon fill="#0C79F7" points="-191.8,439.2 -191.5,460.3 -170.8,452.4 -175.6,431.9 	"/>
	<polygon fill="#0B7AF8" points="-192.6,439.4 -192.4,460.1 -171.9,452.2 -176.4,432.2 	"/>
	<polygon fill="#0A7AF9" points="-193.5,439.4 -193.3,459.6 -173.1,452.1 -177.4,432.4 	"/>
	<polygon fill="#097BF9" points="-194.3,439.4 -194.2,459.4 -174.2,451.8 -178.4,432.6 	"/>
	<polygon fill="#087BFA" points="-195.2,439.4 -195.2,459.1 -175.3,451.7 -179.2,432.8 	"/>
	<polygon fill="#077CFB" points="-196,439.5 -196,458.8 -176.4,451.5 -180.2,433.1 	"/>
</g>
<g>
	<polygon fill="#077CFB" points="-196,439.8 -195,456.8 -173.8,449.7 -180.9,433.6 	"/>
	<polygon fill="#087BFA" points="-194.6,439.2 -193.8,456.3 -172.4,449.1 -179.6,433.1 	"/>
	<polygon fill="#097BF9" points="-193.3,438.8 -192.4,455.9 -171,448.6 -178.2,432.5 	"/>
	<polygon fill="#0A7AF9" points="-191.9,438.2 -191,455.4 -169.6,448 -176.8,431.9 	"/>
	<polygon fill="#0B7AF8" points="-190.5,437.7 -189.7,454.9 -168.2,447.5 -175.4,431.4 	"/>
	<polygon fill="#0C79F7" points="-189.1,437.3 -188.3,454.5 -166.9,446.9 -174,430.8 	"/>
	<polygon fill="#0D79F6" points="-187.9,436.7 -186.9,454 -165.5,446.4 -172.6,430.3 	"/>
	<polygon fill="#0E78F5" points="-186.5,436.1 -185.7,453.5 -164.1,445.8 -171.3,429.7 	"/>
	<polygon fill="#0F78F5" points="-185.1,435.7 -184.3,453.1 -162.7,445.2 -170,429.2 	"/>
	<polygon fill="#1077F4" points="-183.8,435.2 -182.9,452.6 -161.3,444.7 -168.6,428.6 	"/>
	<polygon fill="#1176F3" points="-182.4,434.6 -181.5,452.1 -159.9,444.1 -167.2,428 	"/>
	<polygon fill="#1276F2" points="-181,434.2 -180.2,451.7 -158.5,443.6 -165.8,427.6 	"/>
	<polygon fill="#1375F1" points="-179.6,433.6 -178.8,451.2 -157.1,443 -164.4,427.1 	"/>
	<polygon fill="#1475F0" points="-178.4,433.1 -177.4,450.7 -155.7,442.4 -163,426.5 	"/>
	<polygon fill="#1574F0" points="-177,432.6 -176.1,450.3 -154.3,441.9 -161.6,425.9 	"/>
	<polygon fill="#1674EF" points="-175.6,432.1 -174.7,449.8 -152.9,441.3 -160.3,425.4 	"/>
	<polygon fill="#1773EE" points="-174.3,431.5 -173.3,449.3 -151.5,440.8 -158.9,424.8 	"/>
	<polygon fill="#1872ED" points="-172.9,431.1 -172.1,448.9 -150.1,440.2 -157.5,424.3 	"/>
	<polygon fill="#1972EC" points="-171.5,430.6 -170.7,448.4 -148.9,439.6 -156.1,423.7 	"/>
	<polygon fill="#1A71EC" points="-170.1,430 -169.3,447.9 -147.5,439.1 -154.8,423.1 	"/>
	<polygon fill="#1B71EB" points="-168.9,429.6 -168,447.5 -146.1,438.5 -153.4,422.6 	"/>
	<polygon fill="#1C70EA" points="-167.5,429 -166.6,447.1 -144.7,438 -152,422 	"/>
	<polygon fill="#1D70E9" points="-166.1,428.6 -165.2,446.5 -143.3,437.4 -150.7,421.5 	"/>
	<polygon fill="#1E6FE8" points="-164.8,428 -164,446.1 -141.9,436.8 -149.3,420.9 	"/>
	<polygon fill="#1F6FE8" points="-163.4,427.5 -162.6,445.7 -140.5,436.3 -147.9,420.3 	"/>
	<polygon fill="#206EE7" points="-162,427.1 -161.2,445.1 -139.1,435.7 -146.5,419.8 	"/>
	<polygon fill="#216DE6" points="-160.6,426.5 -159.9,444.7 -137.7,435.2 -145.1,419.2 	"/>
	<polygon fill="#226DE5" points="-159.4,425.9 -158.5,444.3 -136.3,434.6 -143.7,418.7 	"/>
	<polygon fill="#236CE4" points="-158,425.5 -157.1,443.7 -134.9,434 -142.3,418.1 	"/>
	<polygon fill="#246CE4" points="-156.6,425 -155.9,443.3 -133.5,433.5 -140.9,417.5 	"/>
	<polygon fill="#256BE3" points="-155.3,424.4 -154.5,442.9 -132.2,432.9 -139.6,417 	"/>
	<polygon fill="#266BE2" points="-153.9,424 -153.1,442.3 -130.8,432.4 -138.3,416.4 	"/>
	<polygon fill="#276AE1" points="-152.5,423.4 -151.8,441.9 -129.4,431.8 -136.9,415.9 	"/>
	<polygon fill="#2869E0" points="-151.3,422.9 -150.4,441.5 -128,431.3 -135.5,415.3 	"/>
	<polygon fill="#2969DF" points="-149.9,422.4 -149,440.9 -126.6,430.7 -134.1,414.8 	"/>
	<polygon fill="#2A68DF" points="-148.5,421.9 -147.8,440.5 -125.2,430.1 -132.7,414.2 	"/>
	<polygon fill="#2B68DE" points="-147.1,421.3 -146.4,440.1 -123.8,429.6 -131.3,413.6 	"/>
	<polygon fill="#2C67DD" points="-145.8,420.9 -145,439.5 -122.5,429 -130,413.1 	"/>
	<polygon fill="#2D67DC" points="-144.4,420.3 -143.7,439.1 -121.1,428.5 -128.6,412.5 	"/>
	<polygon fill="#2E66DB" points="-143,419.8 -142.3,438.7 -119.7,427.9 -127.2,412.1 	"/>
	<polygon fill="#2F66DB" points="-141.7,419.4 -140.9,438.1 -118.3,427.3 -125.8,411.5 	"/>
	<polygon fill="#3065DA" points="-140.3,418.8 -139.6,437.7 -116.9,426.8 -124.4,411 	"/>
	<polygon fill="#3164D9" points="-139,418.2 -138.3,437.3 -115.5,426.2 -123,410.4 	"/>
	<polygon fill="#3264D8" points="-137.6,417.8 -136.9,436.7 -114.2,425.7 -121.6,409.9 	"/>
	<polygon fill="#3363D7" points="-136.3,417.3 -135.5,436.3 -112.8,425.1 -120.4,409.3 	"/>
	<polygon fill="#3463D7" points="-134.9,416.7 -134.2,435.9 -111.4,424.5 -119,408.7 	"/>
	<polygon fill="#3562D6" points="-133.5,416.3 -132.8,435.3 -110,424 -117.6,408.2 	"/>
	<polygon fill="#3662D5" points="-132.2,415.7 -131.4,434.9 -108.6,423.4 -116.2,407.6 	"/>
	<polygon fill="#3761D4" points="-130.8,415.2 -130.1,434.5 -107.2,422.9 -114.8,407.1 	"/>
	<polygon fill="#3860D3" points="-129.4,414.8 -128.7,433.9 -105.8,422.3 -113.4,406.5 	"/>
	<polygon fill="#3960D3" points="-128,414.2 -127.3,433.5 -104.4,421.7 -112,405.9 	"/>
	<polygon fill="#3A5FD2" points="-126.8,413.8 -126.1,433.1 -103,421.2 -110.7,405.4 	"/>
	<polygon fill="#3B5FD1" points="-125.4,413.2 -124.7,432.5 -101.6,420.6 -109.3,404.8 	"/>
	<polygon fill="#3C5ED0" points="-124,412.7 -123.3,432.1 -100.2,420.1 -107.9,404.3 	"/>
	<polygon fill="#3D5ECF" points="-122.7,412.2 -122,431.7 -98.8,419.5 -106.5,403.7 	"/>
	<polygon fill="#3E5DCE" points="-121.3,411.7 -120.6,431.1 -97.4,418.9 -105.1,403.1 	"/>
	<polygon fill="#3F5DCE" points="-119.9,411.1 -119.2,430.7 -96.2,418.4 -103.7,402.6 	"/>
	<polygon fill="#405CCD" points="-118.5,410.7 -118,430.3 -94.8,417.8 -102.3,402 	"/>
	<polygon fill="#415BCC" points="-117.3,410.1 -116.6,429.7 -93.4,417.3 -100.9,401.5 	"/>
	<polygon fill="#425BCB" points="-115.9,409.6 -115.2,429.3 -92,416.7 -99.7,400.9 	"/>
	<polygon fill="#435ACA" points="-114.5,409.2 -113.9,428.9 -90.6,416.1 -98.3,400.3 	"/>
	<polygon fill="#445ACA" points="-113.2,408.6 -112.5,428.5 -89.2,415.6 -96.9,399.8 	"/>
	<polygon fill="#4559C9" points="-111.8,408 -111.1,427.9 -87.8,415.2 -95.5,399.2 	"/>
	<polygon fill="#4659C8" points="-110.4,407.6 -109.9,427.5 -86.4,414.6 -94.1,398.7 	"/>
	<polygon fill="#4758C7" points="-109,407.1 -108.5,427.1 -85,414.1 -92.7,398.1 	"/>
	<polygon fill="#4857C6" points="-107.8,406.5 -107.1,426.5 -83.6,413.5 -91.3,397.6 	"/>
	<polygon fill="#4957C6" points="-106.4,406.1 -105.8,426.1 -82.2,412.9 -90,397 	"/>
	<polygon fill="#4A56C5" points="-105,405.5 -104.4,425.7 -80.8,412.4 -88.6,396.6 	"/>
	<polygon fill="#4B56C4" points="-103.7,405 -103,425.1 -79.4,411.8 -87.2,396 	"/>
	<polygon fill="#4C55C3" points="-102.3,404.5 -101.8,424.7 -78.1,411.3 -85.8,395.5 	"/>
	<polygon fill="#4D55C2" points="-100.9,404 -100.4,424.3 -76.7,410.7 -84.4,394.9 	"/>
	<polygon fill="#4E54C2" points="-99.5,403.4 -99,423.7 -75.3,410.1 -83,394.3 	"/>
	<polygon fill="#4F54C1" points="-98.3,403 -97.7,423.3 -73.9,409.6 -81.6,393.8 	"/>
	<polygon fill="#5053C0" points="-96.9,402.4 -96.3,422.9 -72.5,409 -80.4,393.2 	"/>
	<polygon fill="#5152BF" points="-95.5,401.9 -94.9,422.3 -71.1,408.5 -79,392.7 	"/>
	<polygon fill="#5252BE" points="-94.2,401.5 -93.6,421.9 -69.7,407.9 -77.6,392.1 	"/>
	<polygon fill="#5351BD" points="-92.8,400.9 -92.2,421.5 -68.3,407.3 -76.2,391.5 	"/>
	<polygon fill="#5451BD" points="-91.4,400.5 -90.8,420.9 -66.9,406.8 -74.8,391 	"/>
	<polygon fill="#5550BC" points="-90,399.9 -89.5,420.5 -65.5,406.2 -73.4,390.4 	"/>
	<polygon fill="#5650BB" points="-88.8,399.4 -88.2,420.1 -64.1,405.7 -72,389.9 	"/>
	<polygon fill="#574FBA" points="-87.4,399 -86.8,419.5 -62.7,405.1 -70.7,389.3 	"/>
	<polygon fill="#584EB9" points="-86,398.4 -85.4,419.1 -61.5,404.5 -69.3,388.7 	"/>
	<polygon fill="#594EB9" points="-84.7,397.8 -84.1,418.7 -60.1,404 -67.9,388.2 	"/>
	<polygon fill="#5A4DB8" points="-83.3,397.4 -82.7,418.1 -58.7,403.4 -66.5,387.6 	"/>
	<polygon fill="#5B4DB7" points="-81.9,396.9 -81.3,417.7 -57.3,402.9 -65.1,387.1 	"/>
	<polygon fill="#5C4CB6" points="-80.6,396.3 -80.1,417.3 -55.9,402.3 -63.7,386.5 	"/>
	<polygon fill="#5D4CB5" points="-79.2,395.9 -78.7,416.7 -54.5,401.7 -62.3,385.9 	"/>
	<polygon fill="#5E4BB5" points="-77.8,395.3 -77.3,416.3 -53.1,401.2 -60.9,385.4 	"/>
	<polygon fill="#5F4BB4" points="-76.4,394.8 -76,415.9 -51.7,400.6 -59.7,384.8 	"/>
	<polygon fill="#604AB3" points="-75.2,394.3 -74.6,415.3 -50.3,400.1 -58.3,384.3 	"/>
	<polygon fill="#6149B2" points="-73.8,393.8 -73.2,414.9 -48.9,399.5 -56.9,383.7 	"/>
	<polygon fill="#6249B1" points="-72.4,393.2 -72,414.5 -47.5,399 -55.5,383.1 	"/>
	<polygon fill="#6348B1" points="-71.1,392.8 -70.6,413.9 -46.1,398.4 -54.1,382.6 	"/>
	<polygon fill="#6448B0" points="-69.7,392.2 -69.2,413.5 -44.7,397.8 -52.7,382 	"/>
	<polygon fill="#6547AF" points="-68.3,391.7 -67.9,413.1 -43.4,397.3 -51.3,381.5 	"/>
	<polygon fill="#6647AE" points="-66.9,391.3 -66.5,412.5 -42.1,396.7 -50,380.9 	"/>
	<polygon fill="#6746AD" points="-65.7,390.7 -65.1,412.1 -40.7,396.2 -48.6,380.5 	"/>
	<polygon fill="#6846AD" points="-64.3,390.1 -63.9,411.7 -39.3,395.6 -47.2,379.9 	"/>
	<polygon fill="#6945AC" points="-62.9,389.7 -62.5,411.1 -37.9,395 -45.8,379.4 	"/>
	<polygon fill="#6A44AB" points="-61.6,389.2 -61.1,410.7 -36.5,394.5 -44.4,378.8 	"/>
	<polygon fill="#6B44AA" points="-60.2,388.6 -59.8,410.3 -35.1,393.9 -43,378.3 	"/>
	<polygon fill="#6C43A9" points="-58.8,388.2 -58.4,409.7 -33.7,393.4 -41.6,377.7 	"/>
	<polygon fill="#6D43A8" points="-57.4,387.6 -57,409.3 -32.3,392.8 -40.4,377.1 	"/>
	<polygon fill="#6E42A8" points="-56.2,387.1 -55.8,408.9 -30.9,392.2 -39,376.6 	"/>
	<polygon fill="#6F42A7" points="-54.8,386.6 -54.4,408.3 -29.5,391.7 -37.6,376 	"/>
	<polygon fill="#7041A6" points="-53.4,386.1 -53,407.9 -28.1,391.1 -36.2,375.5 	"/>
	<polygon fill="#7140A5" points="-52.1,385.7 -51.7,407.5 -26.7,390.6 -34.8,374.9 	"/>
	<polygon fill="#7240A4" points="-50.7,385.1 -50.3,406.9 -25.4,390 -33.4,374.3 	"/>
	<polygon fill="#733FA4" points="-49.3,384.5 -48.9,406.5 -24,389.4 -32,373.8 	"/>
	<polygon fill="#743FA3" points="-47.9,384.1 -47.5,406.1 -22.6,388.9 -30.7,373.2 	"/>
	<polygon fill="#753EA2" points="-46.7,383.6 -46.2,405.5 -21.2,388.3 -29.3,372.7 	"/>
	<polygon fill="#763EA1" points="-45.3,383 -44.8,405.1 -19.8,387.8 -27.9,372.1 	"/>
	<polygon fill="#773DA0" points="-43.9,382.6 -43.4,404.7 -18.4,387.2 -26.5,371.5 	"/>
	<polygon fill="#783DA0" points="-42.6,382 -42.2,404.1 -17,386.6 -25.1,371 	"/>
	<polygon fill="#793C9F" points="-41.2,381.5 -40.8,403.7 -15.6,386.1 -23.7,370.4 	"/>
	<polygon fill="#7A3B9E" points="-39.8,381.1 -39.4,403.3 -14.2,385.5 -22.3,369.9 	"/>
	<polygon fill="#7B3B9D" points="-38.4,380.5 -38.1,402.7 -12.8,385 -20.9,369.3 	"/>
	<polygon fill="#7C3A9C" points="-37.2,379.9 -36.7,402.3 -11.4,384.4 -19.7,368.7 	"/>
	<polygon fill="#7D3A9C" points="-35.8,379.5 -35.3,401.9 -10,383.8 -18.3,368.2 	"/>
	<polygon fill="#7E399B" points="-34.4,379 -34.1,401.5 -8.8,383.3 -16.9,367.6 	"/>
	<polygon fill="#7F399A" points="-33.1,378.4 -32.7,400.9 -7.4,382.7 -15.5,367.1 	"/>
	<polygon fill="#803899" points="-31.7,378 -31.3,400.5 -6,382.2 -14.1,366.5 	"/>
	<polygon fill="#813798" points="-30.3,377.4 -30,400.1 -4.6,381.6 -12.7,366 	"/>
	<polygon fill="#823797" points="-28.9,376.9 -28.6,399.5 -3.2,381.1 -11.3,365.4 	"/>
	<polygon fill="#833697" points="-27.6,376.4 -27.2,399.1 -1.8,380.5 -10,365 	"/>
	<polygon fill="#843696" points="-26.2,375.9 -26,398.7 -0.4,379.9 -8.6,364.4 	"/>
	<polygon fill="#853595" points="-24.9,375.3 -24.6,398.1 1,379.4 -7.2,363.9 	"/>
	<polygon fill="#863594" points="-23.6,374.9 -23.2,397.7 2.4,378.8 -5.8,363.3 	"/>
	<polygon fill="#873493" points="-22.2,374.3 -21.9,397.3 3.8,378.3 -4.4,362.7 	"/>
	<polygon fill="#883493" points="-20.8,373.8 -20.5,396.7 5.2,377.7 -3,362.2 	"/>
	<polygon fill="#893392" points="-19.4,373.4 -19.1,396.3 6.6,377.1 -1.6,361.6 	"/>
	<polygon fill="#8A3291" points="-18.1,372.8 -17.9,395.9 8,376.6 -0.4,361.1 	"/>
	<polygon fill="#8B3290" points="-16.7,372.4 -16.5,395.3 9.3,376 1,360.5 	"/>
	<polygon fill="#8C318F" points="-15.3,371.8 -15.1,394.9 10.7,375.5 2.4,359.9 	"/>
	<polygon fill="#8D318F" points="-14.1,371.3 -13.8,394.5 12.1,374.9 3.8,359.4 	"/>
	<polygon fill="#8E308E" points="-12.7,370.8 -12.4,393.9 13.5,374.3 5.2,358.8 	"/>
	<polygon fill="#8F308D" points="-11.3,370.3 -11,393.5 14.9,373.8 6.6,358.3 	"/>
	<polygon fill="#902F8C" points="-10,369.7 -9.8,393.1 16.3,373.2 8,357.7 	"/>
	<polygon fill="#912E8B" points="-8.6,369.3 -8.4,392.5 17.7,372.7 9.3,357.1 	"/>
	<polygon fill="#922E8B" points="-7.2,368.7 -7,392.1 19.1,372.1 10.7,356.6 	"/>
	<polygon fill="#932D8A" points="-5.8,368.2 -5.7,391.7 20.5,371.5 12.1,356 	"/>
	<polygon fill="#942D89" points="-4.6,367.8 -4.3,391.1 21.9,371 13.5,355.5 	"/>
	<polygon fill="#952C88" points="-3.2,367.2 -2.9,390.7 23.2,370.6 14.9,354.9 	"/>
	<polygon fill="#962C87" points="-1.8,366.6 -1.5,390.3 24.6,370 16.3,354.3 	"/>
	<polygon fill="#972B86" points="-0.5,366.2 -0.2,389.7 26,369.4 17.7,353.8 	"/>
	<polygon fill="#982B86" points="0.9,365.7 1.2,389.3 27.3,368.9 19.1,353.2 	"/>
	<polygon fill="#992A85" points="2.3,365.1 2.6,388.9 28.7,368.3 20.3,352.7 	"/>
	<polygon fill="#9A2984" points="3.7,364.7 3.8,388.3 30.1,367.8 21.7,352.1 	"/>
	<polygon fill="#9B2983" points="4.9,364.1 5.2,387.9 31.5,367.2 23.1,351.5 	"/>
	<polygon fill="#9C2882" points="6.3,363.6 6.6,387.5 32.9,366.6 24.5,351 	"/>
	<polygon fill="#9D2882" points="7.7,363.2 7.9,386.9 34.3,366.1 25.9,350.4 	"/>
	<polygon fill="#9E2781" points="9,362.6 9.3,386.5 35.7,365.5 27.3,349.9 	"/>
	<polygon fill="#9F2780" points="10.4,362 10.7,386.1 37.1,365 28.7,349.5 	"/>
	<polygon fill="#A0267F" points="11.8,361.6 11.9,385.5 38.5,364.4 30,348.9 	"/>
	<polygon fill="#A1257E" points="13.2,361.1 13.3,385.1 39.9,363.9 31.4,348.3 	"/>
	<polygon fill="#A2257E" points="14.4,360.5 14.7,384.7 41.3,363.3 32.8,347.8 	"/>
	<polygon fill="#A3247D" points="15.8,360.1 16,384.1 42.7,362.7 34.2,347.2 	"/>
	<polygon fill="#A4247C" points="17.2,359.5 17.4,383.7 44.1,362.2 35.6,346.7 	"/>
	<polygon fill="#A5237B" points="18.5,359 18.8,383.3 45.3,361.6 37,346.1 	"/>
	<polygon fill="#A6237A" points="19.9,358.5 20,382.7 46.7,361.1 38.4,345.5 	"/>
	<polygon fill="#A7227A" points="21.3,358 21.4,382.3 48.1,360.5 39.6,345 	"/>
	<polygon fill="#A82279" points="22.7,357.6 22.8,381.9 49.5,359.9 41,344.4 	"/>
	<polygon fill="#A92178" points="23.9,357 24.1,381.3 50.9,359.4 42.4,343.9 	"/>
	<polygon fill="#AA2077" points="25.3,356.4 25.5,380.9 52.3,358.8 43.8,343.3 	"/>
	<polygon fill="#AB2076" points="26.7,356 26.9,380.5 53.7,358.3 45.2,342.7 	"/>
	<polygon fill="#AC1F75" points="28,355.5 28.1,379.9 55.1,357.7 46.6,342.2 	"/>
	<polygon fill="#AD1F75" points="29.4,354.9 29.5,379.5 56.5,357.1 48,341.6 	"/>
	<polygon fill="#AE1E74" points="30.8,354.5 30.9,379.1 57.9,356.6 49.3,341.1 	"/>
	<polygon fill="#AF1E73" points="32.2,353.9 32.2,378.5 59.3,356 50.7,340.5 	"/>
	<polygon fill="#B01D72" points="33.5,353.4 33.6,378.1 60.7,355.5 52.1,339.9 	"/>
	<polygon fill="#B11C71" points="34.9,352.9 35,377.7 62,354.9 53.5,339.4 	"/>
	<polygon fill="#B21C71" points="36.3,352.4 36.3,377.1 63.4,354.3 54.9,338.8 	"/>
	<polygon fill="#B31B70" points="37.5,351.8 37.7,376.7 64.8,353.8 56.2,338.3 	"/>
	<polygon fill="#B41B6F" points="38.9,351.4 39,376.3 66.2,353.2 57.6,337.7 	"/>
	<polygon fill="#B51A6E" points="40.3,350.8 40.4,375.7 67.6,352.7 59,337.1 	"/>
	<polygon fill="#B61A6D" points="41.7,350.3 41.7,375.3 69,352.1 60.3,336.6 	"/>
	<polygon fill="#B7196D" points="43,349.9 43.1,374.9 70.4,351.5 61.7,336 	"/>
	<polygon fill="#B8196C" points="44.4,349.3 44.5,374.3 71.8,351 63.1,335.5 	"/>
	<polygon fill="#B9186B" points="45.8,348.8 45.8,373.9 73.2,350.4 64.5,334.9 	"/>
	<polygon fill="#BA176A" points="47,348.3 47.2,373.5 74.6,349.9 65.9,334.3 	"/>
	<polygon fill="#BB1769" points="48.4,347.8 48.6,373.1 76,349.3 67.3,333.9 	"/>
	<polygon fill="#BC1669" points="49.8,347.2 49.8,372.5 77.4,348.8 68.7,333.4 	"/>
	<polygon fill="#BD1668" points="51.2,346.8 51.2,372.1 78.8,348.2 70,332.8 	"/>
	<polygon fill="#BE1567" points="52.5,346.2 52.6,371.7 80,347.6 71.3,332.3 	"/>
	<polygon fill="#BF1566" points="53.9,345.7 53.9,371.1 81.4,347.1 72.7,331.7 	"/>
	<polygon fill="#C01465" points="55.3,345.3 55.3,370.7 82.8,346.5 74.1,331.1 	"/>
	<polygon fill="#C11364" points="56.5,344.7 56.7,370.3 84.2,346 75.5,330.6 	"/>
	<polygon fill="#C21364" points="57.9,344.1 57.9,369.7 85.6,345.4 76.9,330 	"/>
	<polygon fill="#C31263" points="59.3,343.7 59.3,369.3 87,344.8 78.3,329.5 	"/>
	<polygon fill="#C41262" points="60.6,343.2 60.7,368.9 88.4,344.3 79.6,328.9 	"/>
	<polygon fill="#C51161" points="62,342.7 62,368.3 89.8,343.7 81,328.3 	"/>
	<polygon fill="#C61160" points="63.4,342.2 63.4,367.9 91.2,343.2 82.4,327.8 	"/>
	<polygon fill="#C71060" points="64.8,341.6 64.8,367.5 92.6,342.6 83.8,327.2 	"/>
	<polygon fill="#C8105F" points="66,341.2 66,366.9 94,342 85.2,326.7 	"/>
	<polygon fill="#C90F5E" points="86.3,326.1 66.9,340.6 66.9,366.5 95,341.5 	"/>
</g>
<g>
	<polygon fill="#CC277E" points="-64,416.3 -132.4,453.6 -47.8,465.2 -31,451.7 	"/>
	<polygon fill="#CC267D" points="-59.4,413.5 -126.4,450 -43.9,461.9 -27.2,448.3 	"/>
	<polygon fill="#CC267C" points="-54.9,410.8 -120.4,446.4 -40.1,458.5 -23.3,445 	"/>
	<polygon fill="#CC257B" points="-50.3,408 -114.3,442.7 -36.2,455.2 -19.5,441.6 	"/>
	<polygon fill="#CC247A" points="-45.8,405.2 -108.2,439.1 -32.3,451.8 -15.6,438.2 	"/>
	<polygon fill="#CC2379" points="-41.2,402.6 -102.2,435.4 -28.3,448.4 -11.8,434.9 	"/>
	<polygon fill="#CB2378" points="-36.6,399.8 -96.2,431.8 -24.6,445.2 -8.1,431.5 	"/>
	<polygon fill="#CB2277" points="-32.1,397.1 -90.2,428.2 -20.7,441.9 -4.2,428.3 	"/>
	<polygon fill="#CB2176" points="-27.5,394.3 -84.1,424.5 -16.7,438.5 -0.4,425 	"/>
	<polygon fill="#CB2075" points="-22.9,391.7 -78.1,420.9 -12.8,435.2 3.4,421.6 	"/>
	<polygon fill="#CB2074" points="-18.4,388.9 -72.1,417.3 -9.1,431.8 7.3,418.2 	"/>
	<polygon fill="#CB1F73" points="-13.8,386.2 -66.1,413.6 -5.1,428.5 11.1,414.9 	"/>
	<polygon fill="#CB1E72" points="-9.2,383.4 -59.9,410 -1.2,425.1 15,411.5 	"/>
	<polygon fill="#CB1E71" points="-4.7,380.8 -53.9,406.4 2.7,421.7 18.8,408.2 	"/>
	<polygon fill="#CB1D70" points="-0.1,378 -47.9,402.7 6.5,418.5 22.6,404.8 	"/>
	<polygon fill="#CB1C6F" points="4.4,375.3 -41.9,399.2 10.4,415.2 26.5,401.6 	"/>
	<polygon fill="#CB1B6E" points="9,372.5 -35.9,395.6 14.3,411.8 30.2,398.3 	"/>
	<polygon fill="#CA1B6E" points="13.6,369.9 -29.9,392 18.2,408.5 34,394.9 	"/>
	<polygon fill="#CA1A6D" points="18.1,367.1 -23.9,388.3 22,405.1 37.9,391.5 	"/>
	<polygon fill="#CA196C" points="22.7,364.3 -17.9,384.7 25.9,401.7 41.7,388.2 	"/>
	<polygon fill="#CA186B" points="27.3,361.6 -11.7,381.1 29.8,398.4 45.6,384.8 	"/>
	<polygon fill="#CA186A" points="31.8,358.8 -5.7,377.4 33.6,395.2 49.4,381.5 	"/>
	<polygon fill="#CA1769" points="36.4,356.2 0.3,373.8 37.5,391.8 53.2,378.3 	"/>
	<polygon fill="#CA1668" points="40.9,353.4 6.3,370.1 41.4,388.5 57.1,374.9 	"/>
	<polygon fill="#CA1667" points="45.5,350.7 12.3,366.5 45.3,385.1 60.9,371.5 	"/>
	<polygon fill="#CA1566" points="50.1,347.9 18.4,362.9 49.1,381.8 64.8,368.2 	"/>
	<polygon fill="#CA1465" points="54.6,345.3 24.4,359.2 53,378.4 68.6,364.8 	"/>
	<polygon fill="#CA1364" points="59.2,342.5 30.4,355.6 56.9,375 72.3,361.5 	"/>
	<polygon fill="#C91363" points="63.8,339.8 36.5,352 60.9,371.7 76.2,358.1 	"/>
	<polygon fill="#C91262" points="68.3,337 42.5,348.3 64.6,368.5 80,354.9 	"/>
	<polygon fill="#C91161" points="72.9,334.3 48.6,344.7 68.6,365.1 83.8,351.5 	"/>
	<polygon fill="#C91060" points="77.4,331.6 54.6,341.1 72.5,361.8 87.7,348.2 	"/>
	<polygon fill="#C9105F" points="82,328.9 60.6,337.4 76.4,358.4 91.5,344.8 	"/>
	<polygon fill="#C90F5E" points="86.6,326.1 66.6,333.8 80.2,355 95.4,341.5 	"/>
</g>
<g>
	<polygon fill="#FDB60D" points="-121.9,337.1 -183.6,409.4 -165.7,422.4 -84,390.7 	"/>
	<polygon fill="#FDB50D" points="-121.6,337.6 -183.1,409.7 -165.1,422.7 -83.9,391.1 	"/>
	<polygon fill="#FCB40E" points="-121.2,338.1 -182.9,410 -164.7,423.1 -83.6,391.5 	"/>
	<polygon fill="#FCB30E" points="-120.9,338.5 -182.6,410.3 -164.1,423.4 -83.3,392 	"/>
	<polygon fill="#FCB20F" points="-120.5,339.1 -182.3,410.4 -163.7,423.8 -83.2,392.4 	"/>
	<polygon fill="#FBB10F" points="-120.2,339.5 -182,410.7 -163.1,424.1 -82.9,392.9 	"/>
	<polygon fill="#FBB010" points="-119.8,339.9 -181.7,411 -162.7,424.5 -82.7,393.4 	"/>
	<polygon fill="#FBAF10" points="-119.5,340.5 -181.3,411.3 -162.2,424.8 -82.5,393.8 	"/>
	<polygon fill="#FBAE11" points="-119.1,340.9 -181,411.5 -161.7,425.2 -82.3,394.2 	"/>
	<polygon fill="#FAAD11" points="-118.8,341.5 -180.8,411.8 -161.2,425.5 -82,394.6 	"/>
	<polygon fill="#FAAC12" points="-118.4,341.9 -180.5,412.1 -160.8,425.8 -81.9,395.2 	"/>
	<polygon fill="#FAAB12" points="-118.1,342.3 -180.2,412.4 -160.2,426.2 -81.6,395.6 	"/>
	<polygon fill="#F9AA13" points="-117.7,342.9 -179.8,412.7 -159.8,426.5 -81.3,396 	"/>
	<polygon fill="#F9A913" points="-117.4,343.3 -179.5,412.9 -159.2,426.9 -81.2,396.4 	"/>
	<polygon fill="#F9A814" points="-117,343.9 -179.2,413.2 -158.7,427.2 -80.9,396.9 	"/>
	<polygon fill="#F8A714" points="-116.7,344.3 -178.9,413.5 -158.2,427.6 -80.8,397.3 	"/>
	<polygon fill="#F8A615" points="-116.3,344.8 -178.7,413.8 -157.7,427.9 -80.5,397.8 	"/>
	<polygon fill="#F8A515" points="-116,345.3 -178.2,413.9 -157.3,428.3 -80.4,398.3 	"/>
	<polygon fill="#F7A416" points="-115.6,345.7 -178,414.2 -156.7,428.6 -80.1,398.7 	"/>
	<polygon fill="#F7A316" points="-115.3,346.2 -177.7,414.5 -156.3,429 -79.9,399.1 	"/>
	<polygon fill="#F7A217" points="-114.9,346.7 -177.4,414.8 -155.7,429.3 -79.7,399.5 	"/>
	<polygon fill="#F6A117" points="-114.6,347.2 -177.1,415 -155.3,429.6 -79.5,400.1 	"/>
	<polygon fill="#F6A018" points="-114.2,347.6 -176.7,415.3 -154.8,430 -79.2,400.5 	"/>
	<polygon fill="#F69F18" points="-113.9,348.1 -176.4,415.6 -154.3,430.3 -79,400.9 	"/>
	<polygon fill="#F69E19" points="-113.6,348.6 -176.1,415.9 -153.8,430.7 -78.8,401.3 	"/>
	<polygon fill="#F59D19" points="-113.2,349 -175.9,416.1 -153.4,431 -78.5,401.7 	"/>
	<polygon fill="#F59C1A" points="-112.9,349.6 -175.6,416.4 -152.8,431.4 -78.4,402.3 	"/>
	<polygon fill="#F59B1A" points="-112.5,350 -175.3,416.7 -152.4,431.7 -78.1,402.7 	"/>
	<polygon fill="#F49A1B" points="-112.2,350.4 -174.9,417 -151.8,432.1 -78,403.1 	"/>
	<polygon fill="#F4991B" points="-111.8,351 -174.6,417.1 -151.4,432.4 -77.7,403.6 	"/>
	<polygon fill="#F4981C" points="-111.5,351.4 -174.3,417.4 -150.8,432.8 -77.6,404 	"/>
	<polygon fill="#F3971C" points="-111.1,352 -174,417.7 -150.4,433.1 -77.3,404.5 	"/>
	<polygon fill="#F3961D" points="-110.8,352.4 -173.8,418 -149.9,433.5 -77,405 	"/>
	<polygon fill="#F3951D" points="-110.4,352.9 -173.3,418.2 -149.4,433.8 -76.9,405.4 	"/>
	<polygon fill="#F2941D" points="-110.1,353.4 -173.1,418.5 -148.9,434 -76.6,405.8 	"/>
	<polygon fill="#F2931E" points="-109.7,353.8 -172.8,418.8 -148.5,434.5 -76.4,406.2 	"/>
	<polygon fill="#F2921E" points="-109.4,354.3 -172.5,419.1 -147.9,434.7 -76.2,406.8 	"/>
	<polygon fill="#F1911F" points="-109,354.8 -172.2,419.4 -147.5,435.2 -76,407.2 	"/>
	<polygon fill="#F1901F" points="-108.7,355.3 -171.8,419.6 -146.9,435.4 -75.7,407.6 	"/>
	<polygon fill="#F18F20" points="-108.3,355.7 -171.5,419.9 -146.5,435.9 -75.6,408 	"/>
	<polygon fill="#F18E20" points="-108,356.2 -171.3,420.2 -145.9,436.1 -75.3,408.5 	"/>
	<polygon fill="#F08D21" points="-107.6,356.7 -171,420.5 -145.5,436.6 -75,408.9 	"/>
	<polygon fill="#F08C21" points="-107.3,357.1 -170.7,420.6 -145,436.8 -74.9,409.4 	"/>
	<polygon fill="#F08B22" points="-106.9,357.7 -170.4,420.9 -144.5,437.3 -74.6,409.9 	"/>
	<polygon fill="#EF8A22" points="-106.7,358.1 -170,421.2 -144,437.5 -74.5,410.3 	"/>
	<polygon fill="#EF8923" points="-106.2,358.7 -169.7,421.5 -143.6,437.8 -74.2,410.7 	"/>
	<polygon fill="#EF8823" points="-106,359.1 -169.4,421.7 -143,438.2 -74.1,411.1 	"/>
	<polygon fill="#EE8724" points="-105.5,359.5 -169.2,422 -142.6,438.5 -73.8,411.7 	"/>
	<polygon fill="#EE8624" points="-105.3,360.1 -168.9,422.3 -142,438.9 -73.7,412.1 	"/>
	<polygon fill="#EE8525" points="-105,360.5 -168.5,422.6 -141.6,439.2 -73.4,412.5 	"/>
	<polygon fill="#ED8425" points="-104.6,361.1 -168.2,422.9 -141,439.6 -73.2,412.9 	"/>
	<polygon fill="#ED8326" points="-104.3,361.5 -167.9,423.1 -140.6,439.9 -73,413.4 	"/>
	<polygon fill="#ED8226" points="-103.9,361.9 -167.6,423.4 -140.1,440.3 -72.7,413.9 	"/>
	<polygon fill="#EC8127" points="-103.6,362.5 -167.3,423.7 -139.6,440.6 -72.5,414.3 	"/>
	<polygon fill="#EC8027" points="-103.2,362.9 -166.9,423.8 -139.1,441 -72.3,414.8 	"/>
	<polygon fill="#EC7F28" points="-102.9,363.4 -166.6,424.1 -138.7,441.3 -72.1,415.2 	"/>
	<polygon fill="#EC7E28" points="-102.5,363.9 -166.4,424.4 -138.1,441.6 -71.8,415.6 	"/>
	<polygon fill="#EB7D29" points="-102.2,364.3 -166.1,424.7 -137.7,442 -71.7,416.1 	"/>
	<polygon fill="#EB7C29" points="-101.8,364.8 -165.8,425 -137.1,442.3 -71.4,416.6 	"/>
	<polygon fill="#EB7B2A" points="-101.5,365.3 -165.4,425.2 -136.7,442.7 -71.3,417 	"/>
	<polygon fill="#EA7A2A" points="-101.1,365.8 -165.1,425.5 -136.2,443 -71,417.4 	"/>
	<polygon fill="#EA792B" points="-100.8,366.2 -164.8,425.8 -135.7,443.4 -70.7,417.8 	"/>
	<polygon fill="#EA782B" points="-100.4,366.8 -164.5,426.1 -135.2,443.7 -70.6,418.4 	"/>
	<polygon fill="#E9772C" points="-100.1,367.2 -164.3,426.4 -134.8,444.1 -70.3,418.8 	"/>
	<polygon fill="#E9762C" points="-99.7,367.6 -164,426.6 -134.2,444.4 -70.2,419.2 	"/>
	<polygon fill="#E9752D" points="-99.4,368.2 -163.6,426.9 -133.8,444.8 -69.9,419.6 	"/>
	<polygon fill="#E8742D" points="-99,368.6 -163.3,427.2 -133.2,445.1 -69.7,420.1 	"/>
	<polygon fill="#E8732D" points="-98.7,369.2 -163,427.3 -132.8,445.4 -69.5,420.5 	"/>
	<polygon fill="#E8722E" points="-98.3,369.6 -162.7,427.6 -132.2,445.8 -69.3,421 	"/>
	<polygon fill="#E8712E" points="-98,370 -162.4,427.9 -131.8,446.1 -69,421.5 	"/>
	<polygon fill="#E7702F" points="-97.6,370.6 -162,428.2 -131.3,446.5 -68.8,421.9 	"/>
	<polygon fill="#E76F2F" points="-97.3,371 -161.7,428.5 -130.8,446.8 -68.6,422.3 	"/>
	<polygon fill="#E76E30" points="-97,371.5 -161.5,428.7 -130.3,447.2 -68.3,422.7 	"/>
	<polygon fill="#E66D30" points="-96.6,372 -161.2,429 -129.9,447.5 -68.2,423.3 	"/>
	<polygon fill="#E66C31" points="-96.3,372.4 -160.9,429.3 -129.3,447.9 -67.9,423.7 	"/>
	<polygon fill="#E66B31" points="-95.9,372.9 -160.5,429.6 -128.9,448.2 -67.8,424.1 	"/>
	<polygon fill="#E56A32" points="-95.6,373.4 -160.2,429.9 -128.3,448.6 -67.5,424.5 	"/>
	<polygon fill="#E56932" points="-95.2,373.9 -159.9,430.1 -127.9,448.9 -67.4,425 	"/>
	<polygon fill="#E56833" points="-94.9,374.3 -159.6,430.4 -127.3,449.3 -67.1,425.5 	"/>
	<polygon fill="#E46733" points="-94.5,374.9 -159.4,430.6 -126.9,449.6 -66.9,425.9 	"/>
	<polygon fill="#E46634" points="-94.2,375.3 -158.9,430.8 -126.4,449.8 -66.7,426.4 	"/>
	<polygon fill="#E46534" points="-93.8,375.7 -158.7,431.1 -125.9,450.3 -66.4,426.8 	"/>
	<polygon fill="#E36435" points="-93.5,376.3 -158.4,431.4 -125.4,450.5 -66.2,427.2 	"/>
	<polygon fill="#E36335" points="-93.1,376.7 -158.1,431.7 -125,451 -66,427.8 	"/>
	<polygon fill="#E36236" points="-92.8,377.3 -157.8,431.9 -124.4,451.2 -65.8,428.2 	"/>
	<polygon fill="#E36136" points="-92.4,377.7 -157.5,432.2 -123.8,451.7 -65.5,428.6 	"/>
	<polygon fill="#E26037" points="-92.1,378.1 -157.1,432.5 -123.4,451.9 -65.4,429 	"/>
	<polygon fill="#E25F37" points="-91.7,378.7 -156.8,432.8 -122.9,452.4 -65.1,429.4 	"/>
	<polygon fill="#E25E38" points="-91.4,379.1 -156.6,433.1 -122.5,452.6 -65,430 	"/>
	<polygon fill="#E15D38" points="-91,379.7 -156.3,433.3 -121.9,453.1 -64.7,430.4 	"/>
	<polygon fill="#E15C39" points="-90.7,380.1 -156,433.6 -121.5,453.3 -64.4,430.8 	"/>
	<polygon fill="#E15B39" points="-90.3,380.6 -155.6,433.9 -120.9,453.6 -64.3,431.3 	"/>
	<polygon fill="#E05A3A" points="-90,381.1 -155.3,434 -120.5,454 -64,431.7 	"/>
	<polygon fill="#E0593A" points="-89.6,381.5 -155,434.3 -119.9,454.3 -63.9,432.1 	"/>
	<polygon fill="#E0583B" points="-89.3,382 -154.8,434.6 -119.5,454.7 -63.6,432.6 	"/>
	<polygon fill="#DF573B" points="-89,382.5 -154.5,434.9 -119,455 -63.4,433.1 	"/>
	<polygon fill="#DF563C" points="-88.6,383 -154.1,435.2 -118.5,455.4 -63.2,433.5 	"/>
	<polygon fill="#DF553C" points="-88.3,383.4 -153.8,435.4 -118,455.7 -63,433.9 	"/>
	<polygon fill="#DE543D" points="-87.9,383.8 -153.5,435.7 -117.6,456.1 -62.7,434.3 	"/>
	<polygon fill="#DE533D" points="-87.6,384.4 -153.2,436 -117,456.4 -62.6,434.9 	"/>
	<polygon fill="#DE523E" points="-87.2,384.8 -152.9,436.3 -116.6,456.8 -62.3,435.3 	"/>
	<polygon fill="#DE513E" points="-86.9,385.4 -152.7,436.6 -116,457.1 -62,435.7 	"/>
	<polygon fill="#DD503E" points="-86.5,385.8 -152.2,436.8 -115.6,457.4 -61.9,436.1 	"/>
	<polygon fill="#DD4F3F" points="-86.2,386.2 -152,437.1 -115,457.8 -61.6,436.6 	"/>
	<polygon fill="#DD4E3F" points="-85.8,386.8 -151.7,437.3 -114.6,458.1 -61.5,437.1 	"/>
	<polygon fill="#DC4D40" points="-85.5,387.2 -151.4,437.5 -114.1,458.5 -61.2,437.5 	"/>
	<polygon fill="#DC4C40" points="-85.1,387.8 -151.1,437.8 -113.6,458.8 -61.1,438 	"/>
	<polygon fill="#DC4B41" points="-84.8,388.2 -150.7,438.1 -113.1,459.2 -60.8,438.4 	"/>
	<polygon fill="#DB4A41" points="-84.4,388.7 -150.4,438.4 -112.7,459.5 -60.6,438.8 	"/>
	<polygon fill="#DB4942" points="-84.1,389.2 -150.1,438.7 -112.1,459.9 -60.4,439.4 	"/>
	<polygon fill="#DB4842" points="-83.7,389.6 -149.9,438.9 -111.7,460.2 -60.1,439.8 	"/>
	<polygon fill="#DA4743" points="-83.4,390.1 -149.6,439.2 -111.1,460.6 -59.9,440.2 	"/>
	<polygon fill="#DA4643" points="-83,390.6 -149.2,439.5 -110.7,460.9 -59.7,440.6 	"/>
	<polygon fill="#DA4544" points="-82.7,391.1 -148.9,439.8 -110.1,461.2 -59.5,441 	"/>
	<polygon fill="#DA4444" points="-82.3,391.5 -148.6,440.1 -109.7,461.6 -59.2,441.6 	"/>
	<polygon fill="#D94345" points="-82,392 -148.3,440.3 -109.2,461.9 -59.1,442 	"/>
	<polygon fill="#D94245" points="-81.6,392.5 -148,440.6 -108.7,462.3 -58.8,442.4 	"/>
	<polygon fill="#D94146" points="-81.3,392.9 -147.6,440.8 -108.2,462.6 -58.7,442.9 	"/>
	<polygon fill="#D84046" points="-80.9,393.5 -147.3,441 -107.8,463 -58.4,443.3 	"/>
	<polygon fill="#D83F47" points="-80.6,393.9 -147.1,441.3 -107.2,463.3 -58.1,443.7 	"/>
	<polygon fill="#D83E47" points="-80.4,394.3 -146.8,441.6 -106.8,463.7 -58,444.3 	"/>
	<polygon fill="#D73D48" points="-79.9,394.9 -146.5,441.9 -106.2,464 -57.7,444.7 	"/>
	<polygon fill="#D73C48" points="-79.7,395.3 -146.2,442.2 -105.8,464.4 -57.6,445.1 	"/>
	<polygon fill="#D73B49" points="-79.2,395.9 -145.8,442.4 -105.3,464.7 -57.3,445.5 	"/>
	<polygon fill="#D63A49" points="-79,396.3 -145.5,442.7 -104.8,464.9 -57.2,445.9 	"/>
	<polygon fill="#D6394A" points="-78.5,396.9 -145.2,443 -104.3,465.4 -56.9,446.5 	"/>
	<polygon fill="#D6384A" points="-78.3,397.3 -145,443.3 -103.9,465.6 -56.7,446.9 	"/>
	<polygon fill="#D5374B" points="-77.8,397.7 -144.7,443.6 -103.3,466.1 -56.5,447.3 	"/>
	<polygon fill="#D5364B" points="-77.6,398.3 -144.3,443.8 -102.9,466.3 -56.3,447.7 	"/>
	<polygon fill="#D5354C" points="-77.1,398.7 -144,444 -102.3,466.8 -56,448.2 	"/>
	<polygon fill="#D5344C" points="-76.9,399.2 -143.7,444.3 -101.9,467 -55.8,448.7 	"/>
	<polygon fill="#D4334D" points="-76.4,399.6 -143.4,444.5 -101.3,467.5 -55.6,449.1 	"/>
	<polygon fill="#D4324D" points="-76.2,400.1 -143.1,444.8 -100.9,467.7 -55.3,449.6 	"/>
	<polygon fill="#D4314E" points="-75.7,400.6 -142.7,445.1 -100.4,468.2 -55.2,450 	"/>
	<polygon fill="#D3304E" points="-75.5,401 -142.4,445.4 -99.9,468.4 -54.9,450.4 	"/>
	<polygon fill="#D32F4E" points="-75,401.6 -142.2,445.7 -99.4,468.9 -54.8,451 	"/>
	<polygon fill="#D32E4F" points="-74.8,402 -141.9,445.9 -99,469.1 -54.5,451.4 	"/>
	<polygon fill="#D22D4F" points="-74.4,402.6 -141.6,446.2 -98.4,469.4 -54.4,451.8 	"/>
	<polygon fill="#D22C50" points="-74.1,403 -141.2,446.5 -98,469.8 -54.1,452.2 	"/>
	<polygon fill="#D22B50" points="-73.7,403.4 -140.9,446.8 -97.4,470.1 -53.8,452.6 	"/>
	<polygon fill="#D12A51" points="-73.4,404 -140.6,447.1 -97,470.5 -53.7,453.2 	"/>
	<polygon fill="#D12951" points="-73,404.4 -140.3,447.3 -96.4,470.8 -53.4,453.6 	"/>
	<polygon fill="#D12852" points="-72.7,405 -140.1,447.5 -96,471.2 -53.2,454 	"/>
	<polygon fill="#D02752" points="-72.4,405.4 -139.8,447.7 -95.5,471.5 -53,454.5 	"/>
	<polygon fill="#D02653" points="-72,405.8 -139.4,448 -95,471.9 -52.8,454.9 	"/>
	<polygon fill="#D02553" points="-71.7,406.4 -139.1,448.3 -94.5,472.2 -52.5,455.3 	"/>
	<polygon fill="#D02454" points="-71.3,406.8 -138.8,448.6 -94.1,472.6 -52.4,455.9 	"/>
	<polygon fill="#CF2354" points="-71,407.3 -138.5,448.9 -93.5,472.9 -52.1,456.3 	"/>
	<polygon fill="#CF2255" points="-70.6,407.8 -138.3,449.1 -93.1,473.2 -51.8,456.7 	"/>
	<polygon fill="#CF2155" points="-70.3,408.2 -137.8,449.4 -92.5,473.6 -51.7,457.1 	"/>
	<polygon fill="#CE2056" points="-69.9,408.7 -137.6,449.7 -92.1,473.9 -51.4,457.5 	"/>
	<polygon fill="#CE1F56" points="-69.6,409.2 -137.3,450 -91.5,474.3 -51.3,458.1 	"/>
	<polygon fill="#CE1E57" points="-69.2,409.7 -137,450.3 -91.1,474.6 -51,458.5 	"/>
	<polygon fill="#CD1D57" points="-68.9,410.1 -136.7,450.5 -90.6,475 -50.9,458.9 	"/>
	<polygon fill="#CD1C58" points="-68.5,410.7 -136.3,450.7 -90.2,475.3 -50.6,459.4 	"/>
	<polygon fill="#CD1B58" points="-68.2,411.1 -136,451 -89.6,475.7 -50.4,459.8 	"/>
	<polygon fill="#CC1A59" points="-67.8,411.5 -135.7,451.2 -89,476 -50.2,460.3 	"/>
	<polygon fill="#CC1959" points="-67.5,412.1 -135.5,451.5 -88.6,476.4 -50,460.8 	"/>
	<polygon fill="#CC185A" points="-67.1,412.5 -135.2,451.8 -88.1,476.7 -49.7,461.2 	"/>
	<polygon fill="#CB175A" points="-66.8,413.1 -134.9,452.1 -87.6,477 -49.5,461.6 	"/>
	<polygon fill="#CB165B" points="-66.4,413.5 -134.5,452.4 -87.1,477.4 -49.3,462 	"/>
	<polygon fill="#CB155B" points="-66.1,413.9 -134.2,452.6 -86.7,477.7 -49,462.6 	"/>
	<polygon fill="#CB145C" points="-65.7,414.5 -133.9,452.9 -86.1,478.1 -48.9,463 	"/>
	<polygon fill="#CA135C" points="-65.4,414.9 -133.6,453.2 -85.7,478.4 -48.6,463.4 	"/>
	<polygon fill="#CA125D" points="-65,415.4 -133.4,453.5 -85.1,478.8 -48.5,463.8 	"/>
	<polygon fill="#CA115D" points="-64.7,415.9 -132.9,453.8 -84.7,479.1 -48.2,464.2 	"/>
	<polygon fill="#C9105E" points="-64.4,416.4 -132.7,454 -84.1,479.5 -48.1,464.8 	"/>
	<polygon fill="#C90F5E" points="-64,416.8 -132.4,454.2 -83.7,479.8 -47.8,465.2 	"/>
</g>
<path d="M-40.1,391.9h85v85h-85V391.9z"/>
<path fill="#FFFFFF" d="M-32.2,461h31.9v5.3h-31.9V461z"/>
<path d="M71.7,391.7h38.8c10.8,0,19.1,3,24.7,8.6c4.7,4.7,7.3,11.4,7.3,19.4v0.2c0,13.7-7.4,22.3-18.2,26.3l20.7,30.3h-21.8
	L105,449.4H90.3v27.1H71.6L71.7,391.7L71.7,391.7z M109.2,432.9c9.1,0,14.3-4.8,14.3-12v-0.2c0-8-5.6-12.1-14.7-12.1H90.3V433h18.9
	V432.9z"/>
<path d="M146.6,388.1H166v16.4h-19.4V388.1z M147.1,411.6h18.4v65h-18.4V411.6z"/>
<path d="M168.8,444.2V444c0-21.7,14.2-33.6,29.6-33.6c9.8,0,15.9,4.5,20.2,9.7v-32H237v88.5h-18.4v-9.3
	c-4.5,6.1-10.7,10.5-20.2,10.5C183.2,477.8,168.8,465.9,168.8,444.2z M218.8,444.2V444c0-10.8-7.2-17.9-15.8-17.9s-15.9,7-15.9,17.9
	v0.2c0,10.8,7.3,17.9,15.9,17.9C211.7,462.2,218.8,455,218.8,444.2z"/>
<path d="M239.2,444.5v-0.2c0-18.5,13.2-33.8,32.1-33.8c21.7,0,31.6,16.8,31.6,35.3c0,1.5-0.1,3.2-0.2,4.8h-45.2
	c1.8,8.4,7.6,12.7,15.9,12.7c6.2,0,10.7-1.9,15.8-6.7l10.5,9.3c-6.1,7.5-14.8,12.1-26.5,12.1C253.6,478,239.2,464.3,239.2,444.5z
	 M285,439c-1.1-8.2-5.9-13.8-13.7-13.8c-7.6,0-12.6,5.5-14.1,13.8H285z"/>
<path d="M305.5,411.6h18.4v13.1c3.8-9,9.8-14.8,20.7-14.3v19.3h-1c-12.2,0-19.8,7.4-19.8,22.9v24h-18.4L305.5,411.6L305.5,411.6z"/>
<g>
	<path fill="#FFFFFF" d="M-32.2,402.1h9.7c2.7,0,4.8,0.8,6.2,2.2c1.2,1.2,1.8,2.9,1.8,4.9v0.1c0,3.4-1.9,5.6-4.6,6.6l5.2,7.6h-5.5
		l-4.6-6.8h-3.7v6.8h-4.5V402.1z M-22.8,412.4c2.3,0,3.6-1.2,3.6-3v-0.1c0-2-1.4-3-3.7-3h-4.6v6.1H-22.8z"/>
	<path fill="#FFFFFF" d="M-11.3,402.1H-3c6.7,0,11.3,4.6,11.3,10.6v0.1c0,6-4.6,10.6-11.3,10.6h-8.3V402.1z M-6.6,406.3v12.8H-3
		c3.8,0,6.4-2.6,6.4-6.3v-0.1c0-3.8-2.6-6.4-6.4-6.4H-6.6z"/>
</g>
</svg>
