<svg xmlns="http://www.w3.org/2000/svg" xmlns:xlink="http://www.w3.org/1999/xlink" width="450" zoomAndPan="magnify" viewBox="0 0 337.5 337.500003" height="450" preserveAspectRatio="xMidYMid meet" version="1.0"><defs><clipPath id="90da281e5e"><path d="M 7.308594 7.308594 L 147 7.308594 L 147 188 L 7.308594 188 Z M 7.308594 7.308594 " clip-rule="nonzero"/></clipPath><clipPath id="a4c1f736e8"><path d="M 63 64 L 329.332031 64 L 329.332031 329.332031 L 63 329.332031 Z M 63 64 " clip-rule="nonzero"/></clipPath></defs><g clip-path="url(#90da281e5e)"><path fill="#ff671b" d="M 122.8125 58.503906 C 128.753906 58.503906 134.335938 61.390625 137.746094 66.226562 C 138.929688 67.910156 141.066406 68.632812 143.027344 68.011719 C 144.992188 67.390625 146.324219 65.566406 146.324219 63.511719 L 146.324219 12.03125 C 146.324219 9.421875 144.210938 7.308594 141.605469 7.308594 L 12.25 7.308594 C 9.644531 7.308594 7.53125 9.421875 7.53125 12.03125 L 7.53125 44.542969 C 7.53125 47.148438 9.644531 49.265625 12.25 49.265625 C 14.859375 49.265625 16.972656 47.148438 16.972656 44.542969 L 16.972656 16.75 L 136.882812 16.75 L 136.882812 52.894531 C 132.675781 50.421875 127.828125 49.0625 122.8125 49.0625 C 107.585938 49.0625 95.203125 61.449219 95.203125 76.671875 C 95.203125 91.898438 107.589844 104.285156 122.8125 104.285156 C 127.828125 104.285156 132.675781 102.925781 136.882812 100.453125 L 136.882812 136.59375 L 89.792969 136.59375 C 87.722656 136.59375 85.894531 137.945312 85.285156 139.921875 C 84.671875 141.898438 85.421875 144.042969 87.128906 145.214844 C 92.097656 148.609375 95.066406 154.222656 95.066406 160.226562 C 95.066406 170.246094 86.914062 178.398438 76.894531 178.398438 C 66.875 178.398438 58.722656 170.246094 58.722656 160.226562 C 58.722656 154.222656 61.691406 148.609375 66.660156 145.214844 C 68.367188 144.046875 69.117188 141.898438 68.503906 139.921875 C 67.894531 137.945312 66.066406 136.59375 63.996094 136.59375 L 16.972656 136.59375 L 16.972656 60.277344 C 16.972656 57.671875 14.859375 55.558594 12.253906 55.558594 C 9.644531 55.558594 7.53125 57.671875 7.53125 60.277344 L 7.53125 141.316406 C 7.53125 143.921875 9.644531 146.035156 12.253906 146.035156 L 53.207031 146.035156 C 50.675781 150.261719 49.28125 155.152344 49.28125 160.226562 C 49.28125 175.449219 61.667969 187.835938 76.894531 187.835938 C 92.117188 187.835938 104.507812 175.449219 104.507812 160.226562 C 104.507812 155.152344 103.113281 150.261719 100.578125 146.035156 L 141.601562 146.035156 C 144.210938 146.035156 146.324219 143.921875 146.324219 141.316406 L 146.324219 89.835938 C 146.324219 87.777344 144.992188 85.957031 143.027344 85.335938 C 141.066406 84.714844 138.929688 85.433594 137.742188 87.117188 C 134.335938 91.957031 128.753906 94.84375 122.8125 94.84375 C 112.792969 94.84375 104.640625 86.691406 104.640625 76.671875 C 104.644531 66.652344 112.796875 58.503906 122.8125 58.503906 Z M 122.8125 58.503906 " fill-opacity="1" fill-rule="nonzero"/></g><g clip-path="url(#a4c1f736e8)"><path fill="#ff671b" d="M 324.742188 124.195312 C 327.351562 124.195312 329.464844 122.082031 329.464844 119.476562 L 329.464844 69.0625 C 329.464844 66.457031 327.351562 64.34375 324.742188 64.34375 L 196.726562 64.34375 C 194.117188 64.34375 192.003906 66.457031 192.003906 69.0625 L 192.003906 109.503906 C 187.847656 107.023438 183.050781 105.660156 178.078125 105.660156 C 162.980469 105.660156 150.699219 117.941406 150.699219 133.039062 C 150.699219 148.132812 162.980469 160.414062 178.078125 160.414062 C 183.046875 160.414062 187.84375 159.050781 192.003906 156.574219 L 192.003906 192.292969 L 145.710938 192.292969 C 143.652344 192.292969 141.832031 193.625 141.210938 195.585938 C 140.589844 197.546875 141.3125 199.6875 142.992188 200.871094 C 147.769531 204.234375 150.621094 209.71875 150.621094 215.542969 C 150.621094 225.429688 142.574219 233.476562 132.683594 233.476562 C 122.796875 233.476562 114.75 225.429688 114.75 215.542969 C 114.75 209.71875 117.601562 204.234375 122.375 200.871094 C 124.058594 199.6875 124.78125 197.546875 124.15625 195.585938 C 123.535156 193.625 121.714844 192.292969 119.65625 192.292969 L 68.710938 192.292969 C 66.101562 192.292969 63.988281 194.40625 63.988281 197.011719 L 63.988281 271.558594 C 63.988281 274.164062 66.101562 276.277344 68.710938 276.277344 C 71.316406 276.277344 73.429688 274.164062 73.429688 271.558594 L 73.429688 201.734375 L 109.058594 201.734375 C 106.636719 205.871094 105.308594 210.628906 105.308594 215.542969 C 105.308594 230.636719 117.589844 242.917969 132.683594 242.917969 C 147.777344 242.917969 160.058594 230.636719 160.058594 215.542969 C 160.058594 210.625 158.730469 205.871094 156.3125 201.734375 L 192.003906 201.734375 L 192.003906 248.222656 C 192.003906 250.292969 193.351562 252.121094 195.332031 252.730469 C 197.308594 253.34375 199.453125 252.59375 200.621094 250.882812 C 203.96875 245.988281 209.472656 243.0625 215.351562 243.054688 C 225.226562 243.070312 233.253906 251.109375 233.253906 260.988281 C 233.253906 270.867188 225.226562 278.90625 215.351562 278.921875 C 209.472656 278.914062 203.96875 275.988281 200.621094 271.089844 C 199.453125 269.382812 197.308594 268.632812 195.332031 269.246094 C 193.351562 269.855469 192.003906 271.683594 192.003906 273.753906 L 192.003906 320.242188 L 73.429688 320.242188 L 73.429688 287.292969 C 73.429688 284.6875 71.316406 282.574219 68.710938 282.574219 C 66.101562 282.574219 63.988281 284.6875 63.988281 287.292969 L 63.988281 324.964844 C 63.988281 327.570312 66.101562 329.683594 68.710938 329.683594 L 324.742188 329.683594 C 327.351562 329.683594 329.464844 327.570312 329.464844 324.964844 L 329.464844 135.210938 C 329.464844 132.601562 327.351562 130.488281 324.742188 130.488281 C 322.136719 130.488281 320.023438 132.601562 320.023438 135.210938 L 320.023438 192.292969 L 284.394531 192.292969 C 286.8125 188.15625 288.144531 183.398438 288.144531 178.484375 C 288.144531 178.449219 288.140625 178.414062 288.140625 178.378906 C 288.140625 178.351562 288.144531 178.324219 288.144531 178.296875 C 288.144531 163.203125 275.863281 150.921875 260.769531 150.921875 C 245.675781 150.921875 233.394531 163.203125 233.394531 178.296875 C 233.394531 178.324219 233.394531 178.351562 233.394531 178.378906 C 233.394531 178.414062 233.394531 178.449219 233.394531 178.484375 C 233.394531 183.398438 234.722656 188.15625 237.140625 192.292969 L 201.449219 192.292969 L 201.449219 145.804688 C 201.449219 143.734375 200.101562 141.90625 198.121094 141.292969 C 196.144531 140.683594 194 141.433594 192.832031 143.140625 C 189.480469 148.046875 183.964844 150.972656 178.078125 150.972656 C 168.1875 150.972656 160.144531 142.925781 160.144531 133.039062 C 160.144531 123.148438 168.1875 115.101562 178.078125 115.101562 C 183.964844 115.101562 189.480469 118.03125 192.832031 122.933594 C 193.996094 124.644531 196.140625 125.394531 198.121094 124.78125 C 200.101562 124.167969 201.449219 122.339844 201.449219 120.269531 L 201.449219 73.78125 L 320.023438 73.78125 L 320.023438 119.472656 C 320.023438 122.082031 322.136719 124.195312 324.742188 124.195312 Z M 201.445312 201.734375 L 248 201.734375 C 250.070312 201.734375 251.898438 200.386719 252.511719 198.40625 C 253.121094 196.429688 252.375 194.285156 250.664062 193.117188 C 245.785156 189.78125 242.863281 184.277344 242.835938 178.382812 C 242.890625 168.539062 250.914062 160.546875 260.765625 160.546875 C 270.621094 160.546875 278.644531 168.539062 278.699219 178.382812 C 278.671875 184.277344 275.75 189.78125 270.871094 193.117188 C 269.160156 194.285156 268.414062 196.429688 269.023438 198.40625 C 269.636719 200.386719 271.464844 201.734375 273.535156 201.734375 L 320.023438 201.734375 L 320.023438 320.242188 L 201.445312 320.242188 L 201.445312 284.609375 C 205.597656 287.03125 210.378906 288.363281 215.320312 288.363281 C 215.332031 288.363281 215.34375 288.363281 215.351562 288.363281 C 215.359375 288.363281 215.367188 288.363281 215.375 288.363281 C 230.46875 288.363281 242.75 276.082031 242.75 260.988281 C 242.75 245.894531 230.46875 233.613281 215.375 233.613281 C 215.367188 233.613281 215.359375 233.613281 215.351562 233.613281 C 215.34375 233.613281 215.332031 233.613281 215.320312 233.613281 C 210.378906 233.613281 205.597656 234.945312 201.445312 237.371094 Z M 201.445312 201.734375 " fill-opacity="1" fill-rule="nonzero"/></g></svg>