<?xml version="1.0" encoding="iso-8859-1"?>
<!-- Generator: Adobe Illustrator 19.0.0, SVG Export Plug-In . SVG Version: 6.00 Build 0)  -->
<svg xmlns="http://www.w3.org/2000/svg" xmlns:xlink="http://www.w3.org/1999/xlink" version="1.1" id="Capa_1" x="0px" y="0px" viewBox="0 0 512 512" style="enable-background:new 0 0 512 512;" xml:space="preserve" width="512px" height="512px">
<g>
	<g>
		<path d="M493.179,296.649h-77.922V173.006c0-5.523-4.478-10-10-10H328.42l-68.59-68.589    c-10.903-10.903-26.539-16.213-41.825-14.207l-40.962,5.377c0.857-3.316-0.002-6.984-2.599-9.581l-22.728-22.728    c-0.438-0.77-0.972-1.489-1.61-2.127L101.884,2.929c-3.905-3.905-10.237-3.905-14.142,0L11.75,78.921    c-3.905,3.905-3.905,10.237,0,14.142l125.812,125.813c9.793,9.793,22.812,15.247,36.659,15.357l58.928,0.475v61.941H36.463    c-5.523,0-10,4.477-10,10V502c0,5.523,4.477,10,10,10h456.716c5.523,0,10-4.477,10-10V306.649    C503.179,301.126,498.701,296.649,493.179,296.649z M395.256,183.011V359H253.149V234.313c0.239-0.041,0.473-0.092,0.711-0.137    c0.216-0.041,0.432-0.08,0.647-0.125c0.369-0.078,0.734-0.165,1.099-0.254c0.183-0.045,0.368-0.085,0.55-0.132    c0.487-0.127,0.969-0.265,1.448-0.412c0.056-0.017,0.113-0.031,0.169-0.049c0.535-0.167,1.064-0.348,1.588-0.539    c0.155-0.057,0.307-0.12,0.462-0.179c0.366-0.139,0.73-0.28,1.09-0.43c0.193-0.081,0.382-0.167,0.573-0.251    c0.317-0.139,0.632-0.279,0.944-0.428c0.202-0.096,0.401-0.196,0.601-0.296c0.295-0.147,0.589-0.296,0.88-0.451    c0.202-0.108,0.403-0.218,0.603-0.33c0.284-0.158,0.565-0.32,0.844-0.486c0.197-0.117,0.393-0.234,0.587-0.355    c0.278-0.172,0.552-0.35,0.825-0.529c0.187-0.123,0.374-0.245,0.559-0.372c0.28-0.192,0.555-0.391,0.829-0.59    c0.169-0.123,0.34-0.243,0.506-0.369c0.307-0.232,0.607-0.471,0.906-0.712c0.126-0.102,0.256-0.2,0.381-0.303    c0.421-0.349,0.834-0.706,1.238-1.073c0.061-0.056,0.12-0.115,0.181-0.171c0.341-0.314,0.677-0.632,1.005-0.958    c0.135-0.134,0.265-0.274,0.398-0.41c0.248-0.255,0.495-0.51,0.736-0.772c0.148-0.161,0.29-0.325,0.435-0.489    c0.218-0.246,0.435-0.494,0.646-0.746c0.147-0.175,0.29-0.352,0.433-0.53c0.202-0.25,0.401-0.502,0.596-0.758    c0.14-0.183,0.278-0.368,0.414-0.554c0.19-0.259,0.376-0.521,0.559-0.786c0.13-0.188,0.26-0.376,0.387-0.567    c0.182-0.273,0.358-0.55,0.532-0.829c0.118-0.188,0.237-0.375,0.351-0.565c0.18-0.299,0.352-0.604,0.523-0.908    c0.098-0.175,0.2-0.348,0.295-0.524c0.203-0.376,0.396-0.759,0.586-1.143c0.054-0.11,0.113-0.217,0.166-0.328    c0.239-0.496,0.467-0.999,0.683-1.508c0.059-0.139,0.112-0.282,0.17-0.423c0.153-0.373,0.304-0.747,0.445-1.126    c0.072-0.194,0.137-0.39,0.206-0.586c0.116-0.331,0.231-0.662,0.338-0.997c0.069-0.216,0.132-0.434,0.197-0.652    c0.095-0.32,0.188-0.642,0.275-0.966c0.061-0.227,0.118-0.456,0.174-0.685c0.079-0.321,0.154-0.642,0.224-0.966    c0.051-0.234,0.099-0.468,0.145-0.703c0.064-0.328,0.122-0.658,0.177-0.989c0.039-0.233,0.078-0.465,0.112-0.699    c0.05-0.345,0.092-0.693,0.133-1.041c0.026-0.224,0.055-0.446,0.077-0.671c0.037-0.385,0.064-0.773,0.089-1.162    c0.012-0.19,0.03-0.379,0.039-0.57c0.028-0.581,0.044-1.165,0.044-1.753v-0.118c0-0.669-0.022-1.332-0.058-1.991    c-0.012-0.215-0.033-0.427-0.049-0.64c-0.032-0.444-0.068-0.888-0.117-1.327c-0.027-0.248-0.062-0.495-0.094-0.741    c-0.053-0.403-0.11-0.805-0.177-1.204c-0.042-0.253-0.088-0.505-0.135-0.756c-0.074-0.392-0.155-0.781-0.241-1.168    c-0.055-0.246-0.11-0.491-0.17-0.735c-0.098-0.399-0.206-0.793-0.317-1.187c-0.063-0.222-0.123-0.446-0.19-0.666    c-0.137-0.449-0.286-0.893-0.44-1.335c-0.055-0.157-0.103-0.317-0.16-0.473c-0.217-0.596-0.448-1.184-0.695-1.765    c-0.048-0.114-0.103-0.224-0.153-0.337c-0.203-0.463-0.412-0.923-0.634-1.376c-0.023-0.048-0.043-0.098-0.067-0.146H395.256z     M32.964,85.992l61.849-61.85l34.081,34.08l-61.85,61.851L32.964,85.992z M81.186,134.216l61.592-61.593l10.453,10.454    l-61.592,61.592L81.186,134.216z M174.382,214.233c-8.566-0.067-16.619-3.441-22.677-9.5l-45.923-45.923l15.711-15.711    l34.59-34.59l64.526-8.47c9.165-1.203,18.542,1.981,25.08,8.519l54.447,54.446h-53.023H208.19c-5.523,0-10,4.477-10,10    c0,5.523,4.477,10,10,10h38.922c8.739,0,15.849,7.11,15.849,15.849v0.118c0,2.731-0.694,5.303-1.913,7.548    c-2.682,4.94-7.902,8.301-13.855,8.301L174.382,214.233z M46.463,316.649h186.686V359h-85.51c-5.523,0-10,4.477-10,10    s4.477,10,10,10h95.51h162.107h11.774c5.522,0,10-4.477,10-10s-4.478-10-10-10h-1.774v-42.351h67.922v118.472H46.463V316.649z     M483.179,492H46.463v-36.879h436.716V492z" fill="#00aeef"/>
	</g>
</g>
<g>
	<g>
		<path d="M374.101,219.477c-4.624-3.025-10.82-1.728-13.844,2.892l-38.346,58.602L292.3,256.87    c-4.282-3.485-10.582-2.84-14.068,1.443c-3.486,4.283-2.84,10.582,1.443,14.068l38.216,31.106    c1.795,1.461,4.028,2.244,6.313,2.244c0.511,0,1.023-0.039,1.535-0.119c2.799-0.435,5.281-2.036,6.833-4.406l44.422-67.886    C380.017,228.698,378.722,222.501,374.101,219.477z" fill="#00aeef"/>
	</g>
</g>
<g>
	<g>
		<path d="M178.52,171.05c-0.13-0.64-0.32-1.26-0.57-1.87c-0.25-0.6-0.56-1.18-0.92-1.72c-0.37-0.55-0.78-1.06-1.25-1.53    c-0.46-0.46-0.97-0.87-1.52-1.24c-0.54-0.36-1.12-0.67-1.72-0.92c-0.61-0.25-1.23-0.44-1.87-0.57c-1.29-0.26-2.62-0.26-3.91,0    c-0.64,0.13-1.27,0.32-1.87,0.57c-0.61,0.25-1.19,0.56-1.73,0.92c-0.55,0.37-1.06,0.78-1.52,1.24c-0.46,0.47-0.88,0.98-1.24,1.53    c-0.36,0.54-0.67,1.12-0.92,1.72c-0.25,0.61-0.44,1.23-0.57,1.87c-0.13,0.65-0.2,1.3-0.2,1.96c0,0.65,0.07,1.31,0.2,1.95    c0.13,0.64,0.32,1.27,0.57,1.87c0.25,0.6,0.56,1.18,0.92,1.73c0.36,0.54,0.78,1.059,1.24,1.52c0.46,0.46,0.97,0.88,1.52,1.24    c0.54,0.36,1.12,0.67,1.73,0.92c0.6,0.25,1.23,0.44,1.87,0.57s1.3,0.2,1.95,0.2c0.66,0,1.31-0.07,1.96-0.2    c0.64-0.13,1.26-0.32,1.87-0.57c0.6-0.25,1.18-0.56,1.72-0.92c0.55-0.36,1.06-0.78,1.52-1.24c0.47-0.461,0.88-0.98,1.25-1.52    c0.36-0.55,0.67-1.13,0.92-1.73c0.25-0.6,0.44-1.23,0.57-1.87c0.13-0.64,0.19-1.3,0.19-1.95    C178.71,172.35,178.65,171.7,178.52,171.05z" fill="#00aeef"/>
	</g>
</g>
<g>
	<g>
		<path d="M122.41,367.05c-0.12-0.64-0.32-1.27-0.57-1.87c-0.25-0.61-0.56-1.19-0.92-1.73c-0.36-0.55-0.78-1.06-1.24-1.52    c-0.46-0.46-0.97-0.88-1.52-1.24c-0.54-0.36-1.12-0.67-1.73-0.92c-0.6-0.25-1.23-0.44-1.87-0.57c-1.29-0.26-2.61-0.26-3.9,0    c-0.64,0.13-1.27,0.32-1.87,0.57c-0.61,0.25-1.19,0.56-1.73,0.92c-0.55,0.36-1.06,0.78-1.52,1.24c-0.46,0.46-0.88,0.97-1.24,1.52    c-0.36,0.54-0.67,1.12-0.92,1.73c-0.25,0.6-0.44,1.23-0.57,1.87s-0.2,1.3-0.2,1.95c0,0.65,0.07,1.31,0.2,1.95s0.32,1.27,0.57,1.88    c0.25,0.6,0.56,1.18,0.92,1.72c0.36,0.55,0.78,1.06,1.24,1.52c0.46,0.46,0.97,0.88,1.52,1.24c0.539,0.36,1.12,0.67,1.73,0.92    c0.6,0.25,1.23,0.45,1.87,0.57c0.64,0.13,1.3,0.2,1.95,0.2c2.63,0,5.21-1.07,7.07-2.93c0.46-0.46,0.88-0.97,1.24-1.52    c0.36-0.54,0.67-1.12,0.92-1.72c0.25-0.61,0.45-1.24,0.57-1.88c0.13-0.64,0.2-1.3,0.2-1.95    C122.61,368.35,122.54,367.69,122.41,367.05z" fill="#00aeef"/>
	</g>
</g>
<g>
</g>
<g>
</g>
<g>
</g>
<g>
</g>
<g>
</g>
<g>
</g>
<g>
</g>
<g>
</g>
<g>
</g>
<g>
</g>
<g>
</g>
<g>
</g>
<g>
</g>
<g>
</g>
<g>
</g>
</svg>
