<svg xmlns="http://www.w3.org/2000/svg" xmlns:xlink="http://www.w3.org/1999/xlink" width="450" zoomAndPan="magnify" viewBox="0 0 337.5 337.500003" height="450" preserveAspectRatio="xMidYMid meet" version="1.0"><defs><clipPath id="89b3069d1a"><path d="M 9 4.210938 L 330 4.210938 L 330 334.472656 L 9 334.472656 Z M 9 4.210938 " clip-rule="nonzero"/></clipPath></defs><g clip-path="url(#89b3069d1a)"><path fill="#ff671b" d="M 322.613281 195.734375 L 272.308594 195.734375 L 272.308594 115.90625 C 272.308594 112.339844 269.417969 109.449219 265.851562 109.449219 L 216.246094 109.449219 L 171.960938 65.167969 C 164.921875 58.128906 154.828125 54.703125 144.960938 55.996094 L 118.511719 59.46875 C 119.066406 57.328125 118.511719 54.960938 116.835938 53.28125 L 102.164062 38.609375 C 101.878906 38.113281 101.535156 37.648438 101.121094 37.234375 L 69.988281 6.105469 C 67.46875 3.582031 63.382812 3.582031 60.859375 6.105469 L 11.796875 55.164062 C 9.277344 57.6875 9.277344 61.773438 11.796875 64.296875 L 93.023438 145.519531 C 99.347656 151.84375 107.75 155.363281 116.691406 155.4375 L 154.734375 155.742188 L 154.734375 195.734375 L 27.753906 195.734375 C 24.1875 195.734375 21.296875 198.621094 21.296875 202.1875 L 21.296875 328.308594 C 21.296875 331.875 24.1875 334.765625 27.753906 334.765625 L 322.613281 334.765625 C 326.179688 334.765625 329.070312 331.875 329.070312 328.308594 L 329.070312 202.1875 C 329.070312 198.621094 326.179688 195.734375 322.613281 195.734375 Z M 259.394531 122.367188 L 259.394531 235.988281 L 167.648438 235.988281 L 167.648438 155.488281 C 167.804688 155.460938 167.953125 155.429688 168.109375 155.398438 C 168.246094 155.371094 168.386719 155.347656 168.523438 155.320312 C 168.761719 155.269531 169 155.210938 169.234375 155.15625 C 169.351562 155.125 169.472656 155.101562 169.589844 155.070312 C 169.902344 154.988281 170.214844 154.898438 170.523438 154.804688 C 170.5625 154.792969 170.597656 154.785156 170.632812 154.773438 C 170.980469 154.664062 171.320312 154.546875 171.660156 154.421875 C 171.757812 154.386719 171.855469 154.347656 171.957031 154.308594 C 172.195312 154.21875 172.429688 154.128906 172.660156 154.03125 C 172.785156 153.976562 172.90625 153.921875 173.03125 153.867188 C 173.234375 153.777344 173.4375 153.6875 173.640625 153.59375 C 173.769531 153.53125 173.898438 153.464844 174.027344 153.402344 C 174.21875 153.304688 174.410156 153.210938 174.597656 153.109375 C 174.726562 153.039062 174.855469 152.96875 174.984375 152.898438 C 175.167969 152.792969 175.351562 152.691406 175.53125 152.582031 C 175.65625 152.507812 175.785156 152.433594 175.910156 152.355469 C 176.089844 152.242188 176.265625 152.128906 176.441406 152.011719 C 176.5625 151.933594 176.683594 151.855469 176.804688 151.773438 C 176.984375 151.648438 177.160156 151.519531 177.339844 151.390625 C 177.449219 151.3125 177.558594 151.234375 177.664062 151.152344 C 177.863281 151.003906 178.058594 150.847656 178.25 150.695312 C 178.332031 150.628906 178.414062 150.5625 178.496094 150.496094 C 178.769531 150.273438 179.035156 150.042969 179.296875 149.804688 C 179.335938 149.769531 179.371094 149.730469 179.414062 149.695312 C 179.632812 149.492188 179.847656 149.285156 180.0625 149.078125 C 180.148438 148.988281 180.230469 148.898438 180.316406 148.8125 C 180.476562 148.648438 180.636719 148.480469 180.792969 148.3125 C 180.890625 148.210938 180.980469 148.101562 181.074219 147.996094 C 181.214844 147.839844 181.355469 147.679688 181.492188 147.515625 C 181.585938 147.402344 181.679688 147.289062 181.769531 147.171875 C 181.902344 147.011719 182.03125 146.847656 182.15625 146.683594 C 182.246094 146.566406 182.335938 146.445312 182.421875 146.328125 C 182.546875 146.160156 182.664062 145.988281 182.785156 145.820312 C 182.867188 145.699219 182.953125 145.578125 183.035156 145.453125 C 183.152344 145.277344 183.265625 145.097656 183.378906 144.917969 C 183.453125 144.796875 183.53125 144.675781 183.605469 144.554688 C 183.71875 144.359375 183.832031 144.164062 183.941406 143.96875 C 184.003906 143.855469 184.070312 143.742188 184.132812 143.628906 C 184.261719 143.386719 184.386719 143.136719 184.511719 142.890625 C 184.542969 142.820312 184.582031 142.75 184.617188 142.679688 C 184.773438 142.359375 184.917969 142.035156 185.058594 141.707031 C 185.097656 141.617188 185.128906 141.523438 185.167969 141.433594 C 185.265625 141.191406 185.363281 140.949219 185.457031 140.707031 C 185.5 140.578125 185.542969 140.453125 185.589844 140.328125 C 185.664062 140.113281 185.738281 139.898438 185.804688 139.683594 C 185.851562 139.542969 185.890625 139.402344 185.933594 139.261719 C 185.996094 139.054688 186.054688 138.847656 186.109375 138.636719 C 186.152344 138.492188 186.1875 138.34375 186.222656 138.195312 C 186.273438 137.988281 186.324219 137.78125 186.367188 137.574219 C 186.402344 137.421875 186.433594 137.269531 186.460938 137.117188 C 186.503906 136.90625 186.539062 136.695312 186.574219 136.480469 C 186.601562 136.328125 186.625 136.179688 186.648438 136.027344 C 186.679688 135.804688 186.707031 135.582031 186.734375 135.355469 C 186.75 135.210938 186.769531 135.070312 186.785156 134.921875 C 186.808594 134.675781 186.824219 134.425781 186.839844 134.171875 C 186.847656 134.050781 186.859375 133.929688 186.867188 133.804688 C 186.882812 133.429688 186.894531 133.054688 186.894531 132.671875 L 186.894531 132.597656 C 186.894531 132.164062 186.878906 131.738281 186.859375 131.3125 C 186.851562 131.171875 186.835938 131.035156 186.824219 130.898438 C 186.804688 130.613281 186.78125 130.324219 186.75 130.042969 C 186.734375 129.882812 186.710938 129.722656 186.691406 129.5625 C 186.65625 129.304688 186.617188 129.042969 186.574219 128.785156 C 186.546875 128.625 186.519531 128.460938 186.488281 128.296875 C 186.441406 128.046875 186.386719 127.792969 186.332031 127.542969 C 186.296875 127.386719 186.261719 127.226562 186.222656 127.070312 C 186.160156 126.8125 186.089844 126.558594 186.019531 126.304688 C 185.976562 126.160156 185.9375 126.015625 185.894531 125.875 C 185.808594 125.582031 185.710938 125.296875 185.613281 125.011719 C 185.574219 124.910156 185.546875 124.808594 185.507812 124.707031 C 185.367188 124.320312 185.21875 123.941406 185.058594 123.566406 C 185.027344 123.492188 184.992188 123.421875 184.960938 123.347656 C 184.828125 123.050781 184.695312 122.753906 184.550781 122.460938 C 184.535156 122.429688 184.523438 122.398438 184.507812 122.367188 Z M 25.496094 59.730469 L 65.425781 19.800781 L 87.429688 41.800781 L 47.496094 81.734375 Z M 56.628906 90.863281 L 96.390625 51.097656 L 103.140625 57.847656 L 63.375 97.613281 Z M 116.796875 142.523438 C 111.265625 142.480469 106.066406 140.300781 102.15625 136.390625 L 72.507812 106.742188 L 82.648438 96.597656 L 104.980469 74.265625 L 146.640625 68.800781 C 152.558594 68.023438 158.609375 70.078125 162.832031 74.300781 L 197.984375 109.449219 L 138.621094 109.449219 C 135.058594 109.449219 132.167969 112.339844 132.167969 115.90625 C 132.167969 119.472656 135.058594 122.363281 138.621094 122.363281 L 163.75 122.363281 C 169.394531 122.363281 173.984375 126.953125 173.984375 132.59375 L 173.984375 132.671875 C 173.984375 134.433594 173.535156 136.09375 172.75 137.542969 C 171.015625 140.734375 167.648438 142.902344 163.804688 142.902344 Z M 34.210938 208.644531 L 154.734375 208.644531 L 154.734375 235.988281 L 99.53125 235.988281 C 95.964844 235.988281 93.074219 238.878906 93.074219 242.441406 C 93.074219 246.007812 95.964844 248.898438 99.53125 248.898438 L 273.453125 248.898438 C 277.015625 248.898438 279.90625 246.007812 279.90625 242.441406 C 279.90625 238.878906 277.015625 235.988281 273.453125 235.988281 L 272.308594 235.988281 L 272.308594 208.644531 L 316.15625 208.644531 L 316.15625 285.132812 L 34.210938 285.132812 Z M 316.160156 321.855469 L 34.210938 321.855469 L 34.210938 298.042969 L 316.160156 298.042969 Z M 316.160156 321.855469 " fill-opacity="1" fill-rule="nonzero"/></g><path fill="#ff671b" d="M 245.738281 145.910156 C 242.75 143.957031 238.75 144.792969 236.796875 147.777344 L 212.042969 185.609375 L 192.925781 170.050781 C 190.160156 167.800781 186.09375 168.21875 183.84375 170.984375 C 181.589844 173.746094 182.007812 177.8125 184.773438 180.066406 L 209.445312 200.148438 C 210.605469 201.089844 212.046875 201.597656 213.523438 201.597656 C 213.851562 201.597656 214.183594 201.570312 214.511719 201.519531 C 216.320312 201.238281 217.921875 200.203125 218.925781 198.675781 L 247.605469 154.847656 C 249.554688 151.863281 248.71875 147.863281 245.738281 145.910156 Z M 245.738281 145.910156 " fill-opacity="1" fill-rule="nonzero"/><path fill="#ff671b" d="M 119.46875 114.644531 C 119.382812 114.230469 119.261719 113.832031 119.097656 113.4375 C 118.9375 113.050781 118.738281 112.675781 118.503906 112.328125 C 118.265625 111.972656 118 111.640625 117.699219 111.339844 C 117.402344 111.042969 117.070312 110.777344 116.71875 110.539062 C 116.367188 110.304688 115.992188 110.105469 115.605469 109.945312 C 115.210938 109.78125 114.8125 109.660156 114.398438 109.578125 C 113.566406 109.410156 112.707031 109.410156 111.875 109.578125 C 111.460938 109.660156 111.054688 109.78125 110.667969 109.945312 C 110.273438 110.105469 109.898438 110.304688 109.550781 110.539062 C 109.195312 110.777344 108.867188 111.042969 108.570312 111.339844 C 108.273438 111.640625 108 111.972656 107.769531 112.328125 C 107.535156 112.675781 107.335938 113.050781 107.175781 113.4375 C 107.011719 113.832031 106.890625 114.230469 106.808594 114.644531 C 106.722656 115.0625 106.675781 115.484375 106.675781 115.910156 C 106.675781 116.328125 106.722656 116.753906 106.808594 117.167969 C 106.890625 117.582031 107.011719 117.988281 107.175781 118.375 C 107.335938 118.761719 107.535156 119.136719 107.769531 119.492188 C 108 119.839844 108.273438 120.175781 108.570312 120.472656 C 108.867188 120.769531 109.195312 121.042969 109.550781 121.273438 C 109.898438 121.507812 110.273438 121.707031 110.667969 121.867188 C 111.054688 122.03125 111.460938 122.152344 111.875 122.238281 C 112.289062 122.320312 112.714844 122.367188 113.132812 122.367188 C 113.558594 122.367188 113.980469 122.320312 114.398438 122.238281 C 114.8125 122.152344 115.210938 122.03125 115.605469 121.867188 C 115.992188 121.707031 116.367188 121.507812 116.71875 121.273438 C 117.070312 121.042969 117.402344 120.769531 117.699219 120.472656 C 118 120.175781 118.265625 119.839844 118.503906 119.492188 C 118.738281 119.136719 118.9375 118.761719 119.097656 118.375 C 119.261719 117.988281 119.382812 117.582031 119.46875 117.167969 C 119.550781 116.753906 119.589844 116.328125 119.589844 115.910156 C 119.589844 115.484375 119.550781 115.0625 119.46875 114.644531 Z M 119.46875 114.644531 " fill-opacity="1" fill-rule="nonzero"/><path fill="#ff671b" d="M 83.242188 241.183594 C 83.164062 240.769531 83.035156 240.363281 82.875 239.976562 C 82.710938 239.582031 82.511719 239.207031 82.28125 238.859375 C 82.046875 238.503906 81.777344 238.175781 81.480469 237.878906 C 81.183594 237.582031 80.851562 237.3125 80.496094 237.078125 C 80.148438 236.847656 79.773438 236.644531 79.382812 236.484375 C 78.992188 236.324219 78.585938 236.199219 78.171875 236.117188 C 77.339844 235.949219 76.488281 235.949219 75.65625 236.117188 C 75.242188 236.199219 74.835938 236.324219 74.449219 236.484375 C 74.054688 236.644531 73.679688 236.847656 73.332031 237.078125 C 72.976562 237.3125 72.648438 237.582031 72.351562 237.878906 C 72.054688 238.175781 71.78125 238.503906 71.550781 238.859375 C 71.316406 239.207031 71.117188 239.582031 70.957031 239.976562 C 70.792969 240.363281 70.671875 240.769531 70.585938 241.183594 C 70.503906 241.597656 70.457031 242.023438 70.457031 242.441406 C 70.457031 242.863281 70.503906 243.289062 70.585938 243.703125 C 70.671875 244.117188 70.792969 244.523438 70.957031 244.914062 C 71.117188 245.304688 71.316406 245.679688 71.550781 246.027344 C 71.78125 246.382812 72.054688 246.710938 72.351562 247.007812 C 72.648438 247.304688 72.976562 247.574219 73.332031 247.808594 C 73.679688 248.039062 74.054688 248.242188 74.449219 248.402344 C 74.835938 248.5625 75.242188 248.691406 75.65625 248.769531 C 76.070312 248.855469 76.496094 248.898438 76.914062 248.898438 C 78.613281 248.898438 80.277344 248.207031 81.480469 247.007812 C 81.777344 246.710938 82.046875 246.382812 82.28125 246.027344 C 82.511719 245.679688 82.710938 245.304688 82.875 244.914062 C 83.035156 244.523438 83.164062 244.117188 83.242188 243.703125 C 83.324219 243.289062 83.371094 242.863281 83.371094 242.441406 C 83.371094 242.023438 83.324219 241.597656 83.242188 241.183594 Z M 83.242188 241.183594 " fill-opacity="1" fill-rule="nonzero"/></svg>